<svg width="50" height="50" viewBox="0 0 50 50" fill="none" xmlns="http://www.w3.org/2000/svg">
<g clip-path="url(#clip0_54_146)">
<path d="M37.6834 1.39001H5.08339C2.96937 1.39001 1.25562 3.21074 1.25562 5.45671V16.5767C1.25562 18.8226 2.96937 20.6434 5.08339 20.6434H37.6834C39.7974 20.6434 41.5112 18.8226 41.5112 16.5767V5.45671C41.5112 3.21074 39.7974 1.39001 37.6834 1.39001Z" fill="#94D5D2"/>
<path d="M17.4222 7.7468V8.17177C17.4222 9.38765 17.0722 10.1668 16.3111 10.5327C17.25 10.9223 17.6167 11.8194 17.6167 13.0707V14.0328C17.5945 15.8743 16.6667 16.8364 14.9389 16.8364H12.1611V5.03174H14.8C16.6667 5.03174 17.4222 5.91709 17.4222 7.7468ZM13.9389 6.7139V9.84213H14.6222C15.2722 9.84213 15.6722 9.53521 15.6722 8.59084V7.92978C15.6722 7.08574 15.4 6.7139 14.7834 6.7139H13.9389ZM13.9389 11.5302V15.166H14.9389C15.5278 15.166 15.8445 14.8768 15.8445 13.9856V12.9704C15.8445 11.8725 15.5111 11.5361 14.7334 11.5361L13.9389 11.5302Z" fill="white"/>
<path d="M20.3167 5.03174V14.1508C20.3167 14.9949 20.6667 15.3018 21.2223 15.3018C21.7778 15.3018 22.1278 14.9949 22.1278 14.1508V5.03174H23.7945V14.0328C23.7945 15.9274 22.9056 16.9839 21.1834 16.9839C19.4612 16.9839 18.5723 15.9038 18.5723 14.0328V5.03174H20.3167Z" fill="white"/>
<path d="M26.6168 12.9349L24.4056 5.03174H26.2334L27.5723 10.4265L28.889 5.03174H30.5556L28.3334 12.9467V16.8364H26.6168V12.9349Z" fill="white"/>
<path d="M38.7723 48.9686C37.2982 48.982 35.8363 48.6835 34.4718 48.0907C33.1074 47.4979 31.8676 46.6226 30.8247 45.5157C29.7818 44.4088 28.9566 43.0925 28.3973 41.6434C27.8379 40.1944 27.5556 38.6416 27.5667 37.0754V28.8122C27.5667 27.5727 28.4278 26.1798 29.5945 26.1798H32.0778V16.5C32.0636 16.2151 32.1041 15.93 32.197 15.6623C32.2898 15.3946 32.433 15.1498 32.6178 14.9427C32.8026 14.7357 33.0251 14.5709 33.2718 14.4582C33.5185 14.3455 33.7843 14.2874 34.0528 14.2874C34.3214 14.2874 34.5871 14.3455 34.8338 14.4582C35.0806 14.5709 35.3031 14.7357 35.4879 14.9427C35.6727 15.1498 35.8159 15.3946 35.9087 15.6623C36.0015 15.93 36.0421 16.2151 36.0278 16.5V20.2125H38.0667C38.7026 20.2794 39.2974 20.5771 39.7508 21.0556C40.2042 21.534 40.4884 22.1639 40.5556 22.8391V23.205H42.3112C43.4834 23.205 44.5001 24.5979 44.5001 25.8374V26.2034H46.5445C47.1773 26.2756 47.7675 26.5764 48.2166 27.0556C48.6656 27.5348 48.9461 28.1632 49.0112 28.8358V39.3714C49.0112 44.7248 44.5667 48.9686 39.5334 48.9686H38.7723Z" fill="#FFDAC6"/>
<path d="M37.4278 21.5582H36.6667C36.4015 21.5582 36.1471 21.4463 35.9596 21.247C35.772 21.0478 35.6667 20.7776 35.6667 20.4958C35.6667 20.214 35.772 19.9438 35.9596 19.7446C36.1471 19.5453 36.4015 19.4334 36.6667 19.4334H37.4556C38.2055 19.4334 38.9248 19.1169 39.4551 18.5534C39.9854 17.99 40.2833 17.2259 40.2833 16.4291V5.29733C40.2833 4.50054 39.9854 3.73639 39.4551 3.17298C38.9248 2.60957 38.2055 2.29305 37.4556 2.29305H4.82778C4.0778 2.29305 3.35855 2.60957 2.82824 3.17298C2.29793 3.73639 2 4.50054 2 5.29733V16.4173C2 17.2141 2.29793 17.9782 2.82824 18.5416C3.35855 19.1051 4.0778 19.4216 4.82778 19.4216H31.1611C31.4263 19.4216 31.6807 19.5335 31.8682 19.7327C32.0558 19.932 32.1611 20.2022 32.1611 20.484C32.1611 20.7658 32.0558 21.036 31.8682 21.2352C31.6807 21.4345 31.4263 21.5464 31.1611 21.5464H4.82778C3.54782 21.5448 2.32071 21.004 1.41565 20.0424C0.510582 19.0808 0.00147037 17.7771 0 16.4173L0 5.29733C0.00147037 3.93748 0.510582 2.63378 1.41565 1.67222C2.32071 0.710664 3.54782 0.169775 4.82778 0.168213H37.4278C38.7077 0.169775 39.9348 0.710664 40.8399 1.67222C41.745 2.63378 42.2541 3.93748 42.2556 5.29733V16.4173C42.2563 17.0916 42.132 17.7595 41.8898 18.3828C41.6475 19.0061 41.2921 19.5726 40.8438 20.05C40.3955 20.5274 39.8631 20.9063 39.277 21.1651C38.6909 21.4238 38.0625 21.5574 37.4278 21.5582Z" fill="#576065"/>
<path d="M39.5222 50.031H38.7722C37.1638 50.0531 35.5674 49.7333 34.0769 49.0904C32.5864 48.4476 31.232 47.4946 30.0933 46.2875C28.9545 45.0804 28.0544 43.6436 27.4459 42.0616C26.8375 40.4796 26.5328 38.7843 26.55 37.0754V28.8121C26.55 27.0414 27.7944 25.1173 29.5778 25.1173H31.0611V16.4999C31.0438 16.0733 31.1079 15.6475 31.2495 15.2479C31.3912 14.8484 31.6076 14.4834 31.8855 14.1751C32.1635 13.8667 32.4973 13.6213 32.8669 13.4537C33.2365 13.2861 33.6342 13.1996 34.0361 13.1996C34.438 13.1996 34.8357 13.2861 35.2053 13.4537C35.5749 13.6213 35.9087 13.8667 36.1867 14.1751C36.4647 14.4834 36.681 14.8484 36.8227 15.2479C36.9644 15.6475 37.0285 16.0733 37.0111 16.4999V19.15H38.05C38.8411 19.212 39.5946 19.5339 40.2058 20.0711C40.817 20.6084 41.2557 21.3344 41.4611 22.1484H42.3C43.8833 22.1484 45.1222 23.6181 45.4222 25.1468H46.5333C47.4311 25.2191 48.2747 25.6311 48.9108 26.308C49.547 26.9849 49.9334 27.8818 50 28.8357V39.3714C50 45.1675 45.2 50.031 39.5222 50.031ZM29.6 27.2657C29.1 27.2657 28.5722 28.0743 28.5722 28.8357V37.099C28.5611 38.524 28.8175 39.9371 29.3265 41.2555C29.8355 42.574 30.5868 43.7714 31.5366 44.7777C32.4863 45.784 33.6154 46.579 34.8578 47.1161C36.1002 47.6533 37.431 47.9219 38.7722 47.9061H39.5222C44.1167 47.9061 48 43.9988 48 39.3714V28.8357C47.9365 28.4459 47.7617 28.0862 47.4994 27.8054C47.237 27.5245 46.8998 27.3362 46.5333 27.2657H44.4889C44.2237 27.2657 43.9693 27.1538 43.7818 26.9546C43.5942 26.7553 43.4889 26.4851 43.4889 26.2033V25.8374C43.4889 25.1173 42.8444 24.2674 42.3 24.2674H40.5556C40.2903 24.2674 40.036 24.1554 39.8485 23.9562C39.6609 23.7569 39.5556 23.4867 39.5556 23.2049V22.839C39.4913 22.4475 39.3149 22.0866 39.0504 21.8056C38.786 21.5246 38.4463 21.3372 38.0778 21.269H36.0278C35.7626 21.269 35.5082 21.157 35.3207 20.9578C35.1331 20.7586 35.0278 20.4883 35.0278 20.2066V16.4999C35.046 16.3525 35.0343 16.2027 34.9936 16.0605C34.953 15.9182 34.8842 15.7868 34.7919 15.6751C34.6996 15.5634 34.5859 15.4739 34.4585 15.4125C34.331 15.3512 34.1927 15.3195 34.0528 15.3195C33.9129 15.3195 33.7745 15.3512 33.6471 15.4125C33.5196 15.4739 33.406 15.5634 33.3137 15.6751C33.2214 15.7868 33.1526 15.9182 33.1119 16.0605C33.0712 16.2027 33.0596 16.3525 33.0778 16.4999V26.2033C33.0778 26.4851 32.9724 26.7553 32.7849 26.9546C32.5974 27.1538 32.343 27.2657 32.0778 27.2657H29.6Z" fill="#576065"/>
<path d="M32.0834 35.6529C31.8182 35.6529 31.5638 35.541 31.3763 35.3418C31.1887 35.1425 31.0834 34.8723 31.0834 34.5905V25.6013C31.0834 25.3195 31.1887 25.0493 31.3763 24.8501C31.5638 24.6508 31.8182 24.5389 32.0834 24.5389C32.3486 24.5389 32.6029 24.6508 32.7905 24.8501C32.978 25.0493 33.0834 25.3195 33.0834 25.6013V34.5905C33.0834 34.8723 32.978 35.1425 32.7905 35.3418C32.6029 35.541 32.3486 35.6529 32.0834 35.6529Z" fill="#576065"/>
<path d="M36.0278 26.6637C35.7626 26.6637 35.5083 26.5518 35.3207 26.3525C35.1332 26.1533 35.0278 25.8831 35.0278 25.6013V19.6105C35.0278 19.4709 35.0537 19.3328 35.104 19.2039C35.1542 19.075 35.2279 18.9579 35.3207 18.8592C35.4136 18.7606 35.5238 18.6823 35.6451 18.6289C35.7665 18.5755 35.8965 18.548 36.0278 18.548C36.1592 18.548 36.2892 18.5755 36.4105 18.6289C36.5318 18.6823 36.6421 18.7606 36.7349 18.8592C36.8278 18.9579 36.9015 19.075 36.9517 19.2039C37.002 19.3328 37.0278 19.4709 37.0278 19.6105V25.6013C37.0278 25.8831 36.9225 26.1533 36.7349 26.3525C36.5474 26.5518 36.293 26.6637 36.0278 26.6637Z" fill="#576065"/>
<path d="M40.5555 29.6621C40.2903 29.6621 40.036 29.5501 39.8484 29.3509C39.6609 29.1517 39.5555 28.8814 39.5555 28.5997V22.6088C39.5555 22.327 39.6609 22.0568 39.8484 21.8576C40.036 21.6583 40.2903 21.5464 40.5555 21.5464C40.8208 21.5464 41.0751 21.6583 41.2626 21.8576C41.4502 22.0568 41.5555 22.327 41.5555 22.6088V28.5997C41.5555 28.8814 41.4502 29.1517 41.2626 29.3509C41.0751 29.5501 40.8208 29.6621 40.5555 29.6621Z" fill="#576065"/>
<path d="M44.4889 32.6546C44.2237 32.6546 43.9693 32.5426 43.7818 32.3434C43.5942 32.1441 43.4889 31.8739 43.4889 31.5921V25.6013C43.4889 25.4618 43.5148 25.3236 43.565 25.1947C43.6153 25.0658 43.6889 24.9487 43.7818 24.8501C43.8746 24.7514 43.9849 24.6731 44.1062 24.6198C44.2275 24.5664 44.3576 24.5389 44.4889 24.5389C44.6202 24.5389 44.7502 24.5664 44.8716 24.6198C44.9929 24.6731 45.1031 24.7514 45.196 24.8501C45.2889 24.9487 45.3625 25.0658 45.4128 25.1947C45.463 25.3236 45.4889 25.4618 45.4889 25.6013V31.5921C45.4889 31.8739 45.3835 32.1441 45.196 32.3434C45.0085 32.5426 44.7541 32.6546 44.4889 32.6546Z" fill="#576065"/>
</g>
<defs>
<clipPath id="clip0_54_146">
<rect width="50" height="50" fill="white"/>
</clipPath>
</defs>
</svg>
