<svg width="50" height="50" viewBox="0 0 50 50" fill="none" xmlns="http://www.w3.org/2000/svg">
<g clip-path="url(#clip0_43_237)">
<path d="M7.14665 3.44847C8.8892 2.51488 16.8385 0.431199 18.3687 0.000244141C18.3687 0.000244141 17.6036 8.47695 24.49 12.0691C31.3762 8.47685 30.6111 0.000244141 30.6111 0.000244141C32.1413 0.431296 40.0907 2.51488 41.8331 3.44847C43.5756 4.38205 48.2604 10.8838 48.9745 15.5173C48.9745 15.5173 45.9139 18.9656 40.8129 18.9656L38.7725 13.7931C38.7725 13.7931 34.6918 20.7974 34.6918 27.5861C34.6918 27.5861 38.7725 40.9843 38.7725 48.2756C38.7725 48.2756 29.8886 49.9998 24.4898 49.9998C19.091 49.9998 10.2071 48.2756 10.2071 48.2756C10.2071 40.9843 14.2879 27.5861 14.2879 27.5861C14.2879 20.7974 10.2071 13.7931 10.2071 13.7931L8.16678 18.9656C3.0658 18.9656 0.00518799 15.5173 0.00518799 15.5173C0.719403 10.8838 5.4041 4.38205 7.14665 3.44847Z" fill="#F9EBB0"/>
<path d="M30.6111 0.000244141C28.9103 0.000244141 26.6578 0.862348 24.4898 0.862348C22.3219 0.862348 20.0693 0.000244141 18.3686 0.000244141C18.3686 0.000244141 17.6034 8.47695 24.4898 12.0691C31.3762 8.47685 30.6111 0.000244141 30.6111 0.000244141Z" fill="#A09065"/>
<path d="M13.463 1.35693C13.3364 4.39831 14.3423 7.39654 16.341 9.92934L17.349 11.2069L20.0668 7.76118C18.0038 4.06726 18.3691 0 18.3691 0C17.6702 0.196581 15.635 0.738765 13.463 1.35693Z" fill="#C6B683"/>
<path d="M35.5169 1.35693C35.6434 4.39831 34.6375 7.39654 32.6389 9.92934L31.6309 11.2069L28.913 7.76118C30.976 4.06726 30.6107 0 30.6107 0C31.3096 0.196581 33.3449 0.738765 35.5169 1.35693Z" fill="#C6B683"/>
<path d="M45.914 23.2759C45.3498 23.2759 44.8937 22.8905 44.8937 22.4138V17.7388C44.8937 17.2621 45.3498 16.8767 45.914 16.8767C46.4782 16.8767 46.9342 17.2621 46.9342 17.7388V22.4138C46.9341 22.8906 46.4782 23.2759 45.914 23.2759Z" fill="#E6E7E8"/>
<path d="M48.9746 32.7587H42.8534C42.2892 32.7587 41.8331 32.3733 41.8331 31.8966V25.8622C41.8331 25.675 41.9046 25.4941 42.0372 25.3449L45.0978 21.8967C45.4824 21.4622 46.3455 21.4622 46.7301 21.8967L49.7907 25.3449C49.9234 25.494 49.9948 25.675 49.9948 25.8622V31.8966C49.9947 32.3733 49.5387 32.7587 48.9746 32.7587Z" fill="#F0C419"/>
</g>
<defs>
<clipPath id="clip0_43_237">
<rect width="50" height="50" fill="white"/>
</clipPath>
</defs>
</svg>
