<svg width="50" height="50" viewBox="0 0 50 50" fill="none" xmlns="http://www.w3.org/2000/svg">
<g clip-path="url(#clip0_40_85)">
<path d="M48.1481 0H1.85185C0.829051 0 0 0.699512 0 1.5625V17.1875C0 18.0505 0.829051 18.75 1.85185 18.75H48.1481C49.1708 18.75 50 18.0505 50 17.1875V1.5625C50 0.699512 49.1708 0 48.1481 0ZM33.3333 12.5H16.6667C16.1553 12.5 15.7407 12.1502 15.7407 11.7188V6.25C15.7407 5.81855 16.1553 5.46875 16.6667 5.46875H33.3333C33.8447 5.46875 34.2593 5.81855 34.2593 6.25V11.7188C34.2593 12.1502 33.8447 12.5 33.3333 12.5Z" fill="#B1C3D0"/>
<path d="M48.1482 18.75H1.85187V45.3125H48.1482V18.75Z" fill="#3F556B"/>
<path d="M40.7408 10.1562C39.8788 10.1562 39.1608 9.65752 38.9543 8.98438C38.9159 9.10996 38.8889 9.23926 38.8889 9.375C38.8889 10.2387 39.7181 10.9375 40.7408 10.9375C41.7635 10.9375 42.5926 10.2387 42.5926 9.375C42.5926 9.23926 42.5657 9.10996 42.5272 8.98438C42.3207 9.65752 41.6027 10.1562 40.7408 10.1562Z" fill="#8EADBE"/>
<path d="M42.5926 8.59375C42.5926 9.45742 41.7635 10.1562 40.7408 10.1562C39.7181 10.1562 38.8889 9.45742 38.8889 8.59375C38.8889 7.73018 39.7181 7.03125 40.7408 7.03125C41.7635 7.03125 42.5926 7.73018 42.5926 8.59375Z" fill="#E2E4E6"/>
<path d="M9.25926 10.1562C8.39734 10.1562 7.67928 9.65752 7.4728 8.98438C7.43438 9.10996 7.40741 9.23926 7.40741 9.375C7.40741 10.2387 8.23658 10.9375 9.25926 10.9375C10.2819 10.9375 11.1111 10.2387 11.1111 9.375C11.1111 9.23926 11.0841 9.10996 11.0457 8.98438C10.8392 9.65752 10.1212 10.1562 9.25926 10.1562Z" fill="#8EADBE"/>
<path d="M11.1111 8.59375C11.1111 9.45742 10.2819 10.1562 9.25926 10.1562C8.23658 10.1562 7.40741 9.45742 7.40741 8.59375C7.40741 7.73018 8.23658 7.03125 9.25926 7.03125C10.2819 7.03125 11.1111 7.73018 11.1111 8.59375Z" fill="#E2E4E6"/>
<path d="M33.3333 12.5H16.6666C16.1553 12.5 15.7407 12.1502 15.7407 11.7188V7.03125H34.2592V11.7188C34.2592 12.1502 33.8447 12.5 33.3333 12.5Z" fill="#3CB44A"/>
<path d="M34.2592 7.03125H15.7407V6.25C15.7407 5.81855 16.1553 5.46875 16.6666 5.46875H33.3333C33.8447 5.46875 34.2592 5.81855 34.2592 6.25V7.03125Z" fill="#0E9247"/>
<path d="M49.7685 50H0.231481C0.103588 50 0 49.9126 0 49.8047V45.5078C0 45.3999 0.103588 45.3125 0.231481 45.3125H49.7685C49.8964 45.3125 50 45.3999 50 45.5078V49.8047C50 49.9126 49.8964 50 49.7685 50Z" fill="#B1C3D0"/>
<path d="M16.6667 31.25V43.75C16.6667 44.613 17.4957 45.3125 18.5185 45.3125H31.4815C32.5043 45.3125 33.3334 44.613 33.3334 43.75V41.4062H35.1852C37.7379 41.4062 39.8148 39.6537 39.8148 37.5C39.8148 35.3463 37.7379 33.5938 35.1852 33.5938H33.3334V31.25H16.6667ZM33.3334 35.1562H35.1852C36.717 35.1562 37.963 36.2076 37.963 37.5C37.963 38.7924 36.717 39.8438 35.1852 39.8438H33.3334V35.1562Z" fill="#E2E4E6"/>
<path d="M22.2223 28.9062C21.7109 28.9062 21.2963 28.5564 21.2963 28.125V25.7812H23.1482V28.125C23.1482 28.5564 22.7336 28.9062 22.2223 28.9062Z" fill="#8EADBE"/>
<path d="M27.7778 28.9062C27.2665 28.9062 26.8519 28.5564 26.8519 28.125V25.7812H28.7037V28.125C28.7037 28.5564 28.2891 28.9062 27.7778 28.9062Z" fill="#8EADBE"/>
<path d="M44.9074 21.875H37.0371C34.9916 21.875 33.3334 20.4759 33.3334 18.75H16.6667V25C16.6667 25.4314 17.0813 25.7812 17.5926 25.7812H32.4074C32.9188 25.7812 33.3334 25.4314 33.3334 25C33.3334 24.5686 33.7479 24.2188 34.2593 24.2188H44.9074C45.6744 24.2188 46.2963 23.694 46.2963 23.0469C46.2963 22.3997 45.6744 21.875 44.9074 21.875Z" fill="#566E7F"/>
<path d="M48.1482 3.125V15.625C48.1482 16.488 47.3191 17.1875 46.2963 17.1875H3.70372C2.68092 17.1875 1.85187 17.887 1.85187 18.75H36.1111H37.963H48.1482C49.171 18.75 50 18.0505 50 17.1875V1.5625C48.9772 1.5625 48.1482 2.26201 48.1482 3.125Z" fill="#8EADBE"/>
<path d="M48.1482 48.4375H3.70372C2.68092 48.4375 1.85187 49.137 1.85187 50H37.0371H38.8889H48.1482C49.171 50 50 49.3005 50 48.4375V46.875C48.9772 46.875 48.1482 47.5745 48.1482 48.4375Z" fill="#8EADBE"/>
<path d="M34.9786 33.5938H34.2593C33.7479 33.5938 33.3334 33.2439 33.3334 32.8125V31.25H32.4074C30.3619 31.25 28.7037 32.6491 28.7037 34.375V42.9688C28.7037 43.4002 28.2891 43.75 27.7778 43.75H16.6667C16.6667 44.613 17.4957 45.3125 18.5185 45.3125H31.4815C32.5043 45.3125 33.3334 44.613 33.3334 43.75V42.1875C33.3334 41.7561 33.7479 41.4062 34.2593 41.4062H35.1852C37.8905 41.4062 40.0617 39.4378 39.7921 37.1094C39.5573 35.0802 37.395 33.5938 34.9786 33.5938ZM35.0756 39.8438H34.2593C33.7479 39.8438 33.3334 39.4939 33.3334 39.0625V35.9375C33.3334 35.5061 33.7479 35.1562 34.2593 35.1562H35.1852C36.8981 35.1562 38.2536 36.4708 37.9092 37.9671C37.653 39.0798 36.419 39.8438 35.0756 39.8438Z" fill="#D0D7DA"/>
</g>
<defs>
<clipPath id="clip0_40_85">
<rect width="50" height="50" fill="white"/>
</clipPath>
</defs>
</svg>
