<svg width="78" height="50" viewBox="0 0 78 50" fill="none" xmlns="http://www.w3.org/2000/svg">
<g clip-path="url(#clip0_47_89)">
<path d="M77.9651 33.5705L73.8354 1.65232C73.7664 1.1241 73.5331 0.650619 73.1832 0.336983C72.8333 0.0233465 72.3977 -0.105441 71.9716 -0.0211608L23.824 9.60971C22.9374 9.78736 22.3339 10.823 22.4768 11.9268L26.6066 43.8419C26.6756 44.3716 26.91 44.8451 27.26 45.1586C27.5384 45.4101 27.8718 45.5432 28.2121 45.5432C28.2977 45.5432 28.3835 45.5343 28.4703 45.5165L76.618 35.8872C77.5057 35.7099 78.1079 34.6743 77.9651 33.5705Z" fill="#CCD1D9"/>
<path d="M29.8161 43.1998L25.6862 11.2846C25.5433 10.1809 24.7091 9.43219 23.8237 9.60965L1.35601 14.1017C0.929907 14.1875 0.549048 14.4805 0.296766 14.9125C0.0444852 15.3475 -0.0591085 15.889 0.00990323 16.4187L4.13979 48.3369C4.26837 49.328 4.95864 50.0354 5.7429 50.0354C5.82852 50.0354 5.91551 50.0265 6.00234 50.0087L28.4702 45.5167C29.3556 45.3392 29.959 44.3036 29.8161 43.1998Z" fill="#967ADC"/>
<path d="M74.7502 8.83167H25.9819V41.1574H74.7502V8.83167Z" fill="white"/>
<path d="M74.7493 43.1792H25.9814C25.0841 43.1792 24.3558 42.2737 24.3558 41.158V8.83145C24.3558 7.71573 25.0841 6.81042 25.9814 6.81042H74.7493C75.6467 6.81042 76.3751 7.71592 76.3751 8.83145V41.158C76.3751 42.2735 75.6467 43.1792 74.7493 43.1792Z" fill="#E6E9ED"/>
<path d="M25.9813 8.83167H3.22571V41.1574H25.9813V8.83167Z" fill="white"/>
<path d="M25.9815 43.1792H3.22573C2.3272 43.1792 1.59991 42.2737 1.59991 41.158V8.83145C1.59991 7.71573 2.32705 6.81042 3.22573 6.81042H25.9815C26.8789 6.81042 27.6073 7.71592 27.6073 8.83145V41.158C27.6073 42.2735 26.8789 43.1792 25.9815 43.1792Z" fill="#AC92EB"/>
<path d="M20.8675 15.8683C20.3998 14.9155 19.4001 14.6136 18.6335 15.1966C18.6276 15.1996 18.1241 15.4924 17.2779 15.3681C16.9947 15.0693 16.6293 14.8888 16.2283 14.8888C15.3308 14.8888 14.6037 15.7943 14.6037 16.91V29.0341C14.6037 30.1496 15.3308 31.0551 16.2283 31.0551C17.1268 31.0551 17.854 30.1496 17.854 29.0341V19.4373C19.2906 19.3869 20.1926 18.7477 20.3259 18.6471C21.0923 18.0642 21.3352 16.8212 20.8675 15.8683Z" fill="#CCD1D9"/>
<path d="M64.99 14.8858C65.8875 14.8858 66.6159 13.9803 66.6159 12.8648C66.6159 11.7492 65.8875 10.8438 64.99 10.8438C64.0927 10.8438 63.3644 11.7492 63.3644 12.8648C63.3644 13.9805 64.0927 14.8858 64.99 14.8858Z" fill="#CCD1D9"/>
<path d="M64.997 18.9341C64.0997 18.9341 63.3713 19.8396 63.3713 20.9551C63.3713 22.0706 64.0997 22.9761 64.997 22.9761C65.8945 22.9761 66.6228 22.0706 66.6228 20.9551C66.6228 19.8396 65.8945 18.9341 64.997 18.9341Z" fill="#CCD1D9"/>
<path d="M64.997 27.0188C64.0997 27.0188 63.3713 27.9215 63.3713 29.037C63.3713 30.1554 64.0997 31.058 64.997 31.058C65.8945 31.058 66.6228 30.1554 66.6228 29.037C66.6228 27.9215 65.8945 27.0188 64.997 27.0188Z" fill="#CCD1D9"/>
<path d="M64.997 35.1002C64.0997 35.1002 63.3713 36.0057 63.3713 37.1214C63.3713 38.2372 64.0997 39.1426 64.997 39.1426C65.8945 39.1426 66.6228 38.2372 66.6228 37.1214C66.6228 36.0057 65.8945 35.1002 64.997 35.1002Z" fill="#CCD1D9"/>
<path d="M12.9779 22.9705C10.2893 22.9705 8.10181 25.693 8.10181 29.0341C8.10181 32.3778 10.2893 35.0974 12.9779 35.0974C15.6664 35.0974 17.8539 32.378 17.8539 29.0341C17.8539 25.693 15.6664 22.9705 12.9779 22.9705Z" fill="#E6E9ED"/>
<path d="M58.4916 18.9312H32.4856C31.5882 18.9312 30.861 18.0286 30.861 16.9131C30.861 15.7945 31.5882 14.8918 32.4856 14.8918H58.4916C59.3891 14.8918 60.1174 15.7945 60.1174 16.9131C60.1174 18.0286 59.3891 18.9312 58.4916 18.9312Z" fill="#434A54"/>
<path d="M58.4916 27.0159H32.4856C31.5882 27.0159 30.861 26.1104 30.861 24.9947C30.861 23.879 31.5882 22.9735 32.4856 22.9735H58.4916C59.3891 22.9735 60.1174 23.879 60.1174 24.9947C60.1174 26.1104 59.3891 27.0159 58.4916 27.0159Z" fill="#434A54"/>
<path d="M45.488 35.0973H32.4856C31.5882 35.0973 30.861 34.1948 30.861 33.0793C30.861 31.9608 31.5882 31.0581 32.4856 31.0581H45.488C46.3855 31.0581 47.1138 31.9608 47.1138 33.0793C47.1138 34.1948 46.3855 35.0973 45.488 35.0973Z" fill="#434A54"/>
<path d="M71.4954 33.0763C70.5979 33.0763 69.8696 32.1708 69.8696 31.0551V18.9312C69.8696 17.8155 70.5979 16.91 71.4954 16.91C72.3928 16.91 73.1212 17.8155 73.1212 18.9312V31.0551C73.1212 32.1708 72.3927 33.0763 71.4954 33.0763Z" fill="#AC92EB"/>
</g>
<defs>
<clipPath id="clip0_47_89">
<rect width="78" height="50" fill="white" transform="translate(-0.00952148)"/>
</clipPath>
</defs>
</svg>
