<svg width="50" height="50" viewBox="0 0 50 50" fill="none" xmlns="http://www.w3.org/2000/svg">
<g clip-path="url(#clip0_38_65)">
<path d="M50 50V47.2222C50 45.0121 49.122 42.8925 47.5592 41.3297C45.9964 39.7669 43.8768 38.8889 41.6667 38.8889H19.4444C17.2343 38.8889 15.1147 39.7669 13.5519 41.3297C11.9891 42.8925 11.1111 45.0121 11.1111 47.2222V50H50Z" fill="#E1E8ED"/>
<path d="M30.5556 50L37.5 38.8889H23.6111L30.5556 50Z" fill="#226699"/>
<path d="M24.5 38.9417C24.5 41.6667 36.6111 41.6667 36.6111 38.9417V33.7347H24.5V38.9417Z" fill="#D4AB88"/>
<path d="M24.4889 36.0736C26.1778 37.9819 28.2722 38.4986 30.55 38.4986C32.8264 38.4986 34.9194 37.9805 36.6097 36.0736V31.225H24.4875L24.4889 36.0736Z" fill="#CC9B7A"/>
<path d="M32.1625 9.69999C29.4889 8.83471 34.1681 4.5611 32.5958 6.60555C28.507 6.68471 21.9681 10.9917 18.982 14.8972C15.7639 19.1055 16.4486 21.7486 16.9417 25.3778C17.5014 29.4889 19.8125 30.8042 21.6597 31.3542C24.3181 34.8667 27.1445 34.7167 31.8903 34.7167C41.157 34.7167 44.7236 27.893 44.2292 19.2917C43.8583 15.1514 38.8847 11.875 32.1625 9.69999Z" fill="#963B22"/>
<path d="M41.0375 18.4347C40.1403 17.1931 38.9931 16.1931 36.4764 15.8403C37.4208 16.2722 38.8722 18.2389 38.9903 19.0639C39.1083 19.8903 39.1042 21.4944 38.4542 20.5903C35.6083 16.6306 31.6792 17.2556 28.4486 15.2347C26.1931 13.8236 25.5056 12.2611 25.5056 12.2611C25.5056 12.2611 25.2306 14.3444 21.8097 16.4681C20.8181 17.0833 19.6347 18.4542 18.9792 20.4792C18.5069 21.9347 18.6542 23.2319 18.6542 25.4486C18.6542 31.9208 23.9889 37.3625 30.5681 37.3625C37.1472 37.3625 42.4819 31.8722 42.4819 25.4486C42.4805 21.4236 42.0597 19.85 41.0375 18.4347Z" fill="#D4AB88"/>
<path d="M31.8903 28.7583H29.2431C29.0674 28.7583 28.8989 28.6885 28.7746 28.5643C28.6504 28.4401 28.5806 28.2716 28.5806 28.0958C28.5806 27.9201 28.6504 27.7516 28.7746 27.6274C28.8989 27.5031 29.0674 27.4333 29.2431 27.4333H31.8903C32.066 27.4333 32.2345 27.5031 32.3587 27.6274C32.483 27.7516 32.5528 27.9201 32.5528 28.0958C32.5528 28.2716 32.483 28.4401 32.3587 28.5643C32.2345 28.6885 32.066 28.7583 31.8903 28.7583Z" fill="#C1694F"/>
<path d="M25.2708 24.125C24.9198 24.125 24.5831 23.9856 24.3349 23.7373C24.0867 23.4891 23.9472 23.1524 23.9472 22.8014V21.4778C23.9472 21.1267 24.0867 20.7901 24.3349 20.5419C24.5831 20.2936 24.9198 20.1542 25.2708 20.1542C25.6219 20.1542 25.9586 20.2936 26.2068 20.5419C26.455 20.7901 26.5945 21.1267 26.5945 21.4778V22.8014C26.5946 22.9753 26.5605 23.1475 26.4941 23.3081C26.4276 23.4688 26.3301 23.6148 26.2072 23.7377C26.0842 23.8607 25.9383 23.9582 25.7776 24.0246C25.6169 24.0911 25.4447 24.1252 25.2708 24.125ZM35.8625 24.125C35.5115 24.125 35.1748 23.9856 34.9266 23.7373C34.6784 23.4891 34.5389 23.1524 34.5389 22.8014V21.4778C34.5389 21.1267 34.6784 20.7901 34.9266 20.5419C35.1748 20.2936 35.5115 20.1542 35.8625 20.1542C36.2136 20.1542 36.5502 20.2936 36.7984 20.5419C37.0467 20.7901 37.1861 21.1267 37.1861 21.4778V22.8014C37.1861 23.1524 37.0467 23.4891 36.7984 23.7373C36.5502 23.9856 36.2136 24.125 35.8625 24.125Z" fill="#662113"/>
<path d="M30.7417 34.2861C26.9167 34.2861 25.7417 33.3069 25.5458 33.1083C25.4592 33.026 25.3896 32.9275 25.3411 32.8183C25.2925 32.7092 25.2659 32.5916 25.2628 32.4721C25.2566 32.2309 25.3464 31.9971 25.5125 31.8222C25.6786 31.6472 25.9075 31.5454 26.1487 31.5391C26.3899 31.5329 26.6237 31.6227 26.7986 31.7888C26.8708 31.8402 27.8 32.4652 30.7417 32.4652C33.7972 32.4652 34.6806 31.7916 34.6889 31.7847C34.7728 31.7015 34.8725 31.6359 34.9822 31.5918C35.0918 31.5477 35.2092 31.526 35.3273 31.528C35.4455 31.5299 35.562 31.5554 35.6702 31.6031C35.7783 31.6508 35.8758 31.7196 35.957 31.8055C36.1252 31.9818 36.2175 32.2172 36.2138 32.4609C36.2102 32.7046 36.111 32.9371 35.9375 33.1083C35.7403 33.3069 34.5667 34.2861 30.7417 34.2861Z" fill="#C1694F"/>
<path d="M43.3028 16.6667C43.3028 16.6667 39.6611 18.0556 30.5555 18.0556C21.45 18.0556 17.8083 16.6667 17.8083 16.6667V8.33337H43.3014L43.3028 16.6667Z" fill="#CCD6DD"/>
<path d="M22.2222 15.625C22.2222 15.8092 22.1491 15.9858 22.0188 16.1161C21.8886 16.2463 21.712 16.3195 21.5278 16.3195C21.3436 16.3195 21.167 16.2463 21.0367 16.1161C20.9065 15.9858 20.8333 15.8092 20.8333 15.625V11.4584C20.8333 11.2742 20.9065 11.0975 21.0367 10.9673C21.167 10.8371 21.3436 10.7639 21.5278 10.7639C21.712 10.7639 21.8886 10.8371 22.0188 10.9673C22.1491 11.0975 22.2222 11.2742 22.2222 11.4584V15.625ZM40.2778 15.625C40.2778 15.8092 40.2046 15.9858 40.0744 16.1161C39.9442 16.2463 39.7675 16.3195 39.5833 16.3195C39.3992 16.3195 39.2225 16.2463 39.0923 16.1161C38.9621 15.9858 38.8889 15.8092 38.8889 15.625V11.4584C38.8889 11.2742 38.9621 11.0975 39.0923 10.9673C39.2225 10.8371 39.3992 10.7639 39.5833 10.7639C39.7675 10.7639 39.9442 10.8371 40.0744 10.9673C40.2046 11.0975 40.2778 11.2742 40.2778 11.4584V15.625ZM26.3889 16.1806C26.3889 16.3648 26.3157 16.5414 26.1855 16.6716C26.0553 16.8019 25.8786 16.875 25.6945 16.875C25.5103 16.875 25.3336 16.8019 25.2034 16.6716C25.0732 16.5414 25 16.3648 25 16.1806V12.0139C25 11.8297 25.0732 11.6531 25.2034 11.5229C25.3336 11.3926 25.5103 11.3195 25.6945 11.3195C25.8786 11.3195 26.0553 11.3926 26.1855 11.5229C26.3157 11.6531 26.3889 11.8297 26.3889 12.0139V16.1806ZM31.25 16.3195C31.25 16.5036 31.1768 16.6803 31.0466 16.8105C30.9164 16.9408 30.7397 17.0139 30.5556 17.0139C30.3714 17.0139 30.1948 16.9408 30.0645 16.8105C29.9343 16.6803 29.8611 16.5036 29.8611 16.3195V12.1528C29.8611 11.9686 29.9343 11.792 30.0645 11.6618C30.1948 11.5315 30.3714 11.4584 30.5556 11.4584C30.7397 11.4584 30.9164 11.5315 31.0466 11.6618C31.1768 11.792 31.25 11.9686 31.25 12.1528V16.3195ZM36.1111 16.1806C36.1111 16.3648 36.038 16.5414 35.9077 16.6716C35.7775 16.8019 35.6009 16.875 35.4167 16.875C35.2325 16.875 35.0559 16.8019 34.9256 16.6716C34.7954 16.5414 34.7222 16.3648 34.7222 16.1806V12.0139C34.7222 11.8297 34.7954 11.6531 34.9256 11.5229C35.0559 11.3926 35.2325 11.3195 35.4167 11.3195C35.6009 11.3195 35.7775 11.3926 35.9077 11.5229C36.038 11.6531 36.1111 11.8297 36.1111 12.0139V16.1806Z" fill="#99AAB5"/>
<path d="M39.2361 -1.37034e-06C37.6292 -1.37034e-06 36.1292 0.444443 34.8375 1.20694C33.5262 0.42839 32.0318 0.0116323 30.5068 -0.000811557C28.9818 -0.0132554 27.4808 0.37906 26.157 1.13611C24.8529 0.391174 23.3769 -0.000439795 21.875 -1.37034e-06C17.0806 -1.37034e-06 13.1945 3.88611 13.1945 8.68055C13.1945 13.475 28.8806 13.1944 30.4389 13.1944C32.0458 13.1944 47.9167 13.475 47.9167 8.68055C47.9167 3.88611 44.0292 -1.37034e-06 39.2361 -1.37034e-06Z" fill="#E1E8ED"/>
<path d="M13.8889 34.375C13.8889 39.1694 11.0903 41.6667 7.63889 41.6667C4.1875 41.6667 1.38889 39.1694 1.38889 34.375C1.38889 29.5805 4.1875 24.3055 7.63889 24.3055C11.0903 24.3055 13.8889 29.5805 13.8889 34.375Z" fill="#99AAB5"/>
<path d="M6.25 38.8889H9.02778V50H6.25V38.8889Z" fill="#99AAB5"/>
<path d="M13.8889 34.375C13.8889 39.1694 11.0903 41.6667 7.63889 41.6667C4.1875 41.6667 1.38889 39.1694 1.38889 34.375C1.38889 29.5805 4.1875 24.3055 7.63889 24.3055C11.0903 24.3055 13.8889 29.5805 13.8889 34.375Z" fill="#C1694F"/>
<path d="M6.25 38.8889H9.02778V50H6.25V38.8889Z" fill="#C1694F"/>
<path d="M20.6861 6.23474C20.7752 6.25412 20.8673 6.25573 20.957 6.23948C21.0467 6.22322 21.1324 6.18941 21.209 6.14C21.2856 6.09058 21.3518 6.02652 21.4036 5.9515C21.4555 5.87647 21.492 5.79196 21.5111 5.70279C21.5542 5.5014 21.975 3.7014 23.343 2.63057C24.3986 1.80418 25.7722 1.25974 26.1305 1.12501C25.5727 0.81309 24.9821 0.563887 24.3694 0.381958C23.7819 0.673625 23.1 1.05696 22.4875 1.53751C20.7708 2.88057 20.2417 4.99862 20.1528 5.40974C20.1148 5.5898 20.1495 5.77757 20.2495 5.93212C20.3494 6.08666 20.5063 6.19544 20.6861 6.23474ZM37.5708 2.64307C38.9403 3.71529 39.3611 5.51251 39.4028 5.7139C39.4414 5.89403 39.5501 6.05141 39.7048 6.15143C39.7814 6.20096 39.867 6.23491 39.9568 6.25135C40.0465 6.26778 40.1386 6.26639 40.2278 6.24724C40.317 6.22808 40.4015 6.19155 40.4766 6.13973C40.5516 6.0879 40.6158 6.0218 40.6653 5.94519C40.7148 5.86858 40.7488 5.78297 40.7652 5.69324C40.7816 5.60351 40.7802 5.51142 40.7611 5.42224C40.6722 5.01112 40.1458 2.89446 38.4264 1.54862C37.8585 1.11563 37.2496 0.739293 36.6083 0.425014C36.01 0.612839 35.4339 0.865252 34.8903 1.17779C35.3583 1.36112 36.5944 1.87779 37.5708 2.64307Z" fill="#CCD6DD"/>
</g>
<defs>
<clipPath id="clip0_38_65">
<rect width="50" height="50" fill="white"/>
</clipPath>
</defs>
</svg>
