<svg width="50" height="50" viewBox="0 0 50 50" fill="none" xmlns="http://www.w3.org/2000/svg">
<g clip-path="url(#clip0_40_168)">
<path d="M49.9721 46.5283H49.9832C49.9832 48.4474 48.575 50.0074 46.8426 50.0074H44.7023C43.9031 50.0074 43.1487 49.6236 42.629 48.9488C42.5899 48.8993 42.5563 48.8498 42.5172 48.7941H41.0028C40.2036 48.7941 39.4492 48.4103 38.9295 47.7355C38.4098 47.0607 38.1862 46.1693 38.3148 45.2902C38.5048 43.9531 39.533 42.9192 40.7569 42.7768L40.7513 40.412L34.9282 32.3272L23.6957 33.9553C23.6957 36.9144 23.6901 43.0864 23.6901 43.0864V45.315C23.6901 47.2341 22.2818 48.7941 20.5494 48.7941H19.8062C19.2306 49.5308 18.3812 50.0012 17.4312 50.0012H15.2964C14.4973 50.0012 13.7428 49.6112 13.2231 48.9427C12.7034 48.2679 12.4799 47.3764 12.6084 46.4974C12.7984 45.1602 13.8267 44.1264 15.0505 43.984V33.7077C12.6699 32.5253 10.8369 30.2843 9.97072 27.449C9.96513 27.4242 6.65683 15.6993 6.65683 15.6993C2.91265 15.3464 -0.0324097 11.8611 -0.0324097 7.62678C-0.0324097 7.00773 0.420246 6.50629 0.97908 6.50629H5.72917L8.85305 3.70196C8.89217 3.26862 8.99835 2.83528 9.18276 2.40813C9.76395 1.03383 10.9766 0.111432 12.3402 0.0123826C12.6531 -0.0123797 12.9549 0.148575 13.1393 0.433342C13.2455 0.594296 13.3405 0.767632 13.4243 0.947159C13.8937 0.724298 14.4023 0.600487 14.922 0.600487C15.2741 0.600487 15.5982 0.792394 15.7826 1.12049C16.5314 2.4329 16.5817 4.09816 15.9055 5.46628C15.8497 5.57771 15.7938 5.68295 15.7323 5.78818L21.5386 13.8174C21.5386 13.8174 43.4561 17.7174 43.5175 17.7298C43.9311 17.8103 44.3334 17.6184 44.5346 17.2469C46.6079 13.4273 47.1388 9.73777 47.1276 8.32632C47.122 7.72583 47.5467 7.23059 48.0888 7.19344C48.6253 7.16249 49.1003 7.60821 49.1506 8.20251C49.1785 8.52442 49.8323 16.0831 48.2788 20.5032C47.9714 21.376 47.8429 22.2551 47.8932 23.128C47.8988 23.2518 47.9044 33.5467 47.9044 33.5467L49.905 38.8025C49.9553 38.9387 49.9832 39.0873 49.9832 39.2358C49.9888 39.2358 49.9832 46.4726 49.9721 46.5283Z" fill="#663333"/>
<path d="M47.9714 46.5283H47.9603C47.9603 47.2093 47.4573 47.7664 46.8426 47.7664H44.7022C44.4955 47.7664 44.3055 47.6674 44.1714 47.4941C44.0931 47.3888 43.9702 47.1721 44.0149 46.8564C44.0652 46.4912 44.3837 46.2126 44.7525 46.2126L45.4846 46.2002C46.0379 46.1878 46.4793 45.6926 46.4793 45.0797V40.6597V40.6411C46.4738 40.412 46.4067 40.1768 46.2726 39.9787L40.796 32.0486C40.796 32.0424 40.7904 32.0424 40.7904 32.0362C39.6727 30.4576 37.8565 29.6404 36.0627 29.9005L19.4374 32.3148C18.9288 32.3891 18.5544 32.8719 18.5544 33.4291C18.5544 35.4348 18.5488 44.1697 18.5488 44.2997V46.5283C18.5488 47.2093 18.0459 47.7664 17.4311 47.7664H15.2964C15.0896 47.7664 14.894 47.6674 14.7655 47.4941C14.6873 47.3888 14.5643 47.1721 14.609 46.8564C14.6593 46.4912 14.9779 46.2126 15.3467 46.2126L16.0788 46.2002C16.632 46.1878 17.0735 45.6926 17.0735 45.0797V32.9462C17.0735 32.4572 16.7941 32.0424 16.4029 31.8876C14.2681 31.0457 12.6196 29.1452 11.8763 26.6752C11.8707 26.6628 11.8707 26.6504 11.8652 26.6442L8.37803 14.2693C8.24391 13.7988 7.85273 13.4831 7.41125 13.4831H7.27713C4.71208 13.4831 2.56616 11.4464 2.09674 8.75346H6.09799C6.3327 8.75346 6.55624 8.6668 6.73506 8.50584L10.2054 5.39198H11.4237C12.2396 5.44151 13.0052 4.89674 13.3014 4.04244C13.3293 3.96196 13.3461 3.92482 13.3461 3.92482C13.564 3.4791 13.9161 3.151 14.3296 2.97766C14.4246 3.45434 14.3631 3.96196 14.1508 4.40149C14.1061 4.48816 14.0614 4.56245 14.0167 4.63673C13.5361 5.36103 13.5584 6.35152 14.067 7.05725L20.2197 15.5693C20.3762 15.786 20.5997 15.9345 20.8512 15.9779C20.8512 15.9779 43.1543 19.946 43.1934 19.9522C44.434 20.1874 45.6523 19.5808 46.2893 18.4108C46.5632 17.9093 46.8091 17.4203 47.0326 16.9374C46.8985 17.9403 46.6973 18.8874 46.4123 19.6984C45.9987 20.8746 45.8255 22.0756 45.8926 23.2704C45.8982 23.3446 45.8982 33.7758 45.8982 33.7758C45.8982 33.9243 45.9261 34.0729 45.9764 34.2091L47.977 39.4649C47.9603 39.4649 47.9658 46.4726 47.9714 46.5283Z" fill="#B88D5B"/>
<path d="M44.4563 41.0373V43.984C43.2269 44.1326 42.2042 45.1603 42.0142 46.4974C42.0142 46.516 42.0087 46.5284 42.0087 46.5469H41.0083C40.8016 46.5469 40.6116 46.4479 40.4774 46.2746C40.3992 46.1693 40.2763 45.9526 40.321 45.6369C40.3713 45.2717 40.6898 44.9931 41.0586 44.9931L41.7907 44.9807C42.344 44.9683 42.7854 44.4731 42.7854 43.8602L42.7798 40.0159C42.7798 39.7621 42.7016 39.5206 42.5619 39.3225L37.4206 32.1848C38.108 32.3582 38.7395 32.7853 39.1921 33.4167L44.4563 41.0373ZM20.5774 34.4072L21.6727 34.2463C21.6727 37.3168 21.6671 43.0864 21.6671 43.0864V45.315C21.6671 45.9898 21.1809 46.5346 20.5718 46.5469V44.2936V40.4802C20.5774 38.3878 20.5774 35.9177 20.5774 34.4072Z" fill="#B88D5B"/>
<path d="M17.9844 26.9784C18.5097 27.1889 18.7835 27.8266 18.5991 28.4147C18.4538 28.8728 18.0626 29.1575 17.6435 29.1575C17.5317 29.1575 17.4144 29.139 17.3026 29.0894C15.9446 28.5509 14.894 27.3313 14.4134 25.7341L14.4078 25.7218C14.4078 25.7156 14.4023 25.7094 14.4023 25.7032L13.4746 22.4098C13.3069 21.8155 13.6031 21.1903 14.1396 21.0045C14.6761 20.8188 15.2405 21.1469 15.4082 21.7412L16.3358 25.0284C16.6208 25.9694 17.2188 26.6813 17.9844 26.9784Z" fill="#663333"/>
<path d="M11.9155 2.16675L11.9323 2.22246C11.7925 2.42056 11.664 2.63104 11.5522 2.8539C11.5075 2.94057 11.4684 3.03962 11.4293 3.14486H10.8928C11.1219 2.68676 11.4852 2.34008 11.9155 2.16675Z" fill="#B88D5B"/>
<path d="M8.63508 8.00439C9.18832 8.00439 9.63539 8.49964 9.63539 9.11251C9.63539 9.72537 9.18832 10.2206 8.63508 10.2206C8.08183 10.2206 7.63477 9.72537 7.63477 9.11251C7.63477 8.49964 8.08183 8.00439 8.63508 8.00439Z" fill="#663333"/>
</g>
<defs>
<clipPath id="clip0_40_168">
<rect width="50" height="50" fill="white"/>
</clipPath>
</defs>
</svg>
