<svg width="50" height="50" viewBox="0 0 50 50" fill="none" xmlns="http://www.w3.org/2000/svg">
<g clip-path="url(#clip0_53_115)">
<path d="M24.9818 0.290161C11.1713 0.290161 -0.0249024 11.4111 -0.0249023 25.1288C-0.0249023 38.8466 11.1713 49.9675 24.9818 49.9675C38.7924 49.9675 49.9886 38.8466 49.9886 25.1288C49.9886 11.4111 38.7924 0.290161 24.9818 0.290161ZM24.9818 34.6716C19.3577 34.6716 14.8001 30.1447 14.8001 24.5584C14.8001 18.972 19.3577 14.4451 24.9818 14.4451C30.606 14.4451 35.1636 18.972 35.1636 24.5584C35.1636 30.1447 30.6023 34.6716 24.9818 34.6716Z" fill="#DB9145"/>
<path d="M24.9818 0.290161C11.1713 0.290161 -0.0249024 11.4111 -0.0249023 25.1289C-0.0249023 28.2073 0.541992 31.1487 1.57135 33.8678C2.53731 32.7972 3.98811 31.2042 4.23053 31.0301C4.59976 30.7634 6.0804 29.0927 7.05381 32.1304C7.45661 32.9972 8.70228 36.8054 11.5591 33.5677C12.0626 33.1009 14.2481 31.5302 14.3824 35.7385C14.3824 38.4762 15.2551 41.6806 16.1987 42.0473C17.1423 42.4141 18.4178 42.7141 18.8206 39.5431C19.1227 38.6762 20.8383 35.2681 23.0238 40.0432C24.0644 42.8475 24.9073 47.2225 27.227 47.2225C29.5468 47.2225 32.068 38.4095 32.8065 36.9055C33.6121 35.6385 35.4619 33.8011 37.8824 36.5721C39.2624 37.9057 41.0078 39.443 41.1421 35.1014C41.2763 30.7597 41.4777 30.3929 41.5784 30.0595C41.6791 29.7261 43.2269 27.1886 45.8152 30.9931C46.4902 32.1229 47.5905 35.3162 48.9294 32.3008C49.6194 30.0262 49.996 27.6183 49.996 25.1214C49.9886 11.4111 38.7924 0.290161 24.9818 0.290161ZM24.9818 34.6716C19.3577 34.6716 14.8001 30.1447 14.8001 24.5584C14.8001 18.972 19.3577 14.4451 24.9818 14.4451C30.606 14.4451 35.1636 18.972 35.1636 24.5584C35.1636 30.1447 30.6023 34.6716 24.9818 34.6716Z" fill="#5B2B20"/>
<path d="M33.4442 10.6331C33.4442 10.7781 33.4729 10.9217 33.5287 11.0556C33.5846 11.1896 33.6664 11.3113 33.7697 11.4139C33.8729 11.5164 33.9954 11.5977 34.1302 11.6532C34.2651 11.7087 34.4097 11.7373 34.5556 11.7373C34.7016 11.7373 34.8461 11.7087 34.981 11.6532C35.1159 11.5977 35.2384 11.5164 35.3416 11.4139C35.4448 11.3113 35.5267 11.1896 35.5825 11.0556C35.6383 10.9217 35.6671 10.7781 35.667 10.6331C35.6671 10.4881 35.6383 10.3445 35.5825 10.2106C35.5267 10.0766 35.4448 9.95489 35.3416 9.85235C35.2384 9.74982 35.1159 9.66848 34.981 9.61299C34.8461 9.55749 34.7016 9.52893 34.5556 9.52893C34.4097 9.52893 34.2651 9.55749 34.1302 9.61299C33.9954 9.66848 33.8729 9.74982 33.7697 9.85235C33.6664 9.95489 33.5846 10.0766 33.5287 10.2106C33.4729 10.3445 33.4442 10.4881 33.4442 10.6331Z" fill="#EBA824"/>
<path d="M41.0601 13.293C41.0601 13.575 41.1728 13.8455 41.3736 14.0448C41.5743 14.2442 41.8466 14.3562 42.1304 14.3562C42.4143 14.3562 42.6866 14.2442 42.8873 14.0448C43.0881 13.8455 43.2008 13.575 43.2008 13.293C43.2008 13.0111 43.0881 12.7406 42.8873 12.5413C42.6866 12.3419 42.4143 12.2299 42.1304 12.2299C41.8466 12.2299 41.5743 12.3419 41.3736 12.5413C41.1728 12.7406 41.0601 13.0111 41.0601 13.293Z" fill="#EBA824"/>
<path d="M22.0206 5.51361C22.0206 6.04416 22.2328 6.55298 22.6105 6.92813C22.9882 7.30329 23.5005 7.51405 24.0346 7.51405C24.5687 7.51405 25.081 7.30329 25.4587 6.92813C25.8364 6.55298 26.0486 6.04416 26.0486 5.51361C26.0486 4.98307 25.8364 4.47425 25.4587 4.0991C25.081 3.72394 24.5687 3.51318 24.0346 3.51318C23.5005 3.51318 22.9882 3.72394 22.6105 4.0991C22.2328 4.47425 22.0206 4.98307 22.0206 5.51361Z" fill="#3D7C38"/>
<path d="M14.8523 11.9631C14.8523 12.3158 14.9934 12.6541 15.2445 12.9035C15.4955 13.1529 15.8361 13.293 16.1912 13.293C16.5463 13.293 16.8869 13.1529 17.138 12.9035C17.3891 12.6541 17.5301 12.3158 17.5301 11.9631C17.5301 11.6104 17.3891 11.2721 17.138 11.0227C16.8869 10.7733 16.5463 10.6332 16.1912 10.6332C15.8361 10.6332 15.4955 10.7733 15.2445 11.0227C14.9934 11.2721 14.8523 11.6104 14.8523 11.9631Z" fill="#FFFCF4"/>
<path d="M2.83569 23.536C2.83569 23.8619 2.90033 24.1847 3.0259 24.4858C3.15148 24.7869 3.33554 25.0605 3.56758 25.291C3.79961 25.5215 4.07508 25.7043 4.37825 25.8291C4.68142 25.9538 5.00635 26.018 5.3345 26.018C5.66265 26.018 5.98759 25.9538 6.29076 25.8291C6.59393 25.7043 6.86939 25.5215 7.10143 25.291C7.33346 25.0605 7.51752 24.7869 7.6431 24.4858C7.76868 24.1847 7.83331 23.8619 7.83331 23.536C7.83331 22.8777 7.57005 22.2464 7.10143 21.7809C6.63281 21.3155 5.99723 21.054 5.3345 21.054C4.67178 21.054 4.0362 21.3155 3.56758 21.7809C3.09896 22.2464 2.83569 22.8777 2.83569 23.536Z" fill="#FDFDEC"/>
<path d="M43.2977 23.536C43.2977 24.1942 43.561 24.8256 44.0296 25.291C44.4982 25.7565 45.1338 26.018 45.7965 26.018C46.4593 26.018 47.0948 25.7565 47.5635 25.291C48.0321 24.8256 48.2954 24.1942 48.2954 23.536C48.2954 22.8777 48.0321 22.2464 47.5635 21.7809C47.0948 21.3155 46.4593 21.054 45.7965 21.054C45.1338 21.054 44.4982 21.3155 44.0296 21.7809C43.561 22.2464 43.2977 22.8777 43.2977 23.536Z" fill="#F5ECDA"/>
<path d="M7.84827 14.4451C7.84827 14.4451 11.3205 14.6562 11.7345 17.2309C10.6268 17.4013 8.47483 17.5457 7.84827 14.4451ZM40.1053 23.81C40.1053 23.81 39.8964 26.1402 38.1361 26.3736C38.0391 25.6253 37.9794 24.1731 40.1053 23.81Z" fill="#3D7C38"/>
</g>
<defs>
<clipPath id="clip0_53_115">
<rect width="50" height="50" fill="white"/>
</clipPath>
</defs>
</svg>
