<svg width="50" height="35" viewBox="0 0 50 35" fill="none" xmlns="http://www.w3.org/2000/svg">
<g clip-path="url(#clip0_40_156)">
<path d="M48.9323 16.1636V18.8057C48.9323 19.5583 48.3984 20.1679 47.7412 20.1679H44.4351V14.8014H47.7412C48.3984 14.8014 48.9323 15.411 48.9323 16.1636Z" fill="#5FCEFF"/>
<path d="M44.4351 20.1679V27.6044C44.4351 28.3606 44.1681 29.0435 43.7357 29.5387C43.5142 29.7931 43.251 29.9948 42.9611 30.1323C42.6712 30.2697 42.3605 30.3401 42.0468 30.3395C40.7277 30.3395 39.6584 29.115 39.6584 27.6044V7.36484C39.6584 6.60867 39.9254 5.9258 40.3578 5.43062C40.7902 4.93545 41.3865 4.62976 42.0468 4.62976C43.3658 4.62976 44.4351 5.85429 44.4351 7.36484V20.1679Z" fill="#FFB578"/>
<path d="M38.4815 20.1678V31.0134C38.4815 31.7678 38.2146 32.4525 37.7822 32.9476C37.5606 33.2021 37.2974 33.4038 37.0075 33.5412C36.7176 33.6787 36.4069 33.7491 36.0932 33.7485C34.7741 33.7485 33.7064 32.524 33.7064 31.0134V3.95578C33.7064 3.2014 33.9734 2.51674 34.4057 2.02156C34.8366 1.52639 35.4329 1.2207 36.0932 1.2207C37.4122 1.2207 38.4815 2.44523 38.4815 3.95578V20.1678Z" fill="#FF4893"/>
<path d="M16.3264 14.8014H33.7064V20.1679H16.3264V14.8014Z" fill="#5FCEFF"/>
<path d="M16.3264 20.1678V31.0134C16.3264 32.524 15.2571 33.7485 13.9381 33.7485C13.2793 33.7485 12.6815 33.4428 12.2491 32.9476C12.027 32.6939 11.8509 32.3923 11.7309 32.0604C11.6109 31.7285 11.5494 31.3727 11.5497 31.0134V3.95578C11.5497 2.44523 12.619 1.2207 13.9381 1.2207C14.5968 1.2207 15.1947 1.52639 15.627 2.02156C15.8491 2.27535 16.0252 2.57686 16.1452 2.90879C16.2652 3.24072 16.3268 3.59653 16.3264 3.95578V20.1678Z" fill="#FF4893"/>
<path d="M10.3728 20.1679V27.6044C10.3728 29.115 9.30351 30.3395 7.98447 30.3395C7.32573 30.3395 6.72944 30.0338 6.29704 29.5387C6.07488 29.285 5.89872 28.9835 5.7787 28.6515C5.65868 28.3196 5.59717 27.9637 5.59772 27.6044V7.36484C5.59772 5.85429 6.667 4.62976 7.98447 4.62976C8.64321 4.62976 9.24107 4.93545 9.67346 5.43062C10.1059 5.9258 10.3728 6.60867 10.3728 7.36484V20.1679Z" fill="#FFB578"/>
<path d="M5.5977 14.8014V20.1679H2.41329C1.75611 20.1679 1.22382 19.5583 1.22382 18.8057V16.1636C1.22382 15.411 1.75611 14.8014 2.41329 14.8014H5.5977Z" fill="#5FCEFF"/>
<path d="M33.7064 21.4192H16.3264C16.0366 21.4192 15.7586 21.2874 15.5537 21.0527C15.3488 20.818 15.2337 20.4997 15.2337 20.1679C15.2337 19.836 15.3488 19.5177 15.5537 19.283C15.7586 19.0484 16.0366 18.9165 16.3264 18.9165H33.7064C33.9962 18.9165 34.2741 19.0484 34.479 19.283C34.684 19.5177 34.7991 19.836 34.7991 20.1679C34.7991 20.4997 34.684 20.818 34.479 21.0527C34.2741 21.2874 33.9962 21.4192 33.7064 21.4192ZM39.6584 21.4192H38.4815C38.1917 21.4192 37.9137 21.2874 37.7088 21.0527C37.5039 20.818 37.3888 20.4997 37.3888 20.1679C37.3888 19.836 37.5039 19.5177 37.7088 19.283C37.9137 19.0484 38.1917 18.9165 38.4815 18.9165H39.6584C39.9482 18.9165 40.2262 19.0484 40.4311 19.283C40.636 19.5177 40.7511 19.836 40.7511 20.1679C40.7511 20.4997 40.636 20.818 40.4311 21.0527C40.2262 21.2874 39.9482 21.4192 39.6584 21.4192ZM47.7412 21.4192H44.4351C44.1453 21.4192 43.8673 21.2874 43.6624 21.0527C43.4575 20.818 43.3424 20.4997 43.3424 20.1679C43.3424 19.836 43.4575 19.5177 43.6624 19.283C43.8673 19.0484 44.1453 18.9165 44.4351 18.9165H47.7412C47.7956 18.9165 47.8396 18.8668 47.8396 18.8057V16.1636C47.8395 16.1489 47.8368 16.1344 47.8318 16.1209C47.8269 16.1074 47.8196 16.0951 47.8104 16.0848C47.8013 16.0745 47.7905 16.0664 47.7786 16.0609C47.7667 16.0554 47.754 16.0526 47.7412 16.0527H44.4351C44.1453 16.0527 43.8673 15.9209 43.6624 15.6862C43.4575 15.4516 43.3424 15.1333 43.3424 14.8014C43.3424 14.4695 43.4575 14.1512 43.6624 13.9166C43.8673 13.6819 44.1453 13.55 44.4351 13.55H47.7412C49.0005 13.55 50.025 14.7224 50.025 16.1636V18.8057C50.025 20.2467 49.0005 21.4192 47.7412 21.4192ZM33.7064 16.0527H16.3264C16.0366 16.0527 15.7586 15.9209 15.5537 15.6862C15.3488 15.4516 15.2337 15.1333 15.2337 14.8014C15.2337 14.4695 15.3488 14.1512 15.5537 13.9166C15.7586 13.6819 16.0366 13.55 16.3264 13.55H33.7064C33.9962 13.55 34.2741 13.6819 34.479 13.9166C34.684 14.1512 34.7991 14.4695 34.7991 14.8014C34.7991 15.1333 34.684 15.4516 34.479 15.6862C34.2741 15.9209 33.9962 16.0527 33.7064 16.0527ZM5.59768 21.4192H2.41327C1.1548 21.4192 0.131103 20.2467 0.131104 18.8057V16.1636C0.131104 14.7224 1.15496 13.55 2.41327 13.55H5.59768C5.88748 13.55 6.16541 13.6819 6.37033 13.9166C6.57525 14.1512 6.69037 14.4695 6.69037 14.8014C6.69037 15.1333 6.57525 15.4516 6.37033 15.6862C6.16541 15.9209 5.88748 16.0527 5.59768 16.0527H2.41327C2.3876 16.0527 2.36298 16.0644 2.34483 16.0852C2.32668 16.106 2.31649 16.1342 2.31649 16.1636V18.8057C2.31649 18.8668 2.35988 18.9165 2.41327 18.9165H5.59768C5.88748 18.9165 6.16541 19.0484 6.37033 19.283C6.57525 19.5177 6.69037 19.836 6.69037 20.1679C6.69037 20.4997 6.57525 20.818 6.37033 21.0527C6.16541 21.2874 5.88748 21.4192 5.59768 21.4192Z" fill="#4F46A3"/>
<path d="M13.938 35C13.4807 35.0015 13.0277 34.899 12.6052 34.6987C12.1827 34.4983 11.7991 34.204 11.4765 33.8327C11.1523 33.4633 10.8952 33.0239 10.7202 32.54C10.5452 32.0561 10.4558 31.5372 10.457 31.0134V3.95578C10.457 1.75771 12.0185 -0.0306396 13.938 -0.0306396C14.8681 -0.0306396 15.7424 0.383913 16.3997 1.13669C17.0571 1.88946 17.419 2.89071 17.419 3.95578V31.0134C17.419 33.2117 15.8574 35 13.938 35ZM13.938 2.47205C13.2236 2.47205 12.6424 3.13758 12.6424 3.95578V31.0134C12.6424 31.4101 12.7771 31.7828 13.0216 32.0628C13.1417 32.201 13.2845 32.3105 13.4418 32.3851C13.5991 32.4597 13.7678 32.4978 13.938 32.4973C14.6525 32.4973 15.2337 31.8316 15.2337 31.0134V3.95578C15.2337 3.55911 15.099 3.18657 14.8543 2.90644C14.6097 2.62632 14.2844 2.47205 13.938 2.47205Z" fill="#4F46A3"/>
<path d="M7.98446 31.5908C7.52735 31.5922 7.07455 31.4897 6.65227 31.2893C6.22998 31.0889 5.84661 30.7946 5.52434 30.4233C5.20012 30.054 4.94309 29.6147 4.76812 29.1308C4.59315 28.6469 4.50373 28.1281 4.50502 27.6044V7.3648C4.50502 5.16673 6.06601 3.37838 7.98446 3.37838C8.9145 3.37838 9.78881 3.79293 10.4461 4.5457C11.1035 5.29848 11.4655 6.29973 11.4655 7.3648V27.6044C11.4655 29.8025 9.90385 31.5908 7.98446 31.5908ZM7.98446 5.88107C7.27093 5.88107 6.6904 6.54678 6.6904 7.3648V27.6044C6.6904 28.0011 6.82512 28.3736 7.06957 28.6536C7.1894 28.7917 7.33196 28.9012 7.489 28.9758C7.64604 29.0504 7.81445 29.0886 7.98446 29.0881C8.69892 29.0881 9.28008 28.4224 9.28008 27.6044V7.3648C9.28008 6.96813 9.14537 6.59541 8.90076 6.31528C8.65615 6.03516 8.33084 5.88107 7.98446 5.88107ZM36.0932 35C34.1746 35 32.6137 33.2117 32.6137 31.0134V3.95579C32.6124 3.43203 32.7019 2.91318 32.8769 2.42928C33.0519 1.94537 33.3089 1.50603 33.6332 1.13669C34.2874 0.384449 35.1617 -0.0306397 36.0932 -0.0306396C38.0126 -0.0306396 39.5742 1.75753 39.5742 3.95579V31.0134C39.5755 31.5372 39.4861 32.056 39.3111 32.5399C39.1362 33.0239 38.8792 33.4633 38.555 33.8327C37.897 34.5853 37.023 35 36.0932 35ZM36.0932 2.47205C35.7469 2.47205 35.4226 2.62579 35.1798 2.90466C35.0588 3.04226 34.9628 3.20601 34.8975 3.38641C34.8321 3.56682 34.7987 3.76029 34.7991 3.95561V31.0132C34.7991 31.8314 35.3796 32.4972 36.0932 32.4972C36.2634 32.4977 36.4321 32.4596 36.5894 32.385C36.7467 32.3104 36.8895 32.2008 37.0096 32.0626C37.1303 31.9251 37.2259 31.7615 37.291 31.5814C37.3561 31.4013 37.3893 31.2082 37.3888 31.0132V3.95579C37.3888 3.13758 36.8075 2.47205 36.0932 2.47205Z" fill="#4F46A3"/>
<path d="M42.0468 31.5909C40.1272 31.5909 38.5656 29.8026 38.5656 27.6045V7.36491C38.5656 6.29966 38.9276 5.29841 39.5851 4.54564C39.9076 4.17434 40.2913 3.87999 40.7138 3.67962C41.1364 3.47925 41.5894 3.37684 42.0468 3.37831C43.9662 3.37831 45.5278 5.16666 45.5278 7.36474V27.6043C45.5278 28.6696 45.1658 29.6708 44.5083 30.4234C43.8513 31.1764 42.977 31.5909 42.0468 31.5909ZM42.0468 5.88118C41.8766 5.88059 41.7079 5.91866 41.5506 5.99319C41.3934 6.06773 41.2506 6.17724 41.1305 6.31539C41.0098 6.45291 40.9141 6.61647 40.8489 6.79663C40.7838 6.97678 40.7505 7.16993 40.751 7.36491V27.6045C40.751 28.4225 41.3323 29.0882 42.0468 29.0882C42.217 29.0889 42.3856 29.0508 42.5429 28.9763C42.7001 28.9017 42.8429 28.7921 42.9629 28.6539C43.0836 28.5164 43.1794 28.3529 43.2445 28.1727C43.3096 27.9926 43.3429 27.7995 43.3424 27.6045V7.36491C43.3424 6.54689 42.7612 5.88118 42.0468 5.88118Z" fill="#4F46A3"/>
</g>
<defs>
<clipPath id="clip0_40_156">
<rect width="50" height="35" fill="white"/>
</clipPath>
</defs>
</svg>
