<svg width="31" height="50" viewBox="0 0 31 50" fill="none" xmlns="http://www.w3.org/2000/svg">
<g clip-path="url(#clip0_40_103)">
<path d="M14.4155 8.84635C14.074 8.32184 13.852 7.7414 13.7625 7.1389C13.9751 6.97868 14.1468 6.77924 14.2662 6.55409C14.3856 6.32893 14.4497 6.08333 14.4543 5.83393C14.4551 5.59173 14.3748 5.32019 14.139 5.20296C14.0592 5.16694 13.9711 5.14806 13.8818 5.14781C13.7925 5.14756 13.7043 5.16595 13.6242 5.20153C13.5244 5.24474 13.4349 5.3051 13.3608 5.37922L13.1233 5.34154C12.7893 5.28859 11.5588 4.43391 11.4194 4.13578L11.4086 4.09643C13.3955 4.1898 15.7433 4.24954 17.268 4.1929C17.3666 4.18846 17.4602 4.15223 17.5316 4.09082C17.5778 4.35833 17.6088 4.6278 17.6244 4.89816C17.5927 5.45101 17.8376 6.57889 18.0124 7.1098C18.3402 8.10472 18.9273 9.15212 18.684 10.2279C18.5646 10.7549 18.23 11.3548 17.4466 11.4697C17.1439 11.2199 16.7922 11.023 16.4095 10.889C16.1759 10.4967 15.8763 9.91759 15.7121 9.81134C15.6305 9.75481 15.5359 9.71537 15.4352 9.69589C15.3345 9.67642 15.2302 9.6774 15.13 9.69877C14.8553 9.44094 14.6155 9.15482 14.4155 8.84635Z" fill="#AD7B59"/>
<path d="M17.3595 4.89811C17.3572 5.381 17.4169 5.86252 17.5375 6.33307C17.6497 6.83646 17.8013 7.33208 17.9912 7.8162C18.3422 8.73444 18.8371 9.96668 18.1168 10.8452C17.794 11.2387 17.2598 11.3019 16.7549 11.2115C16.4216 11.1519 16.2791 11.6115 16.614 11.6715C17.2017 11.7768 17.8026 11.7353 18.2788 11.3812C18.6208 11.1019 18.8509 10.7288 18.9332 10.3199C19.2438 9.02649 18.4567 7.83779 18.144 6.61355C18.0025 6.0601 17.8621 5.47016 17.8896 4.89906C17.9043 4.59211 17.3739 4.5927 17.3592 4.89906L17.3595 4.89811Z" fill="#211715"/>
<path d="M11.2262 4.08671L11.3929 4.09482L11.4194 4.13584C11.5594 4.43397 12.7893 5.28865 13.1233 5.3416L13.3609 5.37928C13.4349 5.30514 13.5244 5.24477 13.6242 5.20159C13.7043 5.16601 13.7925 5.14762 13.8818 5.14787C13.9711 5.14812 14.0592 5.167 14.139 5.20302C14.3746 5.32025 14.4551 5.59179 14.4543 5.83399C14.4497 6.08346 14.3854 6.32912 14.2659 6.55429C14.1465 6.77947 13.9745 6.97891 13.7618 7.13908C13.9055 8.10162 14.3849 8.99835 15.1312 9.70026C15.0846 9.70841 15.0389 9.72038 14.9947 9.73603C13.9422 10.1203 12.8381 10.3786 11.7108 10.5044C11.6607 10.2801 11.619 10.0921 11.619 10.0921C11.3906 10.1843 10.2769 10.1131 9.92265 9.47571L9.8891 9.40678C9.75067 9.41546 9.61174 9.39832 9.48101 9.35645C9.35105 9.32696 9.22983 9.27229 9.12581 9.19626C9.02179 9.12023 8.9375 9.02468 8.87882 8.91629C8.62957 8.54518 8.58714 7.84792 8.56142 7.53595C8.51258 7.39817 8.42722 7.27314 8.3127 7.17164C8.1711 7.04905 7.96798 6.95186 7.93934 6.77691C7.90143 6.54735 8.18078 6.39531 8.36812 6.23551C8.79914 5.86857 8.77607 5.1465 8.76003 4.61285L8.72145 3.9281C9.35758 3.98212 10.2422 4.03841 11.2262 4.08671Z" fill="white"/>
<path d="M9.60323 2.50269C9.76816 1.57252 10.2075 0.989258 11.1856 0.600258C12.1637 0.211258 13.7104 0.154971 14.7562 0.354837C15.3681 0.471466 16.1585 0.777466 16.6233 1.15383C17.3572 1.74794 17.7833 3.06079 17.7073 3.76223C17.7023 3.86913 17.6554 3.971 17.575 4.0498C17.4945 4.12859 17.3856 4.17922 17.2676 4.19273C14.5531 4.29361 9.23014 4.02577 7.97631 3.85035C7.73143 3.81613 7.54409 3.77964 7.49901 3.57405C7.47355 3.45921 7.62403 3.29905 7.7244 3.24706C8.10929 3.05056 8.53534 2.92809 8.97558 2.88739" fill="white"/>
<path d="M13.4662 5.64419C13.5815 5.48916 13.8452 5.28846 14.0414 5.42953C14.2109 5.55129 14.2074 5.82867 14.1759 6.02305C14.1349 6.25889 14.0328 6.48274 13.8778 6.67645C13.7227 6.87017 13.5191 7.02831 13.2835 7.13806C12.9802 7.27913 13.2481 7.69091 13.5511 7.54995C13.8989 7.38419 14.1907 7.1375 14.3962 6.83565C14.6017 6.53379 14.7134 6.18783 14.7195 5.83392C14.7195 5.48033 14.5678 5.09599 14.1759 4.95765C13.7084 4.79273 13.2611 5.06319 13.0091 5.40342C12.9916 5.43046 12.9801 5.46036 12.9754 5.49139C12.9706 5.52243 12.9727 5.554 12.9816 5.5843C12.9994 5.6455 13.0436 5.69782 13.1043 5.72975C13.165 5.76168 13.2373 5.7706 13.3054 5.75455C13.3734 5.73851 13.4316 5.69881 13.4671 5.64419H13.4662Z" fill="#211715"/>
<path d="M8.49516 4.61279C8.51053 5.12558 8.57099 5.76417 8.0986 6.13314C7.84749 6.32931 7.58551 6.56614 7.69953 6.89373C7.80029 7.18351 8.16436 7.28177 8.28899 7.55772C8.30946 7.6177 8.35462 7.66837 8.41524 7.69941C8.47586 7.73044 8.54736 7.73947 8.61514 7.72468C8.68279 7.70757 8.74022 7.66716 8.77496 7.61222C8.80971 7.55729 8.81898 7.49224 8.80076 7.4312C8.73802 7.27831 8.64196 7.13823 8.51822 7.01918C8.44159 6.94894 8.23675 6.85688 8.20917 6.75957C8.18664 6.68003 8.29469 6.61265 8.35342 6.56471C8.47825 6.47376 8.59242 6.37159 8.69416 6.25978C9.07136 5.79828 9.04219 5.1573 9.02562 4.61315C9.0166 4.30679 8.48614 4.3056 8.49529 4.61315L8.49516 4.61279Z" fill="#211715"/>
<path d="M11.1904 4.25625C11.2497 4.35863 11.3277 4.45135 11.4211 4.53053C11.5335 4.6353 11.6521 4.73454 11.7763 4.82782C12.0532 5.04419 12.3495 5.23963 12.6621 5.41216C12.7814 5.48481 12.9135 5.53887 13.0528 5.57208C13.1206 5.5889 13.1931 5.58081 13.2543 5.54958C13.3154 5.51835 13.3603 5.46653 13.379 5.40554C13.3977 5.34455 13.3887 5.27937 13.354 5.22434C13.3193 5.16931 13.2617 5.12895 13.1939 5.11212C13.1759 5.10885 13.1582 5.10455 13.1408 5.09924C13.1313 5.09638 13.122 5.09292 13.1125 5.08994C13.065 5.07527 13.1648 5.11272 13.1292 5.09626C13.0761 5.07158 13.0231 5.04856 12.9709 5.02173C12.837 4.95232 12.7084 4.87421 12.5827 4.79336C12.512 4.74781 12.4421 4.7011 12.3731 4.65324C12.4151 4.68234 12.3711 4.65157 12.3545 4.63976C12.3379 4.62796 12.3225 4.61711 12.3068 4.60566C12.2726 4.58101 12.2387 4.55613 12.2051 4.53101C12.0793 4.4368 11.9561 4.33925 11.841 4.23454C11.7908 4.18899 11.7446 4.14093 11.6978 4.09275C11.6713 4.06497 11.7348 4.14046 11.7059 4.10194C11.6987 4.0924 11.6911 4.08321 11.684 4.07355C11.6705 4.05526 11.6587 4.036 11.6488 4.01596C11.613 3.96164 11.5548 3.9222 11.4869 3.90618C11.419 3.89015 11.3469 3.89883 11.286 3.93033C11.2266 3.96333 11.1835 4.01563 11.1658 4.0764C11.1481 4.13717 11.1571 4.20174 11.1908 4.25673L11.1904 4.25625Z" fill="#211715"/>
<path d="M8.72647 8.18068C8.98501 8.19738 9.24831 8.16088 9.50592 8.19189L9.43539 8.18342C9.45143 8.18545 9.46747 8.18796 9.48325 8.19118C9.55106 8.20799 9.62352 8.19988 9.68469 8.16863C9.74585 8.13739 9.79071 8.08557 9.8094 8.02458C9.82809 7.96359 9.81908 7.89841 9.78434 7.8434C9.74961 7.78838 9.692 7.74803 9.62419 7.73122C9.33131 7.67159 9.02292 7.72287 8.72647 7.70367C8.65626 7.70402 8.58904 7.72926 8.53939 7.77391C8.48975 7.81856 8.46169 7.87903 8.4613 7.94218C8.46289 8.00498 8.49134 8.06482 8.54072 8.10925C8.59011 8.15367 8.65664 8.17925 8.72647 8.18068Z" fill="#211715"/>
<path d="M9.42214 5.46738C9.36619 5.63851 9.40172 6.03216 9.74378 6.06519C10.196 6.06185 10.2211 5.58592 10.0691 5.36232C9.94478 5.17939 9.57845 5.10402 9.42214 5.46738Z" fill="#211715"/>
<path d="M8.29137 7.48362C8.33115 7.90661 8.34984 8.34414 8.50642 8.74853C8.58903 8.98561 8.7394 9.19903 8.94249 9.36745C9.16008 9.52252 9.423 9.6175 9.6994 9.64089C10.0569 9.65878 10.4122 9.5807 10.7203 9.41658C11.0214 9.27169 10.7538 8.85967 10.4526 9.00468C10.3265 9.06879 10.1907 9.1161 10.0496 9.14516C9.89768 9.18048 9.73796 9.17784 9.58763 9.13753C9.5525 9.12751 9.51776 9.11547 9.48329 9.1039C9.47189 9.10008 9.38332 9.06562 9.44352 9.09078C9.39948 9.07198 9.35663 9.051 9.31518 9.02794C9.29131 9.01251 9.29184 9.01327 9.31677 9.0302C9.3051 9.02138 9.29356 9.01231 9.28243 9.00289C9.25799 8.98219 9.23492 8.96021 9.21335 8.93707C9.17207 8.88927 9.13454 8.83895 9.10106 8.78645C9.0866 8.76403 9.07295 8.74125 9.06035 8.718C9.0528 8.70417 9.04564 8.69021 9.03874 8.67614C9.04855 8.69713 9.04749 8.69415 9.03556 8.66744C9.0109 8.60459 8.98743 8.54186 8.96834 8.47747C8.93216 8.35103 8.90388 8.22287 8.88362 8.0936C8.87902 8.06378 8.87827 8.05937 8.88137 8.08036C8.87898 8.06354 8.87673 8.04673 8.87447 8.02991C8.87014 7.99716 8.86603 7.96433 8.86214 7.93141C8.85604 7.87759 8.85047 7.82373 8.84544 7.76983C8.83669 7.67442 8.82992 7.57902 8.82104 7.48362C8.81929 7.42086 8.7908 7.3611 8.74144 7.31671C8.69209 7.27232 8.62565 7.24669 8.55588 7.24512C8.48572 7.24562 8.4186 7.2709 8.36899 7.31552C8.31938 7.36015 8.29127 7.42052 8.29071 7.48362H8.29137Z" fill="#211715"/>
<path d="M9.69367 9.59597C9.90143 9.96029 10.3204 10.1828 10.7476 10.2876C11.0593 10.364 11.446 10.4163 11.7528 10.2982C11.8133 10.2661 11.8572 10.2138 11.875 10.1526C11.8928 10.0915 11.8831 10.0266 11.848 9.97186C11.8113 9.91847 11.7531 9.87983 11.6856 9.86391C11.6181 9.848 11.5464 9.85603 11.4853 9.88635C11.5859 9.84759 11.5185 9.87288 11.4898 9.87884C11.477 9.87971 11.4644 9.88179 11.4521 9.88504C11.4644 9.87932 11.5301 9.87788 11.4798 9.88146C11.4188 9.88599 11.3576 9.88743 11.2965 9.88576C11.2605 9.88456 11.2246 9.88242 11.1887 9.87955C11.1725 9.87812 11.1563 9.8761 11.14 9.87502C11.0928 9.87168 11.2035 9.88397 11.1268 9.87323C11.0463 9.86207 10.9666 9.84686 10.8881 9.82768C10.8483 9.81802 10.8095 9.80741 10.7708 9.7956C10.7466 9.78821 10.7225 9.78026 10.6986 9.77175C10.6874 9.76782 10.6265 9.74385 10.6904 9.7696C10.6072 9.73708 10.527 9.69868 10.4506 9.65476C10.4343 9.64522 10.4186 9.63473 10.4025 9.62507C10.379 9.60957 10.3814 9.61148 10.4094 9.63091C10.3991 9.62364 10.3891 9.61636 10.3791 9.60885C10.3443 9.58253 10.3112 9.55442 10.28 9.52466C10.2667 9.5119 10.2541 9.49831 10.2402 9.48531C10.2219 9.46503 10.2235 9.4673 10.245 9.4921C10.2371 9.48268 10.2293 9.47302 10.2219 9.46336C10.1955 9.42862 10.1716 9.39237 10.1504 9.35485C10.1147 9.30059 10.0566 9.26125 9.98876 9.24543C9.92092 9.22961 9.84887 9.23859 9.78837 9.27041C9.72786 9.30223 9.68382 9.3543 9.66588 9.41524C9.64794 9.47618 9.65755 9.54103 9.69261 9.59561L9.69367 9.59597Z" fill="#211715"/>
<path d="M9.85901 2.56584C9.97727 1.9189 10.2664 1.35281 10.9053 0.999824C11.6255 0.602118 12.5085 0.491333 13.3398 0.481196C14.2053 0.470464 15.0541 0.593055 15.8269 0.958205C16.1799 1.11035 16.4881 1.33503 16.7267 1.61409C16.9519 1.90389 17.1263 2.22312 17.2437 2.56059C17.3618 2.86834 17.4313 3.18948 17.4502 3.51461C17.4545 3.63386 17.4702 3.78651 17.3824 3.8862C17.293 3.98792 17.1199 3.95918 16.9908 3.96264C16.2841 3.9816 15.5766 3.97838 14.8694 3.96789C13.3226 3.94475 11.7773 3.88688 10.2334 3.79426C9.65947 3.76051 9.08539 3.72342 8.51316 3.67047C8.41293 3.66117 8.31269 3.65139 8.21273 3.6403C8.19257 3.63816 8.17295 3.63577 8.15227 3.63351C8.09804 3.62754 8.13676 3.63172 8.13901 3.63195C8.09327 3.62611 8.04753 3.62003 8.00192 3.61347C7.92578 3.60842 7.85128 3.59109 7.78197 3.56231C7.74935 3.54419 7.75545 3.5511 7.78117 3.52367C7.93014 3.39953 8.11133 3.31097 8.30819 3.26609C8.52362 3.19554 8.74763 3.1483 8.97548 3.12537C9.04519 3.12363 9.11151 3.09794 9.16083 3.05358C9.21014 3.00923 9.2387 2.94957 9.24064 2.88687C9.24019 2.82374 9.21211 2.76331 9.16248 2.71867C9.11285 2.67403 9.04566 2.64877 8.97548 2.64836C8.70947 2.67097 8.44726 2.72111 8.19403 2.79779C7.93501 2.86192 7.692 2.96999 7.47809 3.11619C7.38348 3.18233 7.31241 3.27187 7.27359 3.37384C7.23477 3.4758 7.22991 3.58574 7.25959 3.69015C7.29683 3.7823 7.36019 3.8641 7.4434 3.92743C7.52661 3.99077 7.62677 4.03345 7.73397 4.05124C8.23527 4.16358 8.78575 4.17407 9.29845 4.2108C10.9333 4.32791 12.574 4.39588 14.2135 4.43249C15.0346 4.45098 15.8565 4.46076 16.6777 4.44645C17.0622 4.43977 17.515 4.49093 17.784 4.19256C18.0562 3.89073 17.9928 3.45475 17.9318 3.09723C17.8051 2.35226 17.4537 1.51774 16.8254 0.996962C16.1075 0.401894 15.0862 0.114019 14.1315 0.0320932C12.4169 -0.114825 10.1439 0.195588 9.50196 1.86679C9.43256 2.05331 9.38093 2.2448 9.34763 2.4392C9.33105 2.50017 9.34104 2.56454 9.37556 2.61909C9.41007 2.67364 9.4665 2.71424 9.53325 2.73256C9.6011 2.74888 9.67336 2.74051 9.73441 2.70926C9.79545 2.67802 9.84035 2.62641 9.8594 2.5656L9.85901 2.56584Z" fill="#211715"/>
<path d="M11.249 5.57466C11.2041 5.78703 11.1892 6.00362 11.2046 6.21934C11.2034 6.32661 11.2162 6.43364 11.2428 6.53822C11.2775 6.64157 11.3441 6.73397 11.4347 6.80475C11.52 6.86625 11.6192 6.91012 11.7253 6.93327C11.8315 6.95641 11.9421 6.95826 12.0491 6.93867C12.162 6.91465 12.2651 6.86262 12.3467 6.7885C12.4283 6.71437 12.4852 6.62113 12.5108 6.51938C12.5295 6.45837 12.5204 6.39318 12.4857 6.33815C12.451 6.28313 12.3933 6.24277 12.3255 6.22596C12.2577 6.20915 12.1852 6.21726 12.124 6.24852C12.0628 6.27977 12.018 6.3316 11.9993 6.39261C11.9993 6.39488 11.9852 6.43566 11.986 6.4365C12.0031 6.40287 12.0055 6.39762 11.9934 6.42064L11.9856 6.43376C11.9543 6.48325 11.9799 6.43137 11.9895 6.43376C11.9774 6.4438 11.9659 6.45443 11.9551 6.4656C11.9189 6.49934 11.9989 6.44318 11.9551 6.46369C11.948 6.46762 11.9407 6.47132 11.9331 6.47466C11.9154 6.48261 11.9237 6.47979 11.9578 6.46619C11.9437 6.46852 11.9299 6.47232 11.9168 6.47752C11.9591 6.45904 11.9838 6.47144 11.9416 6.47216C11.9117 6.47251 11.8818 6.47144 11.852 6.46894C11.8371 6.46786 11.822 6.46548 11.8072 6.46476C11.8895 6.46846 11.8483 6.47156 11.8278 6.46619C11.8168 6.46282 11.8056 6.46004 11.7942 6.45785C11.8289 6.47192 11.8371 6.47502 11.8191 6.46703C11.8115 6.46381 11.8041 6.46011 11.7968 6.45618C11.7895 6.45224 11.7825 6.44819 11.7756 6.44425C11.7594 6.43399 11.7661 6.43861 11.7958 6.45808C11.7845 6.44652 11.7724 6.43561 11.7596 6.42541L11.7799 6.44926C11.7731 6.44104 11.7668 6.43252 11.761 6.42374L11.7527 6.4105C11.7401 6.38737 11.7421 6.39249 11.7586 6.42589C11.7593 6.42589 11.7441 6.382 11.7454 6.38236L11.7502 6.41611L11.7466 6.37711C11.7394 6.29817 11.7333 6.2191 11.7304 6.1398C11.7276 6.06288 11.7276 5.98596 11.732 5.90905C11.7344 5.86874 11.7397 5.82867 11.743 5.78836C11.7452 5.77064 11.7444 5.77505 11.7406 5.8016C11.7421 5.79158 11.7438 5.78157 11.7456 5.77155C11.7498 5.7477 11.7547 5.72492 11.7598 5.70167C11.7691 5.67147 11.7717 5.63992 11.7674 5.60883C11.7631 5.57774 11.752 5.54771 11.7348 5.52047C11.7176 5.49322 11.6946 5.46929 11.6672 5.45003C11.6397 5.43078 11.6083 5.41658 11.5747 5.40825C11.5411 5.39992 11.506 5.39762 11.4715 5.40148C11.4369 5.40534 11.4035 5.41528 11.3732 5.43075C11.3429 5.44621 11.3163 5.46689 11.2949 5.4916C11.2735 5.51632 11.2577 5.54458 11.2485 5.57478L11.249 5.57466Z" fill="#211715"/>
<path d="M13.5509 7.45082C13.7307 8.26564 14.1381 9.02589 14.7347 9.65996C14.7847 9.70421 14.8521 9.72901 14.9222 9.72901C14.9924 9.72901 15.0597 9.70421 15.1097 9.65996C15.1581 9.6146 15.1851 9.55416 15.1851 9.49128C15.1851 9.42841 15.1581 9.36797 15.1097 9.3226C14.5778 8.7471 14.2173 8.05935 14.0623 7.32405C14.0431 7.26332 13.9982 7.21179 13.9372 7.18056C13.8762 7.14934 13.804 7.14091 13.7361 7.1571C13.669 7.17493 13.6122 7.21544 13.5776 7.27014C13.543 7.32484 13.5333 7.38946 13.5505 7.45046L13.5509 7.45082Z" fill="#211715"/>
<path d="M23.7533 16.3376C22.9603 15.3847 21.9686 14.674 21.0157 14.0598C20.1143 13.4074 19.1687 12.806 18.1843 12.2591C17.7401 11.6459 17.1658 11.1516 16.4098 10.8892C16.1761 10.4968 15.8765 9.91774 15.7124 9.81149C15.6112 9.74251 15.4914 9.69912 15.3653 9.68578C15.2392 9.67245 15.1115 9.68966 14.9953 9.73564C13.8172 10.1691 12.573 10.44 11.305 10.5392C11.2863 10.5412 11.2688 10.5482 11.2546 10.5593C11.2404 10.5704 11.2303 10.585 11.2254 10.6013C11.1495 10.864 11.0927 11.1309 11.0553 11.4003L11.0312 11.401C10.3867 11.419 9.91749 11.9367 9.54175 12.4076C9.38 12.6103 9.21825 12.8058 9.0565 12.9965C8.11622 14.1048 7.17701 15.0464 6.23633 16.224C5.99832 15.9851 5.80526 15.7129 5.66477 15.418C5.25151 15.5294 3.04507 16.5671 2.88743 16.7225C2.77036 16.8378 2.78839 16.9085 2.82233 16.9683C3.41895 18.02 4.0987 19.1122 4.85403 19.9954C5.1412 20.3311 5.71582 20.3666 5.90143 20.3569C6.7862 20.3318 7.64875 20.1016 8.40552 19.6885L8.79173 19.4943C8.45802 21.2763 7.76223 23.2222 9.01845 24.2714C9.26093 24.4173 9.53591 24.5137 9.82415 24.554C11.0615 24.8544 14.0432 24.4922 15.8895 24.1301C16.3039 24.0487 17.1542 24.1158 17.7225 23.6795C17.8765 23.5552 17.995 23.3993 18.068 23.2251C18.8456 23.6496 19.9128 24.1716 20.59 24.3619C20.6533 24.3776 20.7207 24.3737 20.7812 24.3507C20.8417 24.3277 20.8919 24.287 20.9234 24.2351C22.1645 22.2865 23.2151 20.2445 24.0635 18.1324C24.2108 17.7697 24.227 16.9071 23.7533 16.3376ZM19.5425 18.8569C19.2136 19.3576 18.9176 19.8752 18.6561 20.4072C18.5103 20.6976 18.3645 21.0013 18.2258 21.3087C18.0534 20.3493 17.6243 19.5151 17.8864 18.4854C18.022 17.9527 18.0769 17.9228 18.2732 17.3469C18.618 17.5922 18.9833 17.8134 19.3657 18.0084C19.7865 18.2251 19.6229 18.7387 19.5425 18.8569Z" fill="#F4B3B3"/>
<path d="M25.9918 39.6096C25.8187 39.574 25.6447 39.5415 25.4701 39.5122C25.9583 38.8344 26.6266 37.6839 26.9072 36.7278C27.1378 36.841 27.3632 36.962 27.5833 37.0908C27.5795 37.1291 27.5822 37.1676 27.5913 37.2051C27.6695 37.5437 27.5458 38.0735 27.4701 38.4215C27.3944 38.7695 27.1149 39.3937 26.7614 39.5499C26.6117 39.6014 26.4583 39.6439 26.3023 39.677C26.199 39.6534 26.0955 39.6309 25.9918 39.6096Z" fill="white"/>
<path d="M26.6434 36.8711C26.8744 36.9808 27.1006 37.0981 27.322 37.2231C27.3829 37.2545 27.455 37.2631 27.5228 37.247C27.5907 37.231 27.6488 37.1917 27.6847 37.1375C27.7188 37.0826 27.7279 37.0179 27.7102 36.9571C27.6924 36.8963 27.6492 36.844 27.5895 36.8112C27.3686 36.6862 27.1424 36.5689 26.9111 36.4592C26.8489 36.4281 26.7758 36.4196 26.7068 36.4353C26.6565 36.4478 26.6113 36.4733 26.5771 36.5087C26.5428 36.5441 26.5209 36.5878 26.5141 36.6344C26.5074 36.6809 26.516 36.7283 26.539 36.7704C26.562 36.8126 26.5984 36.8477 26.6434 36.8713V36.8711Z" fill="#211715"/>
<path d="M25.3157 39.7259C25.6363 39.7801 25.9545 39.8433 26.2703 39.9157C26.3381 39.9325 26.4106 39.9244 26.4718 39.8932C26.533 39.8619 26.5778 39.8101 26.5965 39.7491C26.6153 39.6881 26.6063 39.6229 26.5715 39.5679C26.5368 39.5129 26.4792 39.4725 26.4114 39.4557C26.0953 39.3833 25.7771 39.32 25.4568 39.266C25.3878 39.2507 25.3149 39.2592 25.2525 39.2898C25.2074 39.3135 25.1711 39.3486 25.1481 39.3907C25.1251 39.4328 25.1164 39.4802 25.1231 39.5267C25.1299 39.5733 25.1518 39.617 25.186 39.6524C25.2203 39.6878 25.2654 39.7134 25.3157 39.7258V39.7259Z" fill="#211715"/>
<path d="M30.6702 38.6531C30.802 38.1488 30.5251 37.7706 30.0413 37.4357C29.5397 37.088 28.7532 36.9696 28.1363 36.8411C27.9556 36.8034 27.679 36.8592 27.6052 37.0122C27.5787 37.0737 27.5738 37.141 27.591 37.205C27.6692 37.5436 27.5455 38.0734 27.4698 38.4214C27.3941 38.7694 27.1146 39.3935 26.7612 39.5498C26.4529 39.6859 26.1531 39.6069 26.0861 39.9098C26.3554 40.5047 26.4246 41.1578 26.2849 41.7878C26.2174 42.0507 26.1717 42.3177 26.1484 42.5868C26.1261 42.8588 26.2227 43.1279 26.4176 43.3369C26.7747 43.6773 27.3208 43.6198 27.7667 43.3787C28.3149 43.0822 28.9742 41.9148 29.5005 40.67C29.7953 39.9732 30.5003 39.3033 30.6702 38.6531Z" fill="#645D5B"/>
<path d="M30.9259 38.7165C31.0819 38.0649 30.6785 37.5372 30.0977 37.1793C29.7909 37.0048 29.4542 36.8768 29.1013 36.8003C28.7738 36.7083 28.4387 36.64 28.0991 36.5963C27.7599 36.5643 27.364 36.7235 27.3236 37.0586C27.3246 37.1951 27.3335 37.3315 27.3501 37.4672C27.3476 37.6231 27.3314 37.7786 27.3017 37.9323C27.2614 38.2047 27.1907 38.4727 27.0909 38.7325C27.0072 38.9311 26.8846 39.1856 26.6849 39.3131C26.4484 39.4636 26.1333 39.3987 25.9394 39.6291C25.8834 39.6908 25.8475 39.7654 25.836 39.8444C25.8245 39.9234 25.8377 40.0038 25.8742 40.0764C25.9495 40.2597 26.0065 40.4486 26.0447 40.641C26.1078 40.9908 26.1042 41.3476 26.0342 41.6964C25.9679 42.0487 25.8509 42.4058 25.8901 42.7665C25.8991 42.9242 25.9435 43.0787 26.0205 43.2206C26.0976 43.3625 26.2058 43.489 26.3385 43.5923C26.4789 43.6888 26.6412 43.7561 26.8139 43.7895C26.9866 43.8229 27.1654 43.8215 27.3374 43.7854C27.9534 43.6781 28.3462 43.2662 28.6653 42.8118C29.1409 42.1348 29.4383 41.3899 29.789 40.6591C30.1115 39.9871 30.7247 39.4377 30.9253 38.7162C31.0082 38.4181 30.497 38.2914 30.414 38.5895C30.2399 39.2156 29.7142 39.7193 29.399 40.2887C29.2222 40.6085 29.0994 40.9522 28.9415 41.2799C28.7881 41.5981 28.6233 41.912 28.4377 42.2168C28.1758 42.6469 27.875 43.1454 27.3351 43.2941C27.0639 43.3687 26.7564 43.3511 26.5712 43.1337C26.3675 42.8952 26.396 42.5531 26.4496 42.2751C26.5508 41.8697 26.6066 41.4561 26.6163 41.0407C26.6025 40.6311 26.5093 40.2267 26.3408 39.8459V39.9733C26.36 39.9028 26.375 39.9033 26.4566 39.8832C26.5684 39.8605 26.6786 39.832 26.7866 39.7979C27.0116 39.709 27.1999 39.5588 27.325 39.3686C27.5733 38.9959 27.7334 38.5812 27.7953 38.1504C27.8517 37.9043 27.8798 37.6537 27.8791 37.4024C27.8765 37.3403 27.8699 37.2783 27.8594 37.2168C27.8547 37.1883 27.8298 37.1297 27.8482 37.105C27.8786 37.0641 28.0124 37.0644 28.0586 37.0693C28.3113 37.1066 28.561 37.1584 28.8064 37.2243C29.0792 37.2794 29.3444 37.3615 29.5971 37.4691C30.0601 37.6803 30.535 38.0822 30.4134 38.5901C30.3429 38.889 30.854 39.0169 30.9259 38.7165Z" fill="#211715"/>
<path d="M4.64801 45.4023C4.65172 45.3477 4.65508 45.2933 4.65808 45.2389C5.5497 45.5835 6.92418 46.0021 7.98591 46.1161C7.90176 46.316 7.81015 46.5131 7.71106 46.7074C7.66731 46.7091 7.62415 46.7171 7.58325 46.7312C7.21282 46.8533 6.59644 46.8196 6.19286 46.8028C5.78928 46.7859 5.04271 46.6239 4.814 46.3246C4.73348 46.1954 4.66261 46.0616 4.60187 45.924C4.62061 45.7502 4.63599 45.5763 4.64801 45.4023Z" fill="white"/>
<path d="M7.81448 45.8438C7.7443 46.0223 7.66842 46.1989 7.58683 46.3736L7.61335 46.3166C7.59108 46.3643 7.56836 46.4117 7.5452 46.4589C7.5116 46.5151 7.50217 46.5806 7.51869 46.6427C7.53759 46.7024 7.58119 46.7534 7.64053 46.7852C7.67113 46.8011 7.70495 46.8114 7.74002 46.8155C7.7751 46.8196 7.81073 46.8174 7.84484 46.809C7.87816 46.8013 7.90941 46.7876 7.93674 46.7687C7.96407 46.7499 7.98692 46.7263 8.00394 46.6994C8.12101 46.4598 8.22933 46.217 8.32638 45.9703C8.33563 45.9401 8.33817 45.9085 8.33385 45.8774C8.32953 45.8463 8.31843 45.8163 8.30119 45.789C8.28395 45.7618 8.26091 45.7379 8.23338 45.7186C8.20585 45.6994 8.17438 45.6852 8.14076 45.677C8.07296 45.6617 8.00125 45.6706 7.94051 45.7017C7.87978 45.7328 7.83469 45.7837 7.81461 45.8439L7.81448 45.8438Z" fill="#211715"/>
<path d="M4.40243 45.0608C4.38935 45.3614 4.36562 45.6614 4.33124 45.961C4.33125 46.0243 4.3592 46.0849 4.40893 46.1296C4.45891 46.174 4.52617 46.1991 4.5964 46.1995C4.66613 46.1978 4.73247 46.1721 4.78179 46.1278C4.83111 46.0834 4.85966 46.0237 4.86157 45.961C4.89595 45.6617 4.91968 45.3616 4.93277 45.0608C4.93225 44.9977 4.90414 44.9373 4.85452 44.8926C4.80491 44.848 4.73777 44.8227 4.6676 44.8223C4.59772 44.8235 4.5311 44.8491 4.48167 44.8935C4.43225 44.938 4.40386 44.9979 4.40243 45.0608Z" fill="#211715"/>
<path d="M6.40909 49.7586C6.99789 49.8034 7.38278 49.4941 7.68878 49.0023C8.00605 48.4924 8.02196 47.7567 8.07486 47.1743C8.09037 47.0036 7.98603 46.7595 7.80227 46.7149C7.72896 46.6999 7.6523 46.7054 7.58258 46.7308C7.21215 46.8529 6.59577 46.8191 6.19219 46.8023C5.78861 46.7855 5.04204 46.6234 4.81333 46.3241C4.61353 46.0631 4.65794 45.7776 4.30607 45.7617C3.67499 46.0967 2.94842 46.2576 2.21657 46.2244C1.90999 46.202 1.60199 46.2003 1.29512 46.2192C0.984884 46.2395 0.695692 46.3678 0.489016 46.5769C0.157825 46.9539 0.304726 47.4438 0.64321 47.8149C1.05965 48.2709 2.47577 48.6982 3.9591 48.9925C4.7892 49.1572 5.64993 49.7006 6.40909 49.7586Z" fill="#645D5B"/>
<path d="M6.40904 49.9971C7.11173 50.0397 7.63185 49.6155 7.9409 49.084C8.10249 48.7844 8.205 48.4618 8.24385 48.1307C8.30256 47.8027 8.33517 47.4714 8.34144 47.1392C8.33825 46.8299 8.124 46.4847 7.74747 46.4683C7.57869 46.461 7.41972 46.5361 7.25452 46.5581C7.07671 46.5784 6.89738 46.586 6.71823 46.5808C6.42202 46.5866 6.12591 46.5658 5.8343 46.5188C5.58239 46.4701 5.25094 46.4014 5.06532 46.2254C4.87705 46.0465 4.88673 45.7603 4.63814 45.6138C4.56797 45.5675 4.48533 45.5389 4.39875 45.5309C4.31218 45.523 4.22482 45.536 4.14573 45.5687C3.97604 45.6535 3.8006 45.7287 3.62043 45.7937C3.26269 45.9112 2.88623 45.9759 2.50555 45.9856C2.07784 45.9975 1.64973 45.9351 1.22361 45.9889C1.03641 46.0056 0.854759 46.0555 0.689184 46.1358C0.523608 46.2161 0.377408 46.3251 0.259067 46.4566C0.152427 46.5899 0.0817535 46.7437 0.0526433 46.9059C0.0235331 47.068 0.0367852 47.234 0.0913504 47.3907C0.276966 47.965 0.78953 48.2908 1.36679 48.5229C2.21148 48.8625 3.1019 49.0372 3.99193 49.245C4.8207 49.4382 5.54315 49.9199 6.40851 49.9971C6.47869 49.9967 6.54585 49.9714 6.59548 49.9268C6.6451 49.8821 6.67319 49.8217 6.67368 49.7586C6.67222 49.6958 6.64382 49.6358 6.5944 49.5914C6.54499 49.547 6.47838 49.5214 6.40851 49.5201C6.05627 49.4709 5.71459 49.373 5.39558 49.23C5.04782 49.0934 4.70284 48.9464 4.34142 48.8404C3.9389 48.7222 3.51543 48.6593 3.10668 48.5592C2.72338 48.4653 2.34287 48.3605 1.97097 48.2343C1.45788 48.0603 0.868019 47.85 0.640508 47.3631C0.51946 47.1042 0.545181 46.8081 0.805573 46.6266C1.10402 46.4186 1.52152 46.4344 1.87711 46.4491C2.32247 46.4781 2.7701 46.4588 3.21036 46.3918C3.64301 46.312 4.05808 46.1687 4.43887 45.9675L4.30509 46C4.36581 46.005 4.37615 46.0487 4.40214 46.1008C4.4464 46.2063 4.49831 46.3091 4.55753 46.4086C4.6887 46.585 4.87563 46.7221 5.09422 46.8021C5.56053 46.9742 6.06057 47.0601 6.56456 47.0548C6.85773 47.0682 7.15165 47.0535 7.44133 47.0108C7.50113 47.0009 7.6878 46.9243 7.73699 46.9485C7.79904 46.9792 7.81084 47.1036 7.80991 47.1566C7.80527 47.4104 7.77226 47.6701 7.74176 47.9224C7.71613 48.186 7.65377 48.4457 7.55615 48.6953C7.45581 48.9377 7.29311 49.1553 7.08137 49.3302C6.98991 49.402 6.88291 49.4559 6.76712 49.4885C6.65133 49.5212 6.52927 49.5319 6.40865 49.52C6.06844 49.4993 6.06977 49.9765 6.40904 49.9971Z" fill="#211715"/>
<path d="M19.4496 32.8778C19.0014 32.7157 18.6939 32.5726 18.5638 32.372C18.5995 31.524 18.7312 30.3492 18.5347 29.6072C18.5037 29.4533 18.4614 29.3014 18.4079 29.1526C18.681 28.7877 18.9111 28.3983 19.0946 27.9906C19.3995 27.337 19.7326 26.1315 19.4727 25.2566C19.2387 24.4277 18.7809 23.6635 18.14 23.0319C18.0742 23.2801 17.9288 23.5054 17.7218 23.6799C17.1537 24.1161 16.3032 24.0496 15.889 24.1304C14.0426 24.4926 11.061 24.8547 9.8236 24.5544C9.67443 24.5301 9.528 24.4938 9.38608 24.446C9.37005 24.726 9.3885 25.0067 9.4411 25.2831C9.49997 25.8661 9.78581 26.9014 10.1334 27.7212L10.1814 27.8341C9.14 29.7412 7.93655 32.1793 7.58494 33.2465C7.33449 33.9356 7.03459 34.81 6.8381 35.4991C6.62146 36.2593 6.36677 37.0538 6.11367 37.842C5.37917 40.1283 4.71692 42.4418 4.16656 44.9597C5.15351 45.4973 7.80569 46.245 8.62134 46.2582C10.2786 43.5845 11.9672 38.5829 12.6675 35.5874C12.774 35.2933 12.9191 35.0115 13.0997 34.7483C13.2338 34.5947 13.3609 34.4485 13.483 34.3081C13.5201 34.3973 13.5456 34.4567 13.5456 34.4567C13.6769 34.9214 13.9199 35.3546 14.2576 35.7258L14.301 35.7717C14.7064 36.2022 15.4442 36.5746 16.0067 36.8241C18.0861 37.7466 23.567 39.5539 25.3169 39.7921C25.887 39.1738 26.7609 37.5534 26.8489 36.2411C25.1784 35.3009 23.4469 34.4514 21.6638 33.6971C20.7586 33.3026 19.9986 33.076 19.4496 32.8778Z" fill="white"/>
<path d="M2.33245 16.111C2.26112 16.0777 2.19437 16.037 2.13358 15.9897C1.85834 15.7861 1.32363 15.106 1.23613 14.796L1.21717 14.7096C1.18402 14.6803 1.1469 14.6472 1.09784 14.6038C0.94325 14.4679 0.695851 14.2164 0.648784 14.0266C0.62758 13.9411 0.631466 13.8522 0.660058 13.7685C0.688651 13.6848 0.740967 13.6093 0.811862 13.5493C0.882756 13.4893 0.969788 13.4469 1.0644 13.4264C1.15901 13.4058 1.25794 13.4077 1.35147 13.432C1.3336 13.3526 1.34192 13.2703 1.37542 13.1951C1.40892 13.1199 1.46613 13.0552 1.54 13.0089C1.61909 12.9574 1.71259 12.9267 1.80998 12.9204C1.90737 12.9141 2.0048 12.9323 2.09128 12.9731C2.06948 12.898 2.07534 12.8186 2.108 12.7468C2.14066 12.675 2.19834 12.6146 2.27239 12.5748C2.36126 12.5125 2.46912 12.4759 2.58164 12.47C2.69415 12.4642 2.80599 12.4892 2.90229 12.5419C2.87312 12.2823 2.99722 12.0792 3.28241 12.0314C3.42614 12.0115 3.57303 12.0387 3.69628 12.1081C3.81953 12.1776 3.91093 12.2845 3.9538 12.4095L3.99729 12.5509C4.01379 12.546 4.03062 12.5421 4.04767 12.539C4.37528 12.4817 4.78284 12.3916 5.04695 12.5748C5.14783 12.6563 5.22823 12.7563 5.28281 12.8679C5.47572 13.1979 5.67446 13.5531 5.63031 13.9239C5.5965 14.2082 5.42348 14.4612 5.3088 14.7279C5.19411 14.9945 5.14585 15.3207 5.33956 15.5474L5.35056 15.5604C4.71708 15.8205 3.5359 16.3779 3.09122 16.6282C3.01091 16.4476 2.86185 16.2987 2.67067 16.2079C2.57243 16.1706 2.46384 16.1602 2.36573 16.1234C2.3534 16.12 2.34292 16.1157 2.33245 16.111Z" fill="white"/>
<path d="M5.56715 15.4277C5.2821 15.0629 5.69682 14.5835 5.8237 14.2318C6.00348 13.7335 5.80726 13.263 5.55177 12.8193C5.43682 12.6198 5.31312 12.4186 5.07912 12.3155C4.85148 12.2281 4.5998 12.2046 4.35707 12.2481C4.12185 12.2596 3.89255 12.3187 3.6862 12.4209C3.58427 12.4764 3.49877 12.5533 3.437 12.6449C3.37522 12.7366 3.339 12.8403 3.33141 12.9473C3.32704 13.0552 3.35263 13.1623 3.40587 13.2591C3.45911 13.3559 3.53833 13.4392 3.63635 13.5015C3.73374 13.5464 3.83826 13.5773 3.9462 13.5934C3.97997 13.6058 4.01583 13.613 4.05226 13.6147C4.12306 13.6016 4.02323 13.5909 4.04113 13.5845C4.04603 13.5828 4.08514 13.7687 4.08766 13.7852C4.10668 13.8461 4.1516 13.8977 4.21268 13.929C4.27377 13.9602 4.34608 13.9686 4.41395 13.9522C4.48083 13.9341 4.5374 13.8935 4.57195 13.8389C4.6065 13.7843 4.61639 13.7198 4.59957 13.6588C4.5879 13.5364 4.54692 13.4177 4.47944 13.3109C4.44267 13.2655 4.39567 13.2277 4.34152 13.1998C4.28737 13.172 4.2273 13.1547 4.16522 13.1492C4.03158 13.122 3.80725 13.1164 3.86267 12.9307C3.91146 12.7668 4.21693 12.7498 4.36211 12.7271C4.57835 12.6935 4.82721 12.6668 4.96536 12.8496C5.12439 13.0637 5.24551 13.2988 5.32439 13.5464C5.39529 13.7866 5.36728 14.0418 5.24551 14.2649C5.03695 14.7038 4.75919 15.22 5.10988 15.6688C5.30464 15.9181 5.76457 15.68 5.56782 15.4281L5.56715 15.4277Z" fill="#211715"/>
<path d="M4.20823 12.3459C4.14596 12.1645 4.01315 12.0094 3.83411 11.9088C3.65506 11.8083 3.44175 11.7691 3.23322 11.7984C3.04679 11.83 2.88094 11.9247 2.7698 12.063C2.65866 12.2013 2.6107 12.3726 2.6358 12.5417L3.03474 12.3358C2.90306 12.2679 2.75341 12.2334 2.60167 12.2359C2.44993 12.2384 2.30178 12.2778 2.17295 12.35C2.05079 12.409 1.95183 12.5005 1.88955 12.612C1.82728 12.7235 1.80471 12.8495 1.82492 12.9729L2.22386 12.767C1.6405 12.5285 0.986206 12.9003 1.09453 13.4956L1.42081 13.2021C1.20814 13.1516 0.981906 13.1783 0.790922 13.2765C0.599937 13.3747 0.459507 13.5364 0.399926 13.7269C0.285374 14.1192 0.565521 14.453 0.85243 14.72C1.10169 14.9521 1.43261 15.3087 1.81578 15.3198C2.29758 15.3337 2.62241 14.9276 2.5772 14.5193L2.24044 14.7493C2.80948 14.8976 3.32046 14.5227 3.37296 14.0141L3.03739 14.2441C3.30256 14.3187 3.65841 14.3101 3.88115 14.1451C3.99835 14.0533 4.0758 13.9273 4.09986 13.7893C4.12392 13.6512 4.09304 13.5099 4.01267 13.3903C3.85251 13.119 3.39457 13.3598 3.55473 13.631C3.68201 13.8463 3.30839 13.8208 3.17833 13.7841C3.13899 13.775 3.09787 13.774 3.05806 13.7813C3.01825 13.7885 2.98078 13.8038 2.94847 13.8259C2.91616 13.8481 2.88985 13.8765 2.87152 13.9091C2.85319 13.9417 2.84331 13.9776 2.84263 14.0141C2.83789 14.0618 2.8213 14.1078 2.79411 14.1489C2.76691 14.1899 2.72979 14.225 2.6855 14.2514C2.64122 14.2778 2.59089 14.295 2.53824 14.3015C2.4856 14.3081 2.43199 14.304 2.38137 14.2894C2.34202 14.2799 2.3008 14.2787 2.26085 14.2859C2.2209 14.293 2.18329 14.3082 2.15091 14.3304C2.11852 14.3526 2.09221 14.3812 2.07399 14.4139C2.05577 14.4467 2.04613 14.4828 2.04581 14.5194C2.06251 14.6698 1.98522 14.9153 1.76566 14.8217C1.57925 14.7423 1.40039 14.5414 1.25614 14.4102C1.12621 14.292 0.916865 14.1165 0.900557 13.9408C0.897393 13.8978 0.90569 13.8548 0.924755 13.8153C0.94382 13.7758 0.973103 13.741 1.01016 13.7137C1.04722 13.6865 1.09099 13.6676 1.13781 13.6586C1.18463 13.6497 1.23316 13.6509 1.27935 13.6622C1.32441 13.6723 1.37163 13.6718 1.4164 13.6606C1.46116 13.6495 1.50195 13.6281 1.53479 13.5985C1.56763 13.569 1.5914 13.5323 1.6038 13.492C1.61619 13.4517 1.61677 13.4093 1.6055 13.3687C1.57527 13.2025 1.81644 13.1218 1.95578 13.1788C2.11409 13.2435 2.38323 13.1719 2.35486 12.9729C2.34001 12.8691 2.33775 12.8151 2.44011 12.7619C2.48709 12.7311 2.54305 12.7134 2.60109 12.7109C2.65913 12.7083 2.71673 12.7211 2.76679 12.7477C2.8072 12.7682 2.85285 12.7789 2.89926 12.7788C2.94567 12.7786 2.99124 12.7676 3.03149 12.7469C3.07174 12.7261 3.1053 12.6963 3.12886 12.6603C3.15242 12.6243 3.16517 12.5835 3.16586 12.5417C3.15526 12.4134 3.16772 12.2924 3.32947 12.2657C3.40789 12.2563 3.48746 12.2719 3.55448 12.3097C3.62149 12.3475 3.67175 12.4051 3.69659 12.4727C3.80107 12.7637 4.31323 12.6396 4.20796 12.3459H4.20823Z" fill="#211715"/>
<path d="M1.15032 13.5966C1.41763 13.9492 1.70635 14.2883 2.01516 14.6123C2.06508 14.6567 2.13247 14.6816 2.2027 14.6816C2.27293 14.6816 2.34032 14.6567 2.39024 14.6123C2.43835 14.5668 2.46519 14.5064 2.46519 14.4437C2.46519 14.3809 2.43835 14.3205 2.39024 14.275C2.30896 14.1906 2.23034 14.1043 2.15305 14.017C2.13484 13.9965 2.11672 13.9758 2.09869 13.9551L2.0662 13.9178C2.06077 13.9114 2.02908 13.8747 2.0548 13.9046C2.08052 13.9346 2.0491 13.898 2.04367 13.8915L2.01224 13.8546C1.99328 13.8321 1.97446 13.8098 1.95576 13.7874C1.83644 13.6455 1.72003 13.5022 1.60826 13.3558C1.59069 13.3288 1.56736 13.3051 1.53962 13.2862C1.51187 13.2673 1.48025 13.2534 1.44656 13.2455C1.41287 13.2375 1.37777 13.2356 1.34326 13.2399C1.30876 13.2441 1.27552 13.2545 1.24545 13.2703C1.21538 13.2861 1.18907 13.3071 1.16802 13.332C1.14696 13.357 1.13158 13.3854 1.12275 13.4157C1.11391 13.446 1.1118 13.4776 1.11653 13.5086C1.12127 13.5397 1.13275 13.5696 1.15032 13.5966Z" fill="#211715"/>
<path d="M1.91901 13.1535C2.21547 13.4794 2.5342 13.7884 2.83065 14.1143C2.88048 14.1588 2.94788 14.1838 3.01812 14.1838C3.08837 14.1838 3.15577 14.1588 3.2056 14.1143C3.25356 14.0688 3.2803 14.0084 3.2803 13.9457C3.2803 13.8829 3.25356 13.8226 3.2056 13.7771C2.90914 13.4511 2.59041 13.142 2.29396 12.8161C2.24413 12.7716 2.17673 12.7466 2.10649 12.7466C2.03624 12.7466 1.96884 12.7716 1.91901 12.8161C1.87104 12.8617 1.8443 12.922 1.8443 12.9848C1.8443 13.0476 1.87104 13.1079 1.91901 13.1535Z" fill="#211715"/>
<path d="M2.78227 12.7502C2.69503 12.6906 2.7588 12.7343 2.77882 12.7495C2.79566 12.7625 2.8121 12.7758 2.82841 12.7892C2.86354 12.8182 2.89775 12.8481 2.93129 12.8787C3.01164 12.9514 3.08867 13.0271 3.16331 13.1047C3.20309 13.146 3.24211 13.188 3.28038 13.2306C3.29696 13.2491 3.31313 13.2682 3.32984 13.2866C3.26991 13.2202 3.33633 13.2946 3.35039 13.3119C3.40986 13.3822 3.46331 13.4565 3.51028 13.5341C3.54618 13.5883 3.60434 13.6277 3.67223 13.6437C3.74012 13.6597 3.81228 13.6511 3.87316 13.6197C3.9327 13.5868 3.97582 13.5345 3.99353 13.4737C4.01124 13.4129 4.00217 13.3483 3.96822 13.2933C3.84753 13.1039 3.70328 12.9275 3.53826 12.7674C3.39236 12.6096 3.22872 12.4657 3.04996 12.3381C3.01938 12.3221 2.98556 12.3117 2.95047 12.3077C2.91539 12.3036 2.87975 12.3058 2.84565 12.3143C2.81203 12.3225 2.78056 12.3367 2.75303 12.3559C2.7255 12.3752 2.70246 12.3991 2.68522 12.4263C2.66798 12.4536 2.65688 12.4836 2.65256 12.5147C2.64824 12.5458 2.65078 12.5774 2.66003 12.6076C2.68205 12.6661 2.72487 12.7164 2.78187 12.7507L2.78227 12.7502Z" fill="#211715"/>
<path d="M0.9801 14.8595C1.0507 15.0594 1.15435 15.2487 1.28756 15.4209C1.42647 15.6183 1.58158 15.806 1.7516 15.9826C1.92077 16.1729 2.14903 16.3136 2.40735 16.3869C2.53262 16.4037 2.64674 16.4611 2.7282 16.5483C2.80862 16.6516 2.87607 16.7626 2.92933 16.8793C2.9652 16.9335 3.02335 16.9729 3.09122 16.9889C3.1591 17.0049 3.23124 16.9962 3.29208 16.9648C3.35158 16.9318 3.39468 16.8796 3.41241 16.8188C3.43014 16.758 3.42113 16.6934 3.38727 16.6385C3.26344 16.3956 3.10792 16.1405 2.83188 16.0146C2.68525 15.9477 2.51368 15.9415 2.37712 15.8588C2.30291 15.811 2.23523 15.7556 2.17547 15.6935C2.02092 15.5413 1.88228 15.3767 1.76128 15.2016C1.69618 15.1111 1.63426 15.0186 1.57898 14.9229C1.5571 14.8849 1.53615 14.8465 1.51719 14.8071C1.54146 14.8575 1.51719 14.8063 1.51295 14.7944C1.50553 14.7736 1.49784 14.7532 1.49147 14.7321C1.40304 14.436 0.89127 14.5617 0.9801 14.8589V14.8595Z" fill="#211715"/>
<path d="M4.03278 45.1656C4.75548 45.5553 5.58916 45.8056 6.38771 46.0361C6.80972 46.1577 7.23624 46.2689 7.66766 46.3597C7.97984 46.4345 8.29969 46.4807 8.62226 46.4973C8.96366 46.5052 8.96339 46.0281 8.62226 46.0203C8.33524 46.0041 8.05087 45.9611 7.77373 45.8921C7.3545 45.8025 6.94018 45.6944 6.52997 45.5762C5.77306 45.3583 4.98671 45.1237 4.30165 44.7544C4.00812 44.5962 3.74123 45.0084 4.03397 45.1662L4.03278 45.1656Z" fill="#211715"/>
<path d="M10.9203 26.024C10.3559 26.9449 9.84547 27.8934 9.34829 28.8447C8.80868 29.877 8.28763 30.9187 7.81497 31.9778C7.37624 32.9886 7.00093 34.0208 6.6908 35.0695C6.2257 36.5872 5.74058 38.101 5.28543 39.6205C4.76292 41.3651 4.29928 43.1235 3.91094 44.8963C3.84465 45.1961 4.35629 45.3245 4.42231 45.0231C4.76703 43.4483 5.1676 41.8845 5.62404 40.3319C6.0735 38.7903 6.59919 37.2678 7.04652 35.7259C7.35583 34.6123 7.73429 33.5151 8.1801 32.4396C8.61153 31.4324 9.10407 30.4459 9.60855 29.4669C10.1654 28.3861 10.7389 27.3085 11.3787 26.2648C11.5436 25.9957 11.0858 25.7548 10.9207 26.024H10.9203Z" fill="#211715"/>
<path d="M18.8391 27.9273C18.6632 28.4639 18.3102 28.9535 17.9476 29.4028C17.4671 29.9779 16.932 30.5144 16.3484 31.0064C15.3866 31.8555 14.4893 32.7617 13.6626 33.719C13.4002 34.0188 13.1085 34.3118 12.8712 34.6278C12.6712 34.9052 12.5166 35.207 12.4123 35.524C12.402 35.5594 12.4007 35.5964 12.4087 35.6323C12.4167 35.6682 12.4336 35.7019 12.4582 35.731C12.4829 35.7601 12.5146 35.7838 12.5509 35.8003C12.5872 35.8167 12.6273 35.8255 12.6679 35.8259L12.4123 35.524C12.0852 36.9192 11.6698 38.2978 11.2108 39.662C10.7126 41.1712 10.1299 42.6568 9.46513 44.1131C9.14976 44.8055 8.79158 45.4815 8.39227 46.1379C8.22641 46.4064 8.68396 46.6473 8.85021 46.3787C9.62768 45.12 10.2194 43.766 10.7594 42.4132C11.3543 40.9235 11.8731 39.408 12.3264 37.8788C12.545 37.1407 12.7477 36.3983 12.923 35.6509C12.9331 35.6155 12.9342 35.5785 12.9261 35.5427C12.9181 35.5069 12.9011 35.4732 12.8765 35.4442C12.8519 35.4151 12.8202 35.3914 12.784 35.3749C12.7478 35.3585 12.7079 35.3496 12.6673 35.3489L12.923 35.6509C13.0162 35.3766 13.1511 35.1152 13.3241 34.8743C13.523 34.601 13.7804 34.3496 14.0053 34.0924C14.407 33.6329 14.814 33.1764 15.2418 32.7366C16.2337 31.7183 17.4017 30.8494 18.3069 29.763C18.7372 29.2468 19.1454 28.6778 19.3498 28.054C19.4465 27.759 18.9348 27.6329 18.8385 27.9273H18.8391Z" fill="#211715"/>
<path d="M10.5162 14.1477C10.0925 14.4609 9.73163 14.837 9.44919 15.2598C9.1393 15.6733 8.89953 16.1261 8.73776 16.6031C8.6069 17.0344 8.62864 17.4582 8.66258 17.8994C8.68594 18.2894 8.66466 18.6805 8.59907 19.0665C8.46649 19.9335 8.22426 20.7838 8.09937 21.6518C7.99171 22.4003 7.96559 23.2163 8.37063 23.9021C8.57249 24.2707 8.92683 24.5534 9.35771 24.6899C9.7351 24.8023 10.1275 24.8689 10.5244 24.8879C11.465 24.9476 12.4204 24.8621 13.3535 24.7568C13.863 24.6992 14.3708 24.6306 14.877 24.551C15.283 24.487 15.7213 24.3772 16.1119 24.3394C16.5739 24.2947 17.0337 24.2713 17.4654 24.1009C17.6892 24.0115 17.8879 23.8781 18.0469 23.7105C18.2058 23.543 18.3211 23.3455 18.3841 23.1327C18.6597 22.3033 18.554 21.4449 18.3385 20.6164C18.2136 20.2088 18.1263 19.7926 18.0774 19.3721C18.0535 18.9275 18.125 18.4831 18.2881 18.0629C18.3577 17.8709 18.4339 17.6813 18.5022 17.4887C18.6052 17.1953 18.0934 17.0698 17.9908 17.3619C17.8357 17.7464 17.7066 18.139 17.6043 18.5375C17.5217 18.9668 17.5231 19.4057 17.6083 19.8345C17.7599 20.6782 18.1013 21.4802 18.0089 22.3481C17.9924 22.6733 17.9016 22.992 17.7422 23.2842C17.5155 23.6373 17.0561 23.7597 16.6333 23.8138C16.4429 23.8377 16.2505 23.8466 16.0598 23.8671C15.8654 23.888 15.6761 23.9282 15.4845 23.9633C15.0356 24.0453 14.5845 24.1176 14.1313 24.1803C13.1891 24.3207 12.2373 24.4028 11.2825 24.4261C10.9184 24.4377 10.5538 24.4222 10.1925 24.3799C9.82705 24.3288 9.37124 24.266 9.10819 24.0155C8.58197 23.5146 8.52788 22.7852 8.5764 22.1313C8.63659 21.3213 8.85681 20.5278 9.01459 19.7309C9.0983 19.3329 9.15717 18.931 9.19092 18.5272C9.21863 18.1368 9.16547 17.7543 9.16136 17.3648C9.15912 16.9436 9.27179 16.5284 9.4895 16.1555C9.72455 15.7259 10.0132 15.3218 10.35 14.951C10.5132 14.78 10.6946 14.6238 10.8917 14.4846C10.941 14.4397 10.9687 14.3791 10.9687 14.3159C10.9687 14.2528 10.941 14.1922 10.8917 14.1473C10.8411 14.104 10.774 14.0798 10.7042 14.0798C10.6343 14.0798 10.5672 14.104 10.5166 14.1473L10.5162 14.1477Z" fill="#211715"/>
<path d="M11.0307 11.163C10.0893 11.2076 9.56722 11.9839 9.06234 12.5953C8.44318 13.3453 7.77337 14.0594 7.12465 14.7885C6.74122 15.2195 6.36561 15.6562 6.00684 16.1041L6.42328 16.0558C6.20642 15.8368 6.03057 15.5876 5.90263 15.3179C5.86677 15.2636 5.80859 15.2242 5.74068 15.2082C5.67278 15.1922 5.6006 15.2009 5.53975 15.2324C5.48035 15.2654 5.43734 15.3176 5.41965 15.3784C5.40195 15.4391 5.41092 15.5037 5.44469 15.5586C5.59423 15.8645 5.79811 16.1464 6.04834 16.3934C6.07734 16.4186 6.11227 16.4376 6.15055 16.449C6.18883 16.4605 6.22948 16.464 6.26947 16.4593C6.30947 16.4547 6.34779 16.442 6.3816 16.4222C6.41541 16.4025 6.44384 16.3761 6.46478 16.3451C7.20287 15.4236 8.02223 14.5601 8.80619 13.6709C9.1875 13.2382 9.54202 12.7884 9.91577 12.351C10.1892 12.0312 10.5495 11.663 11.0307 11.6403C11.3702 11.6242 11.3723 11.147 11.0307 11.1632V11.163Z" fill="#211715"/>
<path d="M5.53003 15.2082C4.9935 15.4057 4.47078 15.6323 3.96476 15.8868C3.68767 16.0179 3.41163 16.1511 3.1405 16.2922C2.97248 16.3653 2.81762 16.4606 2.6811 16.5751C2.60257 16.6493 2.55396 16.7451 2.54305 16.8472C2.53214 16.9492 2.55955 17.0516 2.62091 17.1379C2.74023 17.3508 2.86459 17.5619 2.99028 17.7721C3.24736 18.2024 3.51597 18.6275 3.80354 19.042C4.06524 19.4552 4.3683 19.8461 4.70895 20.2098C4.96735 20.4625 5.36099 20.5675 5.73116 20.5933C6.18866 20.6077 6.64585 20.5577 7.08616 20.445C7.59501 20.319 8.08354 20.1341 8.53953 19.8951C8.83784 19.7459 8.57068 19.3337 8.27184 19.4832C7.55722 19.8558 6.75566 20.0732 5.9311 20.1178C5.66517 20.1411 5.3984 20.0817 5.17538 19.9493C5.04447 19.8432 4.93198 19.7199 4.84167 19.5838C4.69141 19.3956 4.54667 19.2039 4.40746 19.0087C4.14229 18.6381 3.8933 18.2574 3.65532 17.8725C3.54554 17.6949 3.43793 17.516 3.33248 17.3359C3.27538 17.2384 3.21868 17.1408 3.16237 17.043C3.13453 16.9945 3.10629 16.9459 3.07898 16.8971C3.00633 16.7672 3.05671 16.9784 3.07514 16.8917C3.07752 16.8807 3.15734 16.8371 3.06559 16.8955C3.09118 16.8792 3.11703 16.8632 3.14328 16.8478C3.22973 16.7971 3.31895 16.7504 3.40845 16.704C3.6471 16.5803 3.88826 16.4629 4.13102 16.3471C4.43252 16.2033 4.73631 16.0636 5.0424 15.9279C5.16729 15.8728 5.29271 15.8184 5.4192 15.7661C5.47435 15.7433 5.52981 15.721 5.58559 15.699C5.65572 15.6716 5.53759 15.716 5.60282 15.6925C5.62563 15.6844 5.64843 15.6762 5.67137 15.6686C5.73819 15.6504 5.7947 15.6098 5.82924 15.5553C5.86377 15.5007 5.8737 15.4363 5.85698 15.3753C5.8379 15.3145 5.79299 15.2629 5.73196 15.2317C5.67093 15.2004 5.59868 15.192 5.53083 15.2083L5.53003 15.2082Z" fill="#211715"/>
<path d="M18.2793 29.6706C18.465 30.398 18.3668 31.1866 18.3228 31.9244C18.3131 32.0877 18.2467 32.3442 18.3352 32.4925C18.3874 32.5739 18.4558 32.646 18.5369 32.7052C18.7466 32.8522 18.9801 32.9693 19.2294 33.0523C19.9952 33.3419 20.7806 33.5781 21.5301 33.9032C22.376 34.27 23.2164 34.648 24.044 35.0472C24.9527 35.4855 25.8433 35.9521 26.7156 36.4472C27.0053 36.6112 27.2717 36.1985 26.9833 36.0353C25.8415 35.3894 24.6701 34.7903 23.4689 34.238C22.8296 33.9431 22.1872 33.6498 21.5345 33.3794C20.9522 33.1382 20.3528 32.9366 19.7546 32.7302C19.5369 32.6599 19.3243 32.5774 19.1182 32.483C19.076 32.4626 19.0343 32.4414 18.9938 32.4182C18.9786 32.4097 18.9637 32.4007 18.9489 32.3918C18.9119 32.3698 18.929 32.3806 18.9209 32.3747C18.8909 32.3523 18.8623 32.3284 18.8351 32.3032C18.8296 32.298 18.7987 32.2658 18.8201 32.2898C18.8416 32.3138 18.7967 32.2576 18.7926 32.2514L18.8288 32.3719C18.8693 31.4409 19.0246 30.4629 18.7902 29.5436C18.7139 29.2445 18.2024 29.3711 18.2788 29.6703L18.2793 29.6706Z" fill="#211715"/>
<path d="M9.17566 25.2831C9.28561 26.1411 9.5215 26.9823 9.87715 27.7846C9.89737 27.8448 9.94249 27.8956 10.0032 27.9267C10.0639 27.9577 10.1355 27.9667 10.2033 27.9516C10.2709 27.9344 10.3283 27.8941 10.363 27.8392C10.3978 27.7843 10.4071 27.7193 10.3889 27.6582C10.2124 27.2369 10.0624 26.8069 9.93987 26.3703C9.8316 26.014 9.75342 25.6509 9.70599 25.284C9.70415 25.2213 9.67562 25.1616 9.62628 25.1172C9.57695 25.0729 9.51057 25.0472 9.44082 25.0455C9.37065 25.046 9.30349 25.0712 9.25386 25.1159C9.20424 25.1605 9.17615 25.2209 9.17566 25.284V25.2831Z" fill="#211715"/>
<path d="M13.2903 34.5201C13.4291 35.0338 13.7017 35.5104 14.0858 35.9106C14.457 36.309 14.9697 36.5971 15.4726 36.8437C16.1837 37.1779 16.9143 37.4774 17.6612 37.741C19.4198 38.3928 21.2114 38.9856 23.0261 39.4984C23.7506 39.7229 24.4929 39.898 25.2467 40.0221C25.3145 40.0369 25.386 40.0279 25.4466 39.9969C25.5072 39.9658 25.5524 39.9152 25.5729 39.8552C25.591 39.7942 25.5817 39.7291 25.547 39.6742C25.5123 39.6193 25.4549 39.5789 25.3872 39.5618C24.7582 39.4606 24.1379 39.3194 23.5311 39.1394C22.6595 38.9009 21.7966 38.6371 20.9391 38.3613C19.3481 37.8495 17.7461 37.3186 16.2242 36.6548C15.6868 36.4204 15.1317 36.1605 14.6913 35.7923C14.2475 35.4151 13.9376 34.9282 13.8007 34.393C13.7286 34.093 13.2173 34.2199 13.2893 34.5197L13.2903 34.5201Z" fill="#211715"/>
<path d="M26.5842 36.2407C26.5153 36.9145 26.3241 37.5736 26.0182 38.1918C25.7976 38.7037 25.4986 39.1854 25.1299 39.6228C24.9153 39.8585 25.2883 40.1979 25.5048 39.9601C25.9233 39.4731 26.2618 38.9346 26.5097 38.3609C26.84 37.6889 27.0444 36.9724 27.1145 36.2404C27.137 35.9339 26.6067 35.9352 26.5842 36.2404V36.2407Z" fill="#211715"/>
<path d="M24.8442 5.29303C24.88 5.02972 24.8023 4.76406 24.6269 4.55078C24.4515 4.33751 24.1918 4.19287 23.9014 4.14666C23.1958 4.03695 22.5281 4.26424 21.9694 4.64394C21.829 4.73934 21.7677 4.97308 21.9694 5.05584C22.2504 5.16448 22.5085 5.31588 22.7324 5.50339C22.9883 5.72508 23.1883 5.97432 23.5386 6.08212C23.7977 6.15884 24.0798 6.14076 24.3242 6.0318C24.4593 5.95998 24.5751 5.86221 24.6634 5.74547C24.7516 5.62873 24.8102 5.4959 24.8347 5.35647C24.8514 5.2955 24.8414 5.2311 24.8069 5.17653C24.7724 5.12197 24.7159 5.08137 24.6491 5.06311C24.5813 5.04685 24.509 5.05525 24.448 5.08648C24.3869 5.11772 24.342 5.16929 24.3228 5.23007C24.3026 5.34348 24.2501 5.45027 24.1705 5.54012C24.1521 5.56051 24.1274 5.5759 24.1091 5.59653C24.0949 5.61203 24.1602 5.57268 24.1199 5.58782C24.1029 5.59414 24.0024 5.63683 24.0623 5.61752C23.989 5.64771 23.9079 5.65942 23.8278 5.65138C23.7314 5.64253 23.6387 5.61313 23.5574 5.56564C23.4454 5.4907 23.3446 5.40294 23.2577 5.3046C23.1636 5.21216 23.063 5.12521 22.9566 5.04427C22.7377 4.8823 22.4955 4.74761 22.2365 4.64382V5.05632C22.6857 4.75115 23.1675 4.55224 23.726 4.60423C23.825 4.61182 23.9214 4.63682 24.0097 4.67781C24.052 4.69567 24.0906 4.71986 24.1238 4.74936C24.1447 4.76677 24.1645 4.78516 24.1832 4.80445C24.2145 4.83701 24.1815 4.7973 24.2098 4.83618C24.2601 4.90232 24.2953 4.97685 24.3132 5.05539C24.331 5.13393 24.3313 5.21489 24.3138 5.29351C24.3142 5.35667 24.3422 5.41715 24.3919 5.46181C24.4415 5.50647 24.5088 5.5317 24.579 5.53201C24.6489 5.53049 24.7154 5.50481 24.7648 5.46031C24.8142 5.4158 24.8426 5.35589 24.8442 5.29303Z" fill="#211715"/>
<path d="M21.9306 3.38118C22.0146 3.19848 22.1131 3.02152 22.2256 2.8517C22.306 2.72422 22.41 2.61004 22.5332 2.5141C22.5457 2.50432 22.5585 2.49454 22.5715 2.48536C22.5347 2.51124 22.5768 2.4825 22.5867 2.47689C22.6171 2.45948 22.647 2.44171 22.6787 2.42633C22.7607 2.38771 22.848 2.35885 22.9384 2.34047C23.0114 2.32344 23.0871 2.31724 23.1623 2.3221C23.2154 2.3233 23.1835 2.32425 23.1707 2.3221C23.1916 2.32544 23.2124 2.32986 23.2331 2.33498C23.2534 2.33987 23.2733 2.34572 23.2929 2.35251C23.2506 2.33749 23.3096 2.3617 23.3194 2.3667C23.3327 2.37362 23.4024 2.41786 23.3694 2.39389C23.4029 2.41918 23.4344 2.4466 23.4636 2.47594C23.4734 2.48536 23.4891 2.51446 23.467 2.47987C23.4755 2.49299 23.484 2.50599 23.4913 2.51959C23.4732 2.48584 23.4964 2.53461 23.4995 2.54344C23.5084 2.56836 23.5157 2.59376 23.5218 2.6194C23.5296 2.64527 23.5332 2.67202 23.5325 2.69882C23.5334 2.71909 23.5325 2.73925 23.5325 2.75964C23.5312 2.80042 23.5491 2.71194 23.5312 2.77156C23.5273 2.78456 23.5241 2.79768 23.52 2.81068C23.5165 2.82177 23.4885 2.89094 23.5068 2.85051C23.5251 2.81008 23.4935 2.87269 23.4869 2.88307C23.4817 2.89082 23.4744 2.89916 23.47 2.90751C23.4478 2.94889 23.5013 2.88366 23.4767 2.90071C23.4571 2.91467 23.4402 2.93494 23.421 2.95009C23.4854 2.89916 23.3521 2.97394 23.423 2.94913C23.4081 2.95426 23.3074 2.97525 23.3636 2.96857C23.324 2.97264 23.284 2.97324 23.2443 2.97036C23.2095 2.96841 23.1752 2.96297 23.1418 2.95414C23.078 2.94114 23.0145 2.9279 22.9501 2.91836C22.5075 2.84035 22.0493 2.87958 21.6311 3.0313C21.5645 3.04978 21.5082 3.09041 21.4737 3.14492C21.4393 3.19942 21.4292 3.26369 21.4455 3.32466C21.4644 3.38553 21.5093 3.43722 21.5704 3.46848C21.6315 3.49975 21.7038 3.50806 21.7717 3.49161C22.1601 3.34298 22.5928 3.31602 23.0003 3.41505C23.2262 3.47513 23.469 3.45661 23.6805 3.36317C23.8214 3.28771 23.9306 3.17239 23.991 3.03523C24.0685 2.86568 24.0844 2.67844 24.0364 2.50026C23.9885 2.32209 23.8792 2.16211 23.7241 2.04317C23.331 1.759 22.7841 1.81147 22.3691 2.03661C21.9236 2.27822 21.6698 2.72589 21.4723 3.14125C21.4391 3.19633 21.4304 3.26073 21.4481 3.32135C21.4657 3.38198 21.5084 3.43428 21.5674 3.46764C21.6282 3.49911 21.7004 3.50777 21.7683 3.49175C21.8361 3.47572 21.8943 3.4363 21.9301 3.38202L21.9306 3.38118Z" fill="#211715"/>
<path d="M11.292 11.6271C11.3127 11.4256 11.349 11.2256 11.3902 11.0268C11.4072 10.9448 11.4248 10.8627 11.4456 10.7814C11.4528 10.7537 11.4631 10.7258 11.4687 10.6979C11.4791 10.6466 11.4789 10.6998 11.4568 10.7171L11.3398 10.7784C11.4719 10.7557 11.6059 10.7428 11.7404 10.7398C11.8844 10.7247 12.028 10.7075 12.1713 10.6881C12.4396 10.6521 12.7062 10.6073 12.971 10.5537C13.4571 10.4542 13.9365 10.3302 14.4071 10.1824C14.6283 10.1137 14.8457 10.0365 15.0657 9.96546C15.2432 9.9081 15.4576 9.89391 15.5902 10.0382C15.8231 10.2927 15.9968 10.6986 16.1808 11.0093C16.3413 11.2803 16.7992 11.0397 16.6388 10.7685C16.5194 10.5668 16.4066 10.362 16.2868 10.1603C16.1985 9.98795 16.0845 9.82723 15.9479 9.68259C15.8492 9.59627 15.7305 9.53059 15.6004 9.49025C15.4702 9.44991 15.3318 9.4359 15.1949 9.44922C14.9255 9.47521 14.6681 9.59435 14.4146 9.6758C13.8874 9.84672 13.3489 9.98819 12.8024 10.0994C12.5078 10.1582 12.2105 10.2074 11.9114 10.2437C11.7621 10.2618 11.6123 10.2763 11.4623 10.2886C11.3032 10.3016 11.1453 10.2994 11.0381 10.4221C10.9308 10.5448 10.9139 10.7337 10.883 10.8811C10.8311 11.1279 10.7875 11.3772 10.7618 11.6274C10.7623 11.6905 10.7904 11.7509 10.84 11.7955C10.8896 11.8402 10.9568 11.8654 11.0269 11.8659C11.0968 11.8645 11.1634 11.839 11.2128 11.7946C11.2623 11.7501 11.2907 11.6902 11.2921 11.6274L11.292 11.6271Z" fill="#211715"/>
<path d="M20.1656 24.974C19.9448 25.2684 19.8678 25.9369 19.7033 26.2556C19.5653 26.5347 19.3607 26.7831 19.1039 26.983C18.8407 27.1977 18.4248 27.2378 18.0649 27.1998C17.7121 27.1625 17.3587 27.0906 17.1446 26.846C16.8058 26.8683 16.431 26.7935 16.2674 26.5099C15.985 26.5765 15.736 26.4948 15.4924 26.3231C15.413 26.2593 15.3552 26.1766 15.3258 26.0846C15.3186 25.9202 15.3456 25.756 15.4053 25.6005C15.4804 25.4096 15.605 25.2376 15.7687 25.0987C15.3507 24.9897 15.5975 24.2791 15.9711 23.8942C16.1616 23.7262 16.3938 23.6011 16.6484 23.5293C17.1491 23.3988 17.4057 23.3714 17.7298 23.3982L18.1767 22.7356L20.6221 24.0871L20.1656 24.974Z" fill="white"/>
<path d="M16.334 24.5128C16.0682 24.6205 15.8185 24.7578 15.5907 24.9215C15.3554 25.1165 15.1891 25.3695 15.1125 25.6489C15.0348 25.9381 15.0182 26.2195 15.2597 26.4521C15.3965 26.5794 15.5676 26.6728 15.7563 26.7233C15.9451 26.7737 16.1451 26.7794 16.337 26.7398L16.0377 26.6301C16.2618 26.9869 16.7116 27.1071 17.1438 27.0843L16.9563 27.0145C17.2914 27.3736 17.9203 27.4766 18.4179 27.4476C18.6816 27.4404 18.9384 27.3698 19.1614 27.2431C19.384 27.0963 19.5752 26.9145 19.7257 26.7064C20.1844 26.1035 20.2812 25.3243 20.5677 24.6528C20.5859 24.5918 20.5766 24.5267 20.5419 24.4718C20.5071 24.4169 20.4497 24.3765 20.3821 24.3594C20.3143 24.3441 20.2425 24.3529 20.1817 24.384C20.1209 24.4151 20.0758 24.4661 20.0558 24.5264C19.9429 24.7911 19.8584 25.0662 19.7668 25.3373C19.7147 25.4911 19.6626 25.645 19.6077 25.798C19.5846 25.8615 19.5612 25.925 19.5362 25.9879C19.5254 26.0154 19.5144 26.0428 19.5028 26.07C19.4981 26.0813 19.4662 26.1506 19.4831 26.116C19.3372 26.4162 19.0766 26.7957 18.7183 26.915C18.3338 27.0232 17.9181 26.997 17.5541 26.8418C17.4649 26.7876 17.3813 26.7262 17.3045 26.6584C17.197 26.5868 17.0677 26.6165 16.9427 26.6082C16.8536 26.609 16.7658 26.5893 16.6875 26.551C16.6093 26.5127 16.5432 26.457 16.4956 26.3893C16.4653 26.3446 16.4199 26.3098 16.366 26.2901C16.312 26.2703 16.2525 26.2666 16.1961 26.2796C15.9972 26.3202 15.6488 26.2379 15.5826 26.0358C15.582 26.0135 15.5835 25.9912 15.587 25.9692C15.5893 25.9406 15.5936 25.913 15.5988 25.8847C15.6129 25.7974 15.6387 25.712 15.6756 25.6303C15.855 25.2514 16.2182 25.1049 16.6017 24.9247C16.9042 24.7825 16.6364 24.3708 16.334 24.5128Z" fill="#211715"/>
<path d="M17.7297 23.1588C17.4803 23.1413 17.2294 23.1569 16.9851 23.205C16.6825 23.2531 16.3913 23.3474 16.1241 23.4839C15.887 23.6192 15.688 23.8021 15.5427 24.0183C15.3974 24.2344 15.3097 24.4779 15.2866 24.7296C15.2679 24.8561 15.2981 24.9845 15.3722 25.0934C15.4462 25.2022 15.5596 25.2849 15.6933 25.3275C15.7611 25.3443 15.8336 25.3362 15.8948 25.305C15.9559 25.2737 16.0008 25.2219 16.0195 25.1609C16.0382 25.0999 16.0292 25.0348 15.9944 24.9797C15.9597 24.9247 15.9021 24.8844 15.8343 24.8676C15.8062 24.8587 15.8104 24.8606 15.8469 24.8733C15.8366 24.8685 15.8267 24.8632 15.8172 24.8574C15.8479 24.88 15.8531 24.8827 15.8323 24.8658C15.8135 24.847 15.8169 24.8516 15.8422 24.8795C15.83 24.8585 15.8169 24.8095 15.831 24.8676C15.8258 24.8462 15.8184 24.8251 15.8132 24.8035C15.8292 24.8696 15.815 24.7946 15.8149 24.7775C15.8149 24.7515 15.8174 24.7258 15.8197 24.6999C15.8144 24.7595 15.8259 24.672 15.8286 24.6604C15.8337 24.639 15.8394 24.6177 15.8458 24.5965C15.9081 24.3809 16.0303 24.1832 16.201 24.0218C16.4226 23.8532 16.6901 23.7406 16.9761 23.6957C17.0486 23.6796 17.1219 23.6648 17.195 23.6526C17.2298 23.6469 17.2648 23.6414 17.3 23.6371C17.2442 23.644 17.3429 23.6337 17.353 23.6329C17.4783 23.6242 17.6043 23.6252 17.7294 23.6358C17.7996 23.6353 17.8667 23.61 17.9163 23.5654C17.9659 23.5208 17.994 23.4604 17.9946 23.3973C17.9932 23.3344 17.9648 23.2745 17.9154 23.23C17.866 23.1855 17.7993 23.16 17.7294 23.1588H17.7297Z" fill="#211715"/>
<path d="M22.431 21.6474C21.9646 22.5282 21.4643 23.3862 20.923 24.2351C20.8915 24.287 20.8415 24.3277 20.781 24.3508C20.7206 24.3739 20.6532 24.3779 20.5899 24.3623C19.7472 24.1254 18.3008 23.3751 17.5589 22.9379C17.8722 22.0834 18.2356 21.2444 18.6477 20.4244" fill="#F4B3B3"/>
<path d="M17.4544 12.1637C18.8033 12.8061 19.9867 13.6663 21.2079 14.4795C21.7728 14.8487 22.3041 15.2579 22.7968 15.703C23.2504 16.1204 23.7197 16.5594 23.8486 17.1494C23.897 17.3707 23.9055 17.5976 23.8738 17.8214C23.8174 18.0699 23.7298 18.3119 23.6127 18.5426C23.3475 19.1749 23.0647 19.8009 22.7642 20.4207C22.1726 21.6352 21.5115 22.8214 20.7835 23.9744C20.7589 24.0134 20.7333 24.0521 20.7094 24.0915C20.7094 24.0915 20.6646 24.1498 20.6895 24.123C20.6516 24.1638 20.6497 24.1293 20.6808 24.1349C20.651 24.1288 20.6216 24.1212 20.5927 24.112C20.4753 24.0763 20.3593 24.0367 20.245 23.9928C19.939 23.8769 19.6413 23.7424 19.3477 23.6031C18.7822 23.3353 18.228 23.0452 17.693 22.7309L17.8149 23.0001C18.2107 21.9012 18.6976 20.8306 19.2716 19.7973C19.3968 19.5733 19.5272 19.3515 19.667 19.1346C19.7669 19.0005 19.8397 18.8516 19.882 18.6948C19.9375 18.4797 19.905 18.2537 19.7903 18.0584C19.6527 17.8478 19.3964 17.7517 19.1754 17.6273C18.5983 17.2882 18.0557 16.9038 17.5538 16.4787C17.3012 16.2732 16.9251 16.6099 17.1789 16.816C17.6208 17.1858 18.0889 17.5296 18.5801 17.8452C18.7969 17.9803 19.036 18.0878 19.2507 18.2238C19.3043 18.2655 19.3438 18.3198 19.3649 18.3806C19.386 18.4414 19.3878 18.5063 19.3701 18.568C19.3636 18.6026 19.3545 18.6368 19.3427 18.6703C19.3369 18.6874 19.2999 18.7595 19.3295 18.7097C19.2798 18.7953 19.2198 18.8766 19.1665 18.9601C19.0386 19.1622 18.9184 19.3682 18.8025 19.5762C18.5282 20.0688 18.2794 20.5728 18.0446 21.0815C17.773 21.67 17.5235 22.267 17.3036 22.8728C17.2889 22.9235 17.2928 22.9771 17.3147 23.0257C17.3367 23.0742 17.3756 23.1151 17.4255 23.1422C17.9326 23.4403 18.4571 23.7158 18.9915 23.9722C19.2685 24.105 19.5484 24.2325 19.8356 24.348C20.075 24.4446 20.37 24.5938 20.637 24.6086C21.0171 24.6297 21.172 24.3259 21.3299 24.0732C21.525 23.7613 21.715 23.447 21.9 23.1304C22.2613 22.513 22.6036 21.887 22.9269 21.2523C23.2647 20.589 23.5822 19.9177 23.8795 19.2383C24.1151 18.701 24.418 18.1566 24.4204 17.568C24.4239 17.284 24.3746 17.0015 24.2746 16.7321C24.1461 16.4315 23.9583 16.1542 23.7201 15.9137C23.2413 15.3973 22.7041 14.9269 22.1173 14.5102C21.8032 14.2827 21.476 14.0722 21.1537 13.8543C20.7778 13.6006 20.4112 13.3364 20.032 13.0864C19.2993 12.591 18.5274 12.1443 17.7225 11.7499C17.421 11.6068 17.1524 12.0179 17.4548 12.1618L17.4544 12.1637Z" fill="#211715"/>
<path d="M16.3393 11.1189C16.4176 11.1463 16.4942 11.1773 16.5688 11.2121C16.6545 11.251 16.7382 11.2934 16.8199 11.3392C16.8969 11.3824 16.972 11.4284 17.0453 11.4772C17.0958 11.5108 17.1629 11.5606 17.2343 11.6173C17.5107 11.839 17.752 12.0937 17.9517 12.3742C17.9883 12.4277 18.0465 12.4665 18.114 12.4824C18.1816 12.4983 18.2534 12.4902 18.3145 12.4597C18.3747 12.4273 18.4184 12.375 18.4362 12.314C18.454 12.253 18.4445 12.1882 18.4097 12.1334C17.9541 11.4722 17.279 10.9564 16.4798 10.659C16.412 10.6424 16.3396 10.6507 16.2785 10.682C16.2174 10.7133 16.1725 10.765 16.1537 10.8259C16.137 10.8869 16.1469 10.9513 16.1814 11.0059C16.216 11.0605 16.2725 11.1011 16.3393 11.1193V11.1189Z" fill="#211715"/>
</g>
<defs>
<clipPath id="clip0_40_103">
<rect width="31" height="50" fill="white"/>
</clipPath>
</defs>
</svg>
