<svg width="50" height="50" viewBox="0 0 50 50" fill="none" xmlns="http://www.w3.org/2000/svg">
<g clip-path="url(#clip0_43_248)">
<path d="M13.0827 0H-0.00964355V50H13.0827V0Z" fill="#00DDC0"/>
<path d="M13.0828 0H6.53662V50H13.0828V0Z" fill="#00AC93"/>
<path d="M26.1751 0H13.0828V50H26.1751V0Z" fill="#FFAD1D"/>
<path d="M26.1764 0H19.6302V50H26.1764V0Z" fill="#FF8900"/>
<path d="M13.0827 42.7244H-0.00964355V49.999H13.0827V42.7244Z" fill="#006659"/>
<path d="M13.0828 42.7244H6.53662V49.999H13.0828V42.7244Z" fill="#005349"/>
<path d="M26.1751 42.7244H13.0828V49.999H26.1751V42.7244Z" fill="#FF4F18"/>
<path d="M26.1764 42.7244H19.6302V49.999H26.1764V42.7244Z" fill="#FF3400"/>
<path d="M37.5651 49.9525L50.0083 47.8444L38.78 0.326238L26.3368 2.43434L37.5651 49.9525Z" fill="#00A5FF"/>
<path d="M43.7863 48.898L50.0079 47.844L38.7796 0.325872L32.558 1.37992L43.7863 48.898Z" fill="#0082D2"/>
<path d="M50.0087 47.8408L37.5666 49.9492L35.8793 42.8095L48.3267 40.7235L50.0087 47.8408Z" fill="#006DF3"/>
<path d="M50.0086 47.8408L43.7877 48.895L42.1029 41.7665L48.3266 40.7235L50.0086 47.8408Z" fill="#005FD1"/>
<path d="M9.14183 5H4.00708V8.26081H9.14183V5Z" fill="white"/>
<path d="M9.14147 5H6.5741V8.26081H9.14147V5Z" fill="#E1E1E4"/>
<path d="M22.2353 5H17.1006V8.26081H22.2353V5Z" fill="white"/>
<path d="M22.236 5H19.6302V8.26081H22.236V5Z" fill="#E1E1E4"/>
<path d="M31.37 6.70704L32.1002 9.90894L36.9861 9.11009L36.2559 5.90819L31.37 6.70704Z" fill="white"/>
<path d="M34.4817 9.51933L33.726 6.3217L36.2555 5.90833L36.9855 9.10996L34.4817 9.51933Z" fill="#E1E1E4"/>
</g>
<defs>
<clipPath id="clip0_43_248">
<rect width="50" height="50" fill="white"/>
</clipPath>
</defs>
</svg>
