<svg width="77" height="50" viewBox="0 0 77 50" fill="none" xmlns="http://www.w3.org/2000/svg">
<g clip-path="url(#clip0_43_175)">
<path d="M58.371 12.2435C58.371 9.47323 58.371 4.86414 58.371 3.48323C51.8531 1.11232 45.1765 -0.0733643 38.5 -0.0733643C31.8235 -0.0733643 25.1469 1.11232 18.629 3.483C18.629 4.86413 18.629 9.47322 18.629 12.2432H0V14.0028H18.629H24.8388H52.1614H58.3711H77V12.2432H58.371V12.2435ZM19.871 12.2435V4.85664C25.9646 2.75232 32.2269 1.68618 38.5 1.68618C44.7731 1.68618 51.0354 2.75232 57.129 4.85664V12.2435H19.871Z" fill="#826E77"/>
<path d="M52.1613 14.0031V45.6746H77V14.0031H58.371H52.1613ZM65.2017 30.7185V28.0792V17.5219H75.1371V28.0792V30.7185V41.2758H72.6532H65.2015V30.7185H65.2017ZM63.9597 28.0792V30.7185V41.2758H61.4758H54.0242V30.7185V28.0792V17.5219H63.9596L63.9597 28.0792Z" fill="#DFD0C6"/>
<path d="M24.8388 14.0031H18.629H0V45.6746H24.8388V14.0031ZM11.7983 28.0792V30.7185V41.2758H9.31459H1.86292V30.7185V28.0792V17.5219H11.7983V28.0792ZM22.9758 28.0792V30.7185V41.2758H20.4919H13.0403V30.7185V28.0792V17.5219H22.9757L22.9758 28.0792Z" fill="#DFD0C6"/>
<path d="M26.7017 45.6746V30.7185V28.0792V17.5221H50.2983V28.0792V30.7185V38.6365V45.6746H52.1612V14.0031H24.8387V45.6746H26.7017Z" fill="#A08A8A"/>
<path d="M1.86292 17.5221V28.0791H9.31459L1.86292 17.5221Z" fill="#95FFFF"/>
<path d="M1.86292 41.2758H9.31459L1.86292 30.7185V41.2758Z" fill="#95FFFF"/>
<path d="M13.0403 41.2758H20.492L13.0403 30.7185V41.2758Z" fill="#95FFFF"/>
<path d="M13.0403 17.5221V28.0791H20.492L13.0403 17.5221Z" fill="#95FFFF"/>
<path d="M50.2983 38.6365L44.7097 30.7185V45.6746V50.0735H50.2983V45.6746V38.6365Z" fill="#95FFFF"/>
<path d="M32.2903 38.6365L26.7017 30.7185V45.6746V50.0735H32.2903V45.6746V38.6365Z" fill="#95FFFF"/>
<path d="M34.1532 28.0791L26.7017 17.5221V28.0791H32.2903H34.1532Z" fill="#95FFFF"/>
<path d="M54.0242 41.2758H61.4758L54.0242 30.7185V41.2758Z" fill="#95FFFF"/>
<path d="M54.0242 17.5221V28.0791H61.4758L54.0242 17.5221Z" fill="#95FFFF"/>
<path d="M65.2017 30.7185V41.2758H72.6532L65.2017 30.7185Z" fill="#95FFFF"/>
<path d="M65.2017 17.5221V28.0791H72.6532L65.2017 17.5221Z" fill="#95FFFF"/>
<path d="M24.8388 45.6746H0V50.0734H24.8388V45.6746Z" fill="#C8B2A8"/>
<path d="M77 45.6746H52.1613V50.0734H77V45.6746Z" fill="#C8B2A8"/>
<path d="M1.86292 28.0791V30.7184H11.7983V28.0791H9.31459H1.86292Z" fill="#6EB1E2"/>
<path d="M13.0403 28.0791V30.7184H22.9758V28.0791H20.492H13.0403Z" fill="#6EB1E2"/>
<path d="M54.0242 28.0791V30.7184H63.9597V28.0791H61.4758H54.0242Z" fill="#6EB1E2"/>
<path d="M32.2904 28.0791H26.7017V30.7184H32.2904V28.0791Z" fill="#6EB1E2"/>
<path d="M50.2985 28.0791H44.7097V30.7184H50.2985V28.0791Z" fill="#6EB1E2"/>
<path d="M75.1371 28.0791H72.6532H65.2017V30.7184H75.1371V28.0791Z" fill="#6EB1E2"/>
<path d="M9.31459 28.0791H11.7983V17.5221H1.86292L9.31459 28.0791Z" fill="#80D7F0"/>
<path d="M20.492 28.0791H22.9758V17.5221H13.0403L20.492 28.0791Z" fill="#80D7F0"/>
<path d="M9.31459 41.2758H11.7983V30.7185H1.86292L9.31459 41.2758Z" fill="#80D7F0"/>
<path d="M20.492 41.2758H22.9758V30.7185H13.0403L20.492 41.2758Z" fill="#80D7F0"/>
<path d="M61.4758 28.0791H63.9597V17.5221H54.0242L61.4758 28.0791Z" fill="#80D7F0"/>
<path d="M75.1371 28.0791V17.5221H65.2017L72.6532 28.0791H75.1371Z" fill="#80D7F0"/>
<path d="M61.4758 41.2758H63.9597V30.7185H54.0242L61.4758 41.2758Z" fill="#80D7F0"/>
<path d="M75.1371 41.2758V30.7185H65.2017L72.6532 41.2758H75.1371Z" fill="#80D7F0"/>
<path d="M34.1532 28.0791H32.2903V30.7184V38.6364V45.6746H34.1532V30.7184H42.8468V43.0352V45.6746H44.7097V30.7184V28.0791H34.1532Z" fill="#A08A8A"/>
<path d="M34.1532 30.7185L42.8468 43.0353V30.7185H34.1532Z" fill="#80D7F0"/>
<path d="M38.5 1.68616C32.2269 1.68616 25.9646 2.75229 19.871 4.85661V12.2434H57.129V4.85661C51.0354 2.75252 44.7731 1.68616 38.5 1.68616ZM23.5326 9.65048C22.9449 9.65048 22.5483 9.21161 22.5227 8.53252L22.5206 8.47456H22.9864L22.9903 8.52343C23.0159 8.84888 23.2453 9.06752 23.5609 9.06752C23.8586 9.06752 24.0748 8.85616 24.0748 8.56479C24.0748 8.31184 23.9473 8.16411 23.6347 8.05502L23.3047 7.94252C22.8169 7.7757 22.5899 7.44934 22.5899 6.91593C22.5899 6.26502 22.9871 5.81025 23.5557 5.81025C24.1161 5.81025 24.5014 6.25411 24.5146 6.91456L24.5157 6.97116H24.0553L24.0521 6.92116C24.0314 6.59547 23.839 6.39343 23.5504 6.39343C23.2643 6.39343 23.0718 6.58843 23.0718 6.87866C23.0718 7.10275 23.1972 7.23797 23.505 7.3457L23.7858 7.4432C24.3251 7.62388 24.5553 7.93911 24.5553 8.49729C24.555 9.20843 24.1632 9.65048 23.5326 9.65048ZM27.0084 9.59025H26.5352V7.99138H25.3043V9.59025H24.8311V5.87002H25.3043V7.39638H26.5352V5.87002H27.0084V9.59025ZM28.5381 9.65048C27.7779 9.65048 27.3056 8.91525 27.3056 7.73161C27.3056 6.54638 27.7779 5.81025 28.5381 5.81025C29.2985 5.81025 29.7708 6.54638 29.7708 7.73161C29.7708 8.91502 29.2983 9.65048 28.5381 9.65048ZM31.0918 8.35684H30.5408V9.59025H30.0675V5.87002H31.1041C31.622 5.87002 31.9836 6.38025 31.9836 7.11093C31.9836 7.84456 31.617 8.35684 31.0918 8.35684ZM33.2751 8.35684H32.724V9.59025H32.2508V5.87002H33.2874C33.8052 5.87002 34.1668 6.38025 34.1668 7.11093C34.1668 7.84456 33.8001 8.35684 33.2751 8.35684ZM34.9073 9.59025H34.4341V5.87002H34.9073V9.59025ZM37.455 9.59025H37.0392L35.7614 7.01752V9.59025H35.2987V5.87002H35.7161L36.9921 8.44161V5.87002H37.4547V9.59025H37.455ZM40.1183 8.03411C40.1183 9.04616 39.6932 9.65048 38.9811 9.65048C38.2241 9.65048 37.7539 8.90843 37.7539 7.71388C37.7539 6.53956 38.2222 5.81002 38.9758 5.81002C39.5562 5.81002 40.0073 6.30888 40.0982 7.05138L40.1061 7.11593H39.625L39.6167 7.07684C39.5265 6.65343 39.2934 6.41047 38.9774 6.41047C38.513 6.41047 38.2356 6.89593 38.2356 7.70888C38.2356 8.53593 38.5226 9.05002 38.9845 9.05002C39.3776 9.05002 39.6452 8.7007 39.6502 8.18115V8.17434H38.9915V7.61161H40.1181L40.1183 8.03411ZM43.4939 8.42207C43.3938 9.19116 42.9748 9.65048 42.3733 9.65048C41.6294 9.65048 41.1672 8.91411 41.1672 7.72888C41.1672 6.5632 41.6406 5.81002 42.3733 5.81002C42.9732 5.81002 43.423 6.33388 43.4925 7.11388L43.4979 7.1757H43.0306L43.0241 7.13229C42.9572 6.69366 42.7016 6.41025 42.3733 6.41025C41.9334 6.41025 41.6491 6.92775 41.6491 7.72866C41.6491 8.54366 41.9273 9.04979 42.375 9.04979C42.7121 9.04979 42.9488 8.81229 43.0244 8.3982L43.0319 8.35706H43.5024L43.4939 8.42207ZM45.4675 6.46297H44.2455V7.40888H45.4021V7.98411H44.2455V8.99479H45.4675V9.59025H43.7723V5.87002H45.4675V6.46297ZM47.9509 9.59025H47.5351L46.2574 7.01752V9.59025H45.7948V5.87002H46.2122L47.4883 8.44184V5.87002H47.9509V9.59025ZM50.254 6.46297H49.4611V9.59047H48.9879V6.46297H48.1932V5.87025H50.2539V6.46297H50.254ZM52.1935 6.46297H50.9714V7.40888H52.1282V7.98411H50.9714V8.99479H52.1935V9.59025H50.4982V5.87002H52.1935V6.46297ZM54.0092 9.59025L53.4901 8.20184H52.9943V9.59025H52.5211V5.87002H53.5612C54.1018 5.87002 54.4512 6.32479 54.4512 7.02843C54.4512 7.52025 54.2694 7.92047 53.9736 8.08888L54.5556 9.59025H54.0092Z" fill="#695A69"/>
<path d="M28.5381 6.41296C28.0752 6.41296 27.7875 6.91819 27.7875 7.7316C27.7875 8.54342 28.0752 9.04751 28.5381 9.04751C29 9.04751 29.287 8.54319 29.287 7.7316C29.287 6.91819 29 6.41296 28.5381 6.41296Z" fill="#695A69"/>
<path d="M33.1832 6.453H32.7241V7.77664H33.1832C33.5066 7.77664 33.6848 7.54118 33.6848 7.11368C33.6848 6.68755 33.5067 6.453 33.1832 6.453Z" fill="#695A69"/>
<path d="M31.0001 6.453H30.541V7.77664H31.0001C31.3235 7.77664 31.5017 7.54118 31.5017 7.11368C31.5017 6.68755 31.3235 6.453 31.0001 6.453Z" fill="#695A69"/>
<path d="M53.5134 6.45044H52.9941V7.63885H53.524C53.8099 7.63885 53.9672 7.42748 53.9672 7.04339C53.9672 6.67226 53.7975 6.45044 53.5134 6.45044Z" fill="#695A69"/>
<path d="M26.7017 45.6746H24.8387V50.0734H26.7017V45.6746Z" fill="#826E77"/>
<path d="M52.1613 45.6746H50.2983V50.0734H52.1613V45.6746Z" fill="#826E77"/>
<path d="M44.7097 45.6746H42.8468V50.0734H44.7097V45.6746Z" fill="#826E77"/>
<path d="M34.1532 45.6746H32.2903V50.0734H34.1532V45.6746Z" fill="#826E77"/>
<path d="M44.7097 28.0791H50.2983V17.5221H26.7017L34.1532 28.0791H44.7097Z" fill="#80D7F0"/>
<path d="M26.7017 30.7185L32.2903 38.6365V30.7185H26.7017Z" fill="#80D7F0"/>
<path d="M44.7097 30.7185L50.2983 38.6365V30.7185H44.7097Z" fill="#80D7F0"/>
<path d="M42.8468 43.0353L34.1532 30.7185V45.6746V50.0735H42.8468V45.6746V43.0353Z" fill="#95FFFF"/>
<path d="M23.7856 7.44277L23.5049 7.34527C23.1972 7.23754 23.0716 7.10232 23.0716 6.87822C23.0716 6.588 23.2639 6.39299 23.5503 6.39299C23.839 6.39299 24.0312 6.59527 24.0519 6.92072L24.0551 6.97072H24.5155L24.5144 6.91413C24.5012 6.25368 24.1159 5.80981 23.5556 5.80981C22.9869 5.80981 22.5897 6.26458 22.5897 6.91549C22.5897 7.44913 22.8168 7.77527 23.3045 7.94209L23.6345 8.05459C23.9471 8.16368 24.0747 8.31118 24.0747 8.56436C24.0747 8.85572 23.8586 9.06709 23.5607 9.06709C23.245 9.06709 23.0156 8.84845 22.9901 8.523L22.9862 8.47413H22.5204L22.5225 8.53209C22.5483 9.21118 22.9447 9.65004 23.5325 9.65004C24.1631 9.65004 24.5548 9.20822 24.5548 8.49663C24.555 7.9389 24.3248 7.62345 23.7856 7.44277Z" fill="#FFF7E7"/>
<path d="M26.5353 7.39636H25.3043V5.87H24.8312V9.59022H25.3043V7.99158H26.5353V9.59022H27.0084V5.87H26.5353V7.39636Z" fill="#FFF7E7"/>
<path d="M28.5381 5.8103C27.7779 5.8103 27.3057 6.54644 27.3057 7.73167C27.3057 8.9153 27.7779 9.65053 28.5381 9.65053C29.2985 9.65053 29.7708 8.9153 29.7708 7.73167C29.7708 6.54644 29.2984 5.8103 28.5381 5.8103ZM28.5381 9.04758C28.0752 9.04758 27.7876 8.54326 27.7876 7.73167C27.7876 6.91848 28.0752 6.41303 28.5381 6.41303C29 6.41303 29.287 6.91826 29.287 7.73167C29.287 8.54326 29 9.04758 28.5381 9.04758Z" fill="#FFF7E7"/>
<path d="M31.1042 5.87H30.0676V9.59022H30.5408V8.35681H31.0918C31.6169 8.35681 31.9836 7.84454 31.9836 7.1109C31.9836 6.38045 31.622 5.87 31.1042 5.87ZM31.0001 7.77658H30.541V6.45295H31.0001C31.3235 6.45295 31.5017 6.6875 31.5017 7.11363C31.5017 7.54113 31.3235 7.77658 31.0001 7.77658Z" fill="#FFF7E7"/>
<path d="M33.2874 5.87H32.2508V9.59022H32.724V8.35681H33.2751C33.8001 8.35681 34.1668 7.84454 34.1668 7.1109C34.1668 6.38045 33.8052 5.87 33.2874 5.87ZM33.1831 7.77658H32.724V6.45295H33.1831C33.5065 6.45295 33.6848 6.6875 33.6848 7.11363C33.6848 7.54113 33.5067 7.77658 33.1831 7.77658Z" fill="#FFF7E7"/>
<path d="M34.9073 5.87H34.4341V9.59022H34.9073V5.87Z" fill="#FFF7E7"/>
<path d="M36.9924 8.44159L35.7163 5.87H35.2989V9.59022H35.7615V7.01749L37.0392 9.59022H37.455V5.87H36.9924V8.44159Z" fill="#FFF7E7"/>
<path d="M38.9917 8.17413H39.6504V8.18095C39.6454 8.70072 39.3778 9.04981 38.9846 9.04981C38.5228 9.04981 38.2358 8.53595 38.2358 7.70868C38.2358 6.8955 38.5132 6.41027 38.9776 6.41027C39.2936 6.41027 39.5265 6.65322 39.6168 7.07663L39.6252 7.11572H40.1063L40.0984 7.05118C40.0075 6.30868 39.5564 5.80981 38.976 5.80981C38.2223 5.80981 37.7541 6.53936 37.7541 7.71368C37.7541 8.90822 38.2243 9.65027 38.9813 9.65027C39.6934 9.65027 40.1185 9.04618 40.1185 8.0339V7.61118H38.9919L38.9917 8.17413Z" fill="#FFF7E7"/>
<path d="M43.0244 8.39848C42.9487 8.81258 42.712 9.05008 42.375 9.05008C41.9273 9.05008 41.6491 8.54394 41.6491 7.72894C41.6491 6.92803 41.9334 6.41053 42.3732 6.41053C42.7016 6.41053 42.957 6.69394 43.0241 7.13257L43.0306 7.17599H43.4979L43.4925 7.11417C43.423 6.33417 42.9732 5.8103 42.3732 5.8103C41.6406 5.8103 41.1672 6.56348 41.1672 7.72916C41.1672 8.91439 41.6294 9.65076 42.3732 9.65076C42.9748 9.65076 43.3938 9.19144 43.4939 8.42235L43.5024 8.35735H43.0319L43.0244 8.39848Z" fill="#FFF7E7"/>
<path d="M43.7723 9.59022H45.4676V8.99477H44.2455V7.98409H45.4021V7.40886H44.2455V6.46295H45.4676V5.87H43.7723V9.59022Z" fill="#FFF7E7"/>
<path d="M47.4883 8.44181L46.2124 5.87H45.7948V9.59022H46.2574V7.01749L47.5352 9.59022H47.951V5.87H47.4883V8.44181Z" fill="#FFF7E7"/>
<path d="M48.1934 6.46295H48.9881V9.59022H49.4611V6.46295H50.2541V5.87H48.1934V6.46295Z" fill="#FFF7E7"/>
<path d="M50.4984 9.59022H52.1935V8.99477H50.9716V7.98409H52.1282V7.40886H50.9716V6.46295H52.1935V5.87H50.4984V9.59022Z" fill="#FFF7E7"/>
<path d="M54.451 7.0284C54.451 6.32477 54.1016 5.87 53.561 5.87H52.5209V9.59022H52.9941V8.20181H53.4899L54.0091 9.59022H54.5554L53.9734 8.08886C54.2693 7.92045 54.451 7.52022 54.451 7.0284ZM53.524 7.63886H52.9941V6.45045H53.5134C53.7975 6.45045 53.9672 6.67204 53.9672 7.0434C53.9672 7.42749 53.8098 7.63886 53.524 7.63886Z" fill="#FFF7E7"/>
</g>
<defs>
<clipPath id="clip0_43_175">
<rect width="77" height="50" fill="white"/>
</clipPath>
</defs>
</svg>
