<svg width="50" height="50" viewBox="0 0 50 50" fill="none" xmlns="http://www.w3.org/2000/svg">
<g clip-path="url(#clip0_47_62)">
<path d="M30.6481 45.229V38.9174C30.6481 37.4259 31.6807 36.2167 32.9544 36.2167H38.6964H40.3042C41.5778 36.2167 42.6104 37.4258 42.6104 38.9174V45.229H30.6481Z" fill="#FF5023"/>
<path d="M18.6857 45.229V38.9174C18.6857 37.4259 19.7183 36.2167 20.992 36.2167H26.3532H28.3419C29.6155 36.2167 30.6481 37.4258 30.6481 38.9174V45.229H18.6857Z" fill="#FF5023"/>
<path d="M6.72345 45.229V38.9174C6.72345 37.4259 7.75607 36.2167 9.0297 36.2167H14.67H16.3795C17.6531 36.2167 18.6858 37.4258 18.6858 38.9174V45.229H6.72345Z" fill="#FF5023"/>
<path d="M16.3391 36.2167H14.6296H13.9425C15.2162 36.2167 16.2488 37.2493 16.2488 38.5229V43.9129H18.6454V38.5229C18.6453 37.2492 17.6128 36.2167 16.3391 36.2167Z" fill="#891C00"/>
<path d="M28.3419 36.2167H26.6324H25.9453C27.219 36.2167 28.2516 37.2493 28.2516 38.5229V43.9129H30.6482V38.5229C30.6481 37.2492 29.6155 36.2167 28.3419 36.2167Z" fill="#891C00"/>
<path d="M40.3043 36.2167H38.5948H37.9077C39.1814 36.2167 40.2139 37.2493 40.2139 38.5229V43.9129H42.6106V38.5229C42.6105 37.2492 41.578 36.2167 40.3043 36.2167Z" fill="#891C00"/>
<path opacity="0.22" d="M42.3314 40.7228H6.72345V46.2752H42.3314V40.7228Z" fill="#891C00"/>
<path d="M24.6669 49.6287H12.7046V45.229C12.7046 43.9553 13.7372 42.9227 15.0108 42.9227H22.3606C23.6343 42.9227 24.6669 43.9553 24.6669 45.229V49.6287Z" fill="#FF5023"/>
<path d="M36.6293 49.6287H24.6669V45.229C24.6669 43.9553 25.6995 42.9227 26.9731 42.9227H34.3229C35.5966 42.9227 36.6292 43.9553 36.6292 45.229V49.6287H36.6293Z" fill="#FF5023"/>
<path d="M48.5916 49.6287H36.6292V45.229C36.6292 43.9553 37.6618 42.9227 38.9355 42.9227H46.2853C47.5589 42.9227 48.5915 43.9553 48.5915 45.229V49.6287H48.5916Z" fill="#FF5023"/>
<path d="M6.72346 1.01489H49.2572V30.388H0.74231V1.01489H6.72346Z" fill="#77757E"/>
<path d="M25 26.7584C31.1068 26.7584 36.0574 21.8078 36.0574 15.701C36.0574 9.59413 31.1068 4.64355 25 4.64355C18.8931 4.64355 13.9426 9.59413 13.9426 15.701C13.9426 21.8078 18.8931 26.7584 25 26.7584Z" fill="#D7D5D9"/>
<path d="M24.9433 24.7936C19.9298 24.7936 15.8512 20.7149 15.8512 15.7014C15.8512 10.688 19.9298 6.60925 24.9433 6.60925C27.2595 6.60925 29.4658 7.48054 31.1558 9.06267C31.4551 9.34285 31.4706 9.81277 31.1904 10.1123C30.9104 10.4116 30.4404 10.4271 30.1407 10.1469C28.7271 8.82341 26.8812 8.09451 24.9433 8.09451C20.7489 8.09451 17.3364 11.507 17.3364 15.7015C17.3364 19.8961 20.7489 23.3086 24.9433 23.3086C28.679 23.3086 31.9131 20.5275 32.4659 16.8395C32.5268 16.4339 32.9046 16.1547 33.3103 16.2152C33.7159 16.2761 33.9954 16.6541 33.9346 17.0595C33.615 19.1912 32.5384 21.1475 30.9031 22.5681C29.2508 24.0032 27.1343 24.7936 24.9433 24.7936Z" fill="#77757E"/>
<path d="M49.2574 14.9589H35.9443C35.5342 14.9589 35.2018 15.2913 35.2018 15.7014C35.2018 21.358 30.5999 25.9598 24.9433 25.9598C19.2883 25.9598 14.6874 21.3604 14.6849 15.7059C14.6849 15.7044 14.6851 15.7029 14.6851 15.7013C14.6851 15.6999 14.6849 15.6983 14.6849 15.6968C14.6873 10.0422 19.2882 5.44275 24.9433 5.44275C27.9382 5.44275 30.7763 6.74724 32.7295 9.02156C32.9967 9.33259 33.4656 9.36843 33.7767 9.10105C34.0878 8.83396 34.1234 8.36501 33.8562 8.05388C31.795 5.65388 28.8728 4.19851 25.7426 3.98562V1.11355C25.7426 0.703394 25.4102 0.370972 25 0.370972C24.5898 0.370972 24.2574 0.703394 24.2574 1.11355V3.978C18.3459 4.32019 13.594 9.05457 13.2237 14.9586H0.742578C0.332422 14.9586 0 15.291 0 15.7011C0 16.1113 0.332422 16.4437 0.742578 16.4437H13.2237C13.594 22.3478 18.3459 27.0819 24.2574 27.4241V30.2886C24.2574 30.6988 24.5898 31.0312 25 31.0312C25.4102 31.0312 25.7426 30.6988 25.7426 30.2886V27.4172C31.6014 27.0215 36.2959 22.31 36.6638 16.4437H49.2574C49.6676 16.4437 50 16.1113 50 15.7011C50 15.2912 49.6676 14.9589 49.2574 14.9589Z" fill="#3E3B43"/>
<path d="M31.3531 14.4097C31.1005 14.4097 30.8541 14.2807 30.7151 14.048C30.5048 13.6961 30.6195 13.2401 30.9716 13.0297L42.3017 6.2571C42.6535 6.04685 43.1097 6.1614 43.32 6.51355C43.5304 6.8655 43.4156 7.32146 43.0636 7.53191L31.7335 14.3045C31.6142 14.3758 31.4829 14.4097 31.3531 14.4097Z" fill="#3E3B43"/>
<path d="M12.7046 49.6287H0.74231V45.229C0.74231 43.9553 1.77493 42.9227 3.04856 42.9227H10.3984C11.672 42.9227 12.7046 43.9553 12.7046 45.229V49.6287Z" fill="#FF5023"/>
<path d="M10.3985 42.9227H7.9928C9.26643 42.9227 10.299 43.9553 10.299 45.229V49.6288H12.7047V45.229C12.7046 43.9552 11.6721 42.9227 10.3985 42.9227Z" fill="#891C00"/>
<path d="M22.3653 42.9227H19.9596C21.2332 42.9227 22.2658 43.9553 22.2658 45.229V49.6288H24.6715V45.229C24.6715 43.9552 23.6389 42.9227 22.3653 42.9227Z" fill="#891C00"/>
<path d="M34.3275 42.9227H31.9219C33.1955 42.9227 34.2281 43.9553 34.2281 45.229V49.6288H36.6338V45.229C36.6338 43.9552 35.6013 42.9227 34.3275 42.9227Z" fill="#891C00"/>
<path d="M46.2854 42.9227H43.8797C45.1533 42.9227 46.1859 43.9553 46.1859 45.229V49.6288H48.5916V45.229C48.5916 43.9552 47.5591 42.9227 46.2854 42.9227Z" fill="#891C00"/>
<path d="M25.021 10.4558C26.6227 10.4558 28.1138 11.5052 28.1138 13.2586C28.1138 16.241 23.7369 17.2075 23.7369 18.6434V18.9748H27.5753C27.8789 18.9748 28.1413 19.3337 28.1413 19.748C28.1413 20.1623 27.879 20.5488 27.5753 20.5488H22.66C22.3425 20.5488 21.873 20.3279 21.873 19.9827V18.6435C21.873 16.4344 26.3188 15.2608 26.3188 13.314C26.3188 12.748 25.946 12.0853 25.0347 12.0853C24.3581 12.0853 23.8059 12.4442 23.8059 13.3002C23.8059 13.6316 23.4607 13.9629 22.8671 13.9629C22.3977 13.9629 22.0524 13.742 22.0524 12.9964C22.0524 11.4224 23.4884 10.4558 25.021 10.4558Z" fill="#77757E"/>
</g>
<defs>
<clipPath id="clip0_47_62">
<rect width="50" height="50" fill="white"/>
</clipPath>
</defs>
</svg>
