<svg width="50" height="50" viewBox="0 0 50 50" fill="none" xmlns="http://www.w3.org/2000/svg">
<g clip-path="url(#clip0_43_267)">
<path d="M41.3118 19.8032H8.68787V40.5947H41.3118V19.8032Z" fill="#808080"/>
<path d="M44.2032 40.5945H41.3125V19.803H44.2032V15.5744H46.0923V12.0699H49.141L25.0006 0.94751L0.858887 12.0699H3.90879V15.5744H5.79785V19.803H8.6875V40.5945H5.79785V44.8231H2.97578V49.053H47.0254V44.8231H44.2032V40.5945ZM22.4028 40.5945H13.8828V19.803H22.4028V40.5945ZM36.1171 40.5945H27.5982V19.803H36.1171V40.5945Z" fill="#B3B3B3"/>
<path d="M13.8828 19.8032H8.68738V22.7987H13.8828V19.8032Z" fill="#999999"/>
<path d="M27.5981 19.8032H22.4027V22.7987H27.5981V19.8032Z" fill="#999999"/>
<path d="M41.3124 19.8032H36.1169V22.7987H41.3124V19.8032Z" fill="#999999"/>
<path d="M22.4027 19.8032H13.8827V24.2889H22.4027V19.8032Z" fill="#666666"/>
<path d="M36.1182 19.8032H27.5981V24.2889H36.1182V19.8032Z" fill="#666666"/>
<path d="M25.0004 8.83765C25.9185 8.83765 26.6628 8.03029 26.6628 7.03436C26.6628 6.03844 25.9185 5.23108 25.0004 5.23108C24.0823 5.23108 23.338 6.03844 23.338 7.03436C23.338 8.03029 24.0823 8.83765 25.0004 8.83765Z" fill="#F7B239"/>
<path d="M49.477 11.2123L25.3358 0.0905261C25.1215 -0.00820271 24.8792 -0.00820271 24.6646 0.0905261L0.523233 11.2123C0.147452 11.3854 -0.0639739 11.8215 0.0174714 12.2554C0.0990144 12.6893 0.450675 13.001 0.858975 13.001H3.04989V15.5741C3.04989 16.0885 3.43427 16.5056 3.90858 16.5056H4.93886V19.8032C4.93886 20.3176 5.32323 20.7347 5.79755 20.7347H7.82929V39.6632H5.79745C5.32314 39.6632 4.93876 40.0803 4.93876 40.5947V43.8923H2.97538C2.50107 43.8923 2.11669 44.3094 2.11669 44.8238V49.0529C2.11669 49.5673 2.50107 49.9844 2.97538 49.9844H47.0251C47.4994 49.9844 47.8838 49.5673 47.8838 49.0529V44.8238C47.8838 44.3094 47.4994 43.8923 47.0251 43.8923H45.0618V40.5947C45.0618 40.0803 44.6774 39.6632 44.2031 39.6632H42.1712V20.7346H44.2031C44.6774 20.7346 45.0618 20.3175 45.0618 19.8031V16.5055H46.092C46.5663 16.5055 46.9507 16.0884 46.9507 15.574V13.0009H49.1417C49.5498 13.0009 49.9017 12.6891 49.9832 12.2553C50.0642 11.8215 49.8528 11.3854 49.477 11.2123ZM25.0002 1.9597L44.9231 11.1382H5.07714L25.0002 1.9597ZM9.54657 20.7346H13.0243V39.6631H9.54657V20.7346ZM21.5441 20.7346V39.6631H14.7416V20.7346H21.5441ZM35.2588 20.7346V39.6631H28.4563V20.7346H35.2588ZM26.7392 39.6632H23.2614V20.7346H26.7392V39.6632ZM46.1663 48.1212H3.83388V45.7549H5.79735H44.2029H46.1662V48.1212H46.1663ZM43.3444 43.8923H6.65614V41.526H8.68788H13.8829H22.4027H27.5977H36.1175H41.3125H43.3444V43.8923ZM40.4538 39.6632H36.9761V20.7346H40.4538V39.6632ZM43.3444 18.8718H41.3125H36.1175H27.5977H22.4027H13.8829H8.68788H6.65614V16.5055H43.3444V18.8718ZM45.2332 14.6427H44.203H5.79745H4.76718V13.0011H45.2331L45.2332 14.6427Z" fill="#333333"/>
<path d="M25.0002 4.30005C23.61 4.30005 22.4791 5.52674 22.4791 7.03479C22.4791 8.54285 23.61 9.76954 25.0002 9.76954C26.3905 9.76954 27.5213 8.54285 27.5213 7.03479C27.5213 5.52674 26.3905 4.30005 25.0002 4.30005ZM25.0002 7.90651C24.5571 7.90651 24.1964 7.51541 24.1964 7.03458C24.1964 6.55376 24.557 6.16266 25.0002 6.16266C25.4435 6.16266 25.804 6.55376 25.804 7.03458C25.804 7.51541 25.4434 7.90651 25.0002 7.90651Z" fill="#333333"/>
</g>
<defs>
<clipPath id="clip0_43_267">
<rect width="50" height="50" fill="white"/>
</clipPath>
</defs>
</svg>
