<svg width="50" height="50" viewBox="0 0 50 50" fill="none" xmlns="http://www.w3.org/2000/svg">
<g clip-path="url(#clip0_53_125)">
<path d="M24.9053 40.9366C33.2566 40.9366 40.0266 34.1845 40.0266 25.8554C40.0266 17.5263 33.2566 10.7742 24.9053 10.7742C16.554 10.7742 9.78394 17.5263 9.78394 25.8554C9.78394 34.1845 16.554 40.9366 24.9053 40.9366Z" fill="#BF7E68" stroke="#4C241D" stroke-width="2" stroke-linecap="round" stroke-linejoin="round"/>
<path d="M24.9052 33.4764C29.1254 33.4764 32.5465 30.0644 32.5465 25.8554C32.5465 21.6464 29.1254 18.2344 24.9052 18.2344C20.685 18.2344 17.2639 21.6464 17.2639 25.8554C17.2639 30.0644 20.685 33.4764 24.9052 33.4764Z" fill="white"/>
<path d="M37.4984 27.3424C37.2693 29.3084 36.5775 31.1926 35.4796 32.8414" stroke="#FC8C29" stroke-width="2" stroke-linecap="round" stroke-linejoin="round"/>
<path d="M14.262 25.9614C14.262 25.0821 14.6123 24.2387 15.2357 23.6169C15.8592 22.9951 16.7048 22.6458 17.5865 22.6458C18.4682 22.6458 19.3138 22.9951 19.9372 23.6169C20.5607 24.2387 20.911 25.0821 20.911 25.9614V32.1783C20.911 33.1676 21.305 34.1163 22.0064 34.8159C22.7078 35.5154 23.6591 35.9084 24.651 35.9084C25.6429 35.9084 26.5942 35.5154 27.2956 34.8159C27.997 34.1163 28.391 33.1676 28.391 32.1783V27.4684C28.391 26.629 28.7253 25.8241 29.3204 25.2306C29.9155 24.637 30.7226 24.3036 31.5642 24.3036C32.486 24.3036 33.3701 23.9384 34.0219 23.2883C34.6738 22.6382 35.0399 21.7565 35.0399 20.8371C35.0399 20.4609 35.1898 20.1002 35.4565 19.8342C35.7231 19.5683 36.0848 19.4188 36.462 19.4188H40.1098C38.4848 15.572 35.4553 12.4846 31.6344 10.7811C27.8134 9.07771 23.4863 8.88557 19.5286 10.2436C15.571 11.6016 12.2784 14.4084 10.3171 18.0959C8.35582 21.7835 7.87234 26.0764 8.96449 30.106H10.1064C11.2086 30.106 12.2656 29.6693 13.0449 28.8921C13.8242 28.1148 14.262 27.0606 14.262 25.9614Z" fill="white" stroke="#4C241D" stroke-width="2" stroke-linecap="round" stroke-linejoin="round"/>
<path d="M25.0665 21.8169L26.7288 19.3302" stroke="#F96E43" stroke-width="2" stroke-linecap="round" stroke-linejoin="round"/>
<path d="M10.9375 24.3036L12.5997 21.8169" stroke="#F96E43" stroke-width="2" stroke-linecap="round" stroke-linejoin="round"/>
<path d="M22.5731 14.3567L24.2354 11.87" stroke="#F96E43" stroke-width="2" stroke-linecap="round" stroke-linejoin="round"/>
<path d="M17.4028 15.329L19.4324 17.5289" stroke="#77A052" stroke-width="2" stroke-linecap="round" stroke-linejoin="round"/>
<path d="M23.853 30.1061L25.2501 31.6205" stroke="#77A052" stroke-width="2" stroke-linecap="round" stroke-linejoin="round"/>
<path d="M31.5317 14.5001L33.5613 16.7001" stroke="#77A052" stroke-width="2" stroke-linecap="round" stroke-linejoin="round"/>
<path d="M7.2124 8.98376L41.2574 42.9385" stroke="#F53E28" stroke-width="2" stroke-linejoin="round"/>
<path d="M25.0665 49.171C38.3779 49.171 49.1689 38.4087 49.1689 25.1326C49.1689 11.8565 38.3779 1.09412 25.0665 1.09412C11.7551 1.09412 0.964111 11.8565 0.964111 25.1326C0.964111 38.4087 11.7551 49.171 25.0665 49.171Z" stroke="#F53E28" stroke-width="2" stroke-linecap="round" stroke-linejoin="round"/>
<path d="M10.9242 38.9521C11.4149 38.9521 11.8127 38.5554 11.8127 38.066C11.8127 37.5767 11.4149 37.1799 10.9242 37.1799C10.4335 37.1799 10.0358 37.5767 10.0358 38.066C10.0358 38.5554 10.4335 38.9521 10.9242 38.9521Z" fill="#4C241D"/>
<path d="M43.3378 29.8342C43.8285 29.8342 44.2263 29.4375 44.2263 28.9481C44.2263 28.4587 43.8285 28.062 43.3378 28.062C42.8471 28.062 42.4493 28.4587 42.4493 28.9481C42.4493 29.4375 42.8471 29.8342 43.3378 29.8342Z" fill="#4C241D"/>
<path d="M33.3644 43.0968C33.8551 43.0968 34.2529 42.7001 34.2529 42.2107C34.2529 41.7213 33.8551 41.3246 33.3644 41.3246C32.8737 41.3246 32.476 41.7213 32.476 42.2107C32.476 42.7001 32.8737 43.0968 33.3644 43.0968Z" fill="#4C241D"/>
<path d="M27.5465 5.79565C28.0372 5.79565 28.435 5.39893 28.435 4.90955C28.435 4.42016 28.0372 4.02344 27.5465 4.02344C27.0559 4.02344 26.6581 4.42016 26.6581 4.90955C26.6581 5.39893 27.0559 5.79565 27.5465 5.79565Z" fill="#4C241D"/>
</g>
<defs>
<clipPath id="clip0_53_125">
<rect width="50" height="50" fill="white"/>
</clipPath>
</defs>
</svg>
