<svg width="50" height="50" viewBox="0 0 50 50" fill="none" xmlns="http://www.w3.org/2000/svg">
<g clip-path="url(#clip0_39_86)">
<path d="M43.9659 37.5511H6.81181C3.49964 37.5511 0.814453 40.7884 0.814453 44.7821V48.9924H49.9633V44.7821C49.9633 40.7884 47.2774 37.5511 43.9659 37.5511Z" fill="#FFCA6C"/>
<path d="M18.2152 37.5511H6.81181C3.49964 37.5511 0.814453 40.7884 0.814453 44.7821V48.9924H12.2179V44.7821C12.2179 40.7884 14.9031 37.5511 18.2152 37.5511Z" fill="#E5B05C"/>
<path d="M45.4851 37.5512C45.4851 24.1687 36.4878 13.3195 25.3886 13.3195C14.29 13.3195 5.29266 24.1679 5.29266 37.5512" fill="#FFCA6C"/>
<path d="M28.7166 13.6527C27.6168 13.4316 26.5037 13.3203 25.3886 13.3202C14.29 13.3202 5.29266 24.1686 5.29266 37.5519H11.9481C11.9481 25.5353 19.2014 15.5646 28.7166 13.6527Z" fill="#E5B05C"/>
<path d="M21.7596 5.36234C21.7595 5.93687 21.8533 6.50578 22.0357 7.0366C22.218 7.56741 22.4853 8.04973 22.8223 8.45601C23.1593 8.86229 23.5594 9.18457 23.9997 9.40444C24.44 9.62432 24.9119 9.7375 25.3886 9.7375C25.8652 9.7375 26.3371 9.62432 26.7774 9.40444C27.2177 9.18457 27.6178 8.86229 27.9548 8.45601C28.2918 8.04973 28.5591 7.56741 28.7414 7.0366C28.9238 6.50578 29.0176 5.93687 29.0175 5.36234C29.0176 4.78781 28.9238 4.2189 28.7414 3.68808C28.5591 3.15727 28.2918 2.67495 27.9548 2.26867C27.6178 1.86239 27.2177 1.54011 26.7774 1.32023C26.3371 1.10035 25.8652 0.987183 25.3886 0.987183C24.9119 0.987183 24.44 1.10035 23.9997 1.32023C23.5594 1.54011 23.1593 1.86239 22.8223 2.26867C22.4853 2.67495 22.218 3.15727 22.0357 3.68808C21.8533 4.2189 21.7595 4.78781 21.7596 5.36234Z" fill="#FFCA6C"/>
<path d="M24.6108 5.36313C24.6099 4.50739 24.8181 3.67011 25.2096 2.95492C25.6012 2.23972 26.1589 1.67802 26.8138 1.33932C26.3636 1.1071 25.8786 0.987722 25.3886 0.988529C23.3846 0.988529 21.7603 2.94726 21.7603 5.36393C21.7603 7.7798 23.3853 9.73853 25.3886 9.73853C25.8945 9.73853 26.376 9.61313 26.8138 9.38774C26.159 9.04865 25.6014 8.48674 25.2099 7.77147C24.8183 7.05619 24.6101 6.21892 24.6108 5.36313Z" fill="#E5B05C"/>
<path d="M41.3197 31.6798C40.9818 31.6798 40.6663 31.4274 40.5453 31.0219C38.6835 24.756 34.1828 19.9909 28.8006 18.5846C28.3561 18.4687 28.0744 17.9401 28.1709 17.4052C28.2675 16.8703 28.7053 16.5298 29.1491 16.6457C32.1056 17.4245 34.8466 19.0992 37.1108 21.51C39.3648 23.9082 41.0787 26.9495 42.0942 30.3528C42.1386 30.5022 42.1524 30.6622 42.1347 30.8193C42.117 30.9765 42.0682 31.1263 41.9924 31.2562C41.9166 31.3861 41.816 31.4923 41.6989 31.566C41.5819 31.6397 41.4519 31.6787 41.3197 31.6798ZM46.2668 42.6258C46.1395 42.6258 46.0139 42.5903 45.9001 42.5219C45.7862 42.4536 45.6871 42.3544 45.6108 42.2322C45.4487 41.9735 45.0572 41.7949 44.9335 41.7592C44.7242 41.6936 44.5447 41.5323 44.4334 41.3097C44.3221 41.0871 44.2879 40.8211 44.3382 40.5687C44.3885 40.3162 44.5192 40.0975 44.7023 39.9593C44.8855 39.8212 45.1064 39.7747 45.3178 39.8298C45.4236 39.8608 46.3713 40.1552 46.9229 41.0354C47.015 41.1825 47.0713 41.3574 47.0854 41.5406C47.0996 41.7238 47.071 41.9081 47.003 42.073C46.935 42.2379 46.8301 42.3769 46.7002 42.4745C46.5702 42.5721 46.4202 42.6245 46.2668 42.6258Z" fill="white"/>
<path d="M46.3026 37.0568C46.0883 23.7068 37.2299 12.8663 26.2107 12.3496V10.6362C27.2321 10.4006 28.1531 9.7453 28.8153 8.7829C29.4775 7.8205 29.8395 6.61122 29.839 5.36314C29.8391 4.45658 29.649 3.56459 29.2861 2.76949C29.2341 2.6557 29.1639 2.55536 29.0796 2.47423C28.9952 2.39309 28.8983 2.33275 28.7944 2.29669C28.6906 2.26063 28.5818 2.24955 28.4743 2.26408C28.3669 2.27862 28.2629 2.31848 28.1683 2.38139C27.9773 2.50957 27.8363 2.72321 27.7761 2.97569C27.7159 3.22816 27.7414 3.49897 27.8469 3.72901C28.0751 4.22584 28.1948 4.79012 28.1948 5.36314C28.1948 7.22901 26.9362 8.74647 25.3886 8.74647C23.841 8.74647 22.5824 7.22901 22.5824 5.36314C22.5824 3.49726 23.841 1.9798 25.3879 1.9798C25.7709 1.9798 26.1419 2.07107 26.4904 2.25044C26.5898 2.30155 26.6967 2.32858 26.8048 2.32998C26.913 2.33137 27.0203 2.30711 27.1206 2.25858C27.2209 2.21005 27.3122 2.13821 27.3893 2.0472C27.4664 1.95618 27.5277 1.84777 27.5698 1.72822C27.656 1.48675 27.6589 1.21411 27.5778 0.970111C27.4967 0.726108 27.3383 0.530658 27.1373 0.426629C26.5847 0.141423 25.9894 -0.00497098 25.3879 -0.0035295C22.9342 -0.0035295 20.9375 2.40361 20.9375 5.36314C20.9372 6.61123 21.2993 7.82046 21.9614 8.78294C22.6236 9.74541 23.5445 10.401 24.5658 10.6369V12.3496C21.848 12.4697 19.1769 13.2335 16.706 14.5973C16.5074 14.7073 16.3531 14.9072 16.277 15.1534C16.2009 15.3996 16.2092 15.6719 16.3 15.9108C16.3444 16.0291 16.4079 16.1357 16.4867 16.2244C16.5656 16.3132 16.6583 16.3823 16.7596 16.4279C16.8608 16.4735 16.9686 16.4946 17.0766 16.49C17.1847 16.4855 17.2909 16.4553 17.3892 16.4012C19.8979 15.0169 22.6274 14.3038 25.3886 14.3115C35.7517 14.3115 44.2299 24.225 44.6452 36.6004C44.4195 36.5731 44.1928 36.5593 43.966 36.5592H6.81187C6.58237 36.5592 6.35618 36.5735 6.13263 36.6004C6.25124 32.901 7.10584 29.2893 8.62505 26.067C10.1443 22.8448 12.284 20.1056 14.8654 18.0782C15.0483 17.9338 15.1761 17.7084 15.2208 17.4512C15.2656 17.1941 15.2236 16.9261 15.1042 16.706C15.0454 16.5971 14.9693 16.5032 14.8802 16.4297C14.7911 16.3563 14.6908 16.3046 14.585 16.2779C14.4792 16.2511 14.3701 16.2497 14.2638 16.2737C14.1576 16.2977 14.0564 16.3467 13.966 16.4179C8.13462 21.0084 4.61015 28.6957 4.47655 37.0568C3.16055 37.6399 2.02513 38.6931 1.22325 40.0744C0.421372 41.4557 -0.008427 43.0988 -0.00823968 44.7822V48.9925C-0.00823968 49.5393 0.360146 49.9838 0.814511 49.9838H49.9633C50.417 49.9838 50.7854 49.5393 50.7854 48.9925V44.7822C50.7854 41.2369 48.915 38.2092 46.3026 37.0568ZM1.6366 48.0004V44.7822C1.6366 41.3409 3.95803 38.5425 6.81187 38.5425H43.9653C46.5394 38.5425 48.6796 40.8195 49.0751 43.7909H42.6042C42.1498 43.7909 41.7821 44.2354 41.7821 44.7822C41.7821 45.3298 42.1505 45.7743 42.6042 45.7743H49.1412V48.0004H1.6366Z" fill="black"/>
<path d="M39.753 43.7909H14.8621C14.4078 43.7909 14.0394 44.2353 14.0394 44.7822C14.0394 45.3298 14.4078 45.7742 14.8621 45.7742H39.7523C40.2067 45.7742 40.5744 45.3298 40.5744 44.7822C40.5748 44.6523 40.5538 44.5237 40.5127 44.4036C40.4716 44.2835 40.4112 44.1743 40.3349 44.0823C40.2586 43.9902 40.1679 43.9171 40.0681 43.8671C39.9683 43.8171 39.8612 43.7912 39.753 43.7909ZM12.2179 43.7909H5.21264C4.75828 43.7909 4.38989 44.2353 4.38989 44.7822C4.38989 45.3298 4.75828 45.7742 5.21264 45.7742H12.2173C12.6716 45.7742 13.04 45.3298 13.04 44.7822C13.04 44.2353 12.6723 43.7909 12.2179 43.7909Z" fill="black"/>
</g>
<defs>
<clipPath id="clip0_39_86">
<rect width="50" height="50" fill="white"/>
</clipPath>
</defs>
</svg>
