<svg width="50" height="50" viewBox="0 0 50 50" fill="none" xmlns="http://www.w3.org/2000/svg">
<g clip-path="url(#clip0_55_170)">
<path d="M49.9996 24.9996C49.9996 38.8074 38.807 50 25 50C11.1926 50 0 38.8074 0 24.9996C0 11.1927 11.1926 0 25 0C38.807 0 49.9996 11.1927 49.9996 24.9996Z" fill="#E5A46C"/>
<path d="M25 45.284C13.8153 45.284 4.7157 36.1854 4.7157 24.9997C4.7157 13.8154 13.8153 4.71606 25 4.71606C36.1857 4.71606 45.2843 13.8154 45.2843 24.9997C45.2843 36.1854 36.1857 45.284 25 45.284Z" fill="#F4CB91"/>
<path d="M5.28386 25.852C5.28386 14.667 14.3836 5.56772 25.5677 5.56772C32.4245 5.56772 38.493 8.99116 42.1663 14.2143C38.5726 8.51411 32.2236 4.71606 25 4.71606C13.8153 4.71606 4.7157 13.8154 4.7157 24.9997C4.7157 29.3279 6.08249 33.3409 8.40105 36.6374C6.42986 33.511 5.28386 29.814 5.28386 25.852Z" fill="#E7AD61"/>
<path d="M19.2231 14.6776C19.2231 16.5602 17.6969 18.087 15.8149 18.087C13.9319 18.087 12.405 16.5602 12.405 14.6776C12.405 12.7948 13.9319 11.2687 15.8149 11.2687C17.6968 11.2687 19.2231 12.7949 19.2231 14.6776Z" fill="#EE7D5A"/>
<path d="M37.5947 37.5957C37.5947 39.5572 36.0057 41.1469 34.0442 41.1469C32.0828 41.1469 30.4924 39.5572 30.4924 37.5957C30.4924 35.6342 32.0828 34.0446 34.0442 34.0446C36.0057 34.0447 37.5947 35.6343 37.5947 37.5957Z" fill="#EE7D5A"/>
<path d="M15.9097 31.0599C15.9097 32.9432 14.3822 34.4695 12.4999 34.4695C10.6172 34.4695 9.09106 32.9432 9.09106 31.0599C9.09106 29.178 10.6172 27.6511 12.4999 27.6511C14.3822 27.6511 15.9097 29.178 15.9097 31.0599Z" fill="#EE7D5A"/>
<path d="M41.194 19.886C41.194 21.4541 39.9216 22.7264 38.3523 22.7264C36.7842 22.7264 35.5118 21.4541 35.5118 19.886C35.5118 18.3173 36.7841 17.0449 38.3523 17.0449C39.9217 17.0449 41.194 18.3173 41.194 19.886Z" fill="#EE7D5A"/>
<path d="M28.7416 28.124C28.7416 29.4053 27.7037 30.444 26.4216 30.444C25.1409 30.444 24.1016 29.4053 24.1016 28.124C24.1016 26.8425 25.1409 25.804 26.4216 25.804C27.7037 25.804 28.7416 26.8426 28.7416 28.124Z" fill="#EE7D5A"/>
<path d="M19.3194 32.4814C19.3194 32.8734 19.0013 33.1915 18.6092 33.1915C18.2159 33.1915 17.8977 32.8734 17.8977 32.4814C17.8977 32.0886 18.2159 31.7712 18.6092 31.7712C19.0013 31.7712 19.3194 32.0886 19.3194 32.4814Z" fill="#D9A988"/>
<path d="M11.8848 24.2898C12.2771 24.2898 12.5951 23.9718 12.5951 23.5795C12.5951 23.1873 12.2771 22.8693 11.8848 22.8693C11.4926 22.8693 11.1746 23.1873 11.1746 23.5795C11.1746 23.9718 11.4926 24.2898 11.8848 24.2898Z" fill="#D9A988"/>
<path d="M26.8931 19.9816C26.8931 20.3736 26.5764 20.6917 26.1831 20.6917C25.791 20.6917 25.4729 20.3736 25.4729 19.9816C25.4729 19.5888 25.791 19.2708 26.1831 19.2708C26.5764 19.2708 26.8931 19.5888 26.8931 19.9816Z" fill="#D9A988"/>
<path d="M34.0904 31.0605C34.0904 31.4532 33.7723 31.7713 33.3802 31.7713C32.9882 31.7713 32.6702 31.4532 32.6702 31.0605C32.6702 30.6685 32.9882 30.3505 33.3802 30.3505C33.7723 30.3505 34.0904 30.6685 34.0904 31.0605Z" fill="#D9A988"/>
<path d="M28.3621 41.5723C28.3621 41.9643 28.0441 42.2824 27.6521 42.2824C27.2601 42.2824 26.942 41.9643 26.942 41.5723C26.942 41.1796 27.2601 40.8616 27.6521 40.8616C28.0441 40.8616 28.3621 41.1796 28.3621 41.5723Z" fill="#D9A988"/>
<path d="M36.9795 12.8793C36.9795 13.2713 36.6615 13.5894 36.2694 13.5894C35.8774 13.5894 35.5593 13.2713 35.5593 12.8793C35.5593 12.4866 35.8774 12.1686 36.2694 12.1686C36.6615 12.1686 36.9795 12.4866 36.9795 12.8793Z" fill="#D9A988"/>
<path d="M20.7869 9.09102C20.7869 9.48301 20.4688 9.80107 20.0768 9.80107C19.6833 9.80107 19.3652 9.48301 19.3652 9.09102C19.3652 8.69834 19.6833 8.38086 20.0768 8.38086C20.4688 8.38086 20.7869 8.69834 20.7869 9.09102Z" fill="#D9A988"/>
<path d="M40.1994 33.2389C40.1994 33.6309 39.8813 33.949 39.4893 33.949C39.0959 33.949 38.7792 33.6309 38.7792 33.2389C38.7792 32.8463 39.0959 32.5282 39.4893 32.5282C39.8813 32.5282 40.1994 32.8462 40.1994 33.2389Z" fill="#D9A988"/>
<path d="M29.6986 12.585C29.9944 11.4926 28.9201 10.0474 27.2335 9.589C25.5468 9.13217 23.8881 9.83529 23.5923 10.9277C23.4263 11.5387 23.7737 11.9537 24.4071 12.2809L24.0582 13.5637C23.9466 13.9787 24.1907 14.4063 24.6051 14.5186L27.0073 15.1708C27.4232 15.2831 27.85 15.0383 27.963 14.624L28.3118 13.3398C29.0234 13.3781 29.5326 13.196 29.6986 12.585Z" fill="#F6DABF"/>
<path d="M22.8907 34.4067C21.6462 33.9226 19.816 35.0031 19.0696 36.9241C18.3218 38.8457 18.9398 40.8784 20.1842 41.3631C20.8803 41.6337 21.4105 41.2787 21.8736 40.5763L23.3343 41.1441C23.8086 41.3283 24.3402 41.0945 24.5229 40.6216L25.5887 37.8845C25.7715 37.4123 25.5371 36.8801 25.0656 36.6966L23.6036 36.1274C23.7362 35.2981 23.5869 34.6766 22.8907 34.4067Z" fill="#F6DABF"/>
<path d="M38.1512 30.6468C38.9576 30.6552 39.7611 29.6529 39.7723 28.4085C39.7849 27.1627 39.0009 26.1463 38.1946 26.1387C37.7439 26.1337 37.5193 26.4484 37.4078 26.9436L36.4605 26.9345C36.155 26.9317 35.9039 27.1773 35.9011 27.4836L35.8844 29.2581C35.8816 29.5635 36.1271 29.8147 36.4327 29.8175L37.3813 29.8266C37.4831 30.3246 37.6993 30.6426 38.1512 30.6468Z" fill="#F6DABF"/>
<path d="M19.7671 24.3608L16.4189 22.8003L17.2602 20.9987L20.6069 22.5583L19.7671 24.3608Z" fill="#A3CBA0"/>
<path d="M34.4627 16.7444L31.4913 18.9375L30.311 17.3366L33.2825 15.1443L34.4627 16.7444Z" fill="#A3CBA0"/>
<path d="M14.1223 37.9041L16.2279 39.5328L15.3503 40.6663L13.2458 39.0369L14.1223 37.9041Z" fill="#A3CBA0"/>
</g>
<defs>
<clipPath id="clip0_55_170">
<rect width="50" height="50" fill="white"/>
</clipPath>
</defs>
</svg>
