<svg width="50" height="50" viewBox="0 0 50 50" fill="none" xmlns="http://www.w3.org/2000/svg">
<g clip-path="url(#clip0_40_61)">
<path d="M46.8036 6.59242H3.24225L3.69469 6.08445C5.12846 4.49452 5.89315 2.61505 5.89315 0.694946H44.1464C44.1464 2.61505 44.911 4.49452 46.3448 6.08445L46.8036 6.59242Z" fill="#D39E33"/>
<path d="M46.8036 7.25268H3.24224C2.92999 7.25268 2.64961 7.11553 2.50304 6.89203C2.36285 6.6736 2.38834 6.40438 2.56677 6.20627L3.0192 5.69831C4.3574 4.21505 5.06473 2.48289 5.06473 0.689773C5.06473 0.324039 5.43432 0.0294189 5.89313 0.0294189H44.1463C44.6051 0.0294189 44.9747 0.324039 44.9747 0.689773C44.9747 2.47781 45.6821 4.20997 47.0139 5.69831L47.4663 6.20627C47.6448 6.40946 47.6703 6.6736 47.5301 6.89203C47.3962 7.11045 47.1095 7.25268 46.8036 7.25268ZM4.82895 5.93197H45.2233C44.1272 4.53507 43.49 2.97562 43.3498 1.35521H6.69605C6.56223 2.97054 5.92499 4.53507 4.82895 5.93197Z" fill="#111111"/>
<path d="M35.4481 49.3528H13.489C9.82491 49.3528 6.82991 47.0162 6.74707 44.0954L5.64465 9.09155H44.3949L42.1773 44.2122C42.0244 47.0924 39.0549 49.3528 35.4481 49.3528Z" fill="#FAFCFB"/>
<path d="M35.4481 50.0132H13.489C11.5008 50.0132 9.62095 49.4036 8.19354 48.2912C6.77251 47.1838 5.96322 45.6955 5.91862 44.1106L4.79071 8.43115H45.2615L42.9993 44.2478C42.8336 47.4784 39.5073 50.0132 35.4481 50.0132ZM6.4985 9.75694L7.5818 44.0852C7.61366 45.3246 8.24452 46.4879 9.35969 47.3514C10.4685 48.22 11.9405 48.6975 13.4953 48.6975H35.4481C38.6215 48.6975 41.2151 46.7165 41.3552 44.1919L43.5282 9.75694H6.4985Z" fill="#141414"/>
<path d="M46.383 9.34048H3.66281C2.1207 9.34048 0.8526 8.33471 0.8526 7.10036C0.8526 5.87108 2.11433 4.86023 3.66281 4.86023H46.383C47.9251 4.86023 49.1932 5.866 49.1932 7.10036C49.1932 8.33471 47.9251 9.34048 46.383 9.34048Z" fill="#D39E33"/>
<path d="M46.3831 10.0008H3.66284C1.65555 10.0008 0.024231 8.7004 0.024231 7.10031C0.024231 5.50022 1.65555 4.19983 3.66284 4.19983H46.3831C48.3904 4.19983 50.0217 5.50022 50.0217 7.10031C50.0217 8.7004 48.3904 10.0008 46.3831 10.0008ZM3.66284 5.52562C2.57317 5.52562 1.68104 6.23169 1.68104 7.10539C1.68104 7.97909 2.5668 8.68516 3.66284 8.68516H46.3831C47.4727 8.68516 48.3649 7.97909 48.3649 7.10539C48.3649 6.23169 47.4791 5.52562 46.3831 5.52562H3.66284Z" fill="#111111"/>
<path d="M7.15485 4.67737H8.81166V8.82744H7.15485V4.67737Z" fill="#111111"/>
<path d="M15.6747 4.67737H17.3315V8.82744H15.6747V4.67737Z" fill="#111111"/>
<path d="M24.1945 5.02783H25.8513V9.17791H24.1945V5.02783Z" fill="#111111"/>
<path d="M32.7144 5.02783H34.3712V9.17791H32.7144V5.02783Z" fill="#111111"/>
<path d="M41.2342 5.02783H42.891V9.17791H41.2342V5.02783Z" fill="#111111"/>
<path d="M45.4654 33.931H4.58044L3.24225 17.4019H46.8036L45.4654 33.931Z" fill="#845A3D"/>
<path d="M45.4654 34.5914H4.58044C4.14075 34.5914 3.7839 34.3222 3.75204 33.9717L2.41384 17.4476C2.4011 17.2647 2.47757 17.0869 2.63688 16.9548C2.79618 16.8228 3.01284 16.7466 3.24225 16.7466H46.7973C47.0267 16.7466 47.2433 16.8228 47.4026 16.9548C47.5619 17.0869 47.6384 17.2647 47.6257 17.4476L46.2875 33.9717C46.262 34.3171 45.8988 34.5914 45.4654 34.5914ZM5.35787 33.2707H44.6816L45.9115 18.0673H4.12801L5.35787 33.2707Z" fill="#141414"/>
<path d="M6.85535 17.8997H8.40383V33.3469H6.85535V17.8997ZM11.214 17.9454H12.7625V33.3926H11.214V17.9454ZM15.5727 17.9454H17.1212V33.3926H15.5727V17.9454ZM19.925 17.9454H21.4735V33.3926H19.925V17.9454ZM24.2837 17.9454H25.8322V33.3926H24.2837V17.9454ZM28.6424 17.9454H30.1909V33.3926H28.6424V17.9454ZM33.0712 17.9454H34.4795V33.3926H33.0712V17.9454ZM37.4235 17.9454H38.8318V33.3926H37.4235V17.9454ZM41.7822 17.9454H43.1905V33.3926H41.7822V17.9454Z" fill="#663C20"/>
<path d="M17.7776 25.6664C17.7776 27.1982 18.5409 28.6672 19.8997 29.7504C21.2585 30.8335 23.1014 31.442 25.0229 31.442C26.9445 31.442 28.7874 30.8335 30.1462 29.7504C31.505 28.6672 32.2683 27.1982 32.2683 25.6664C32.2683 24.908 32.0809 24.1569 31.7168 23.4562C31.3527 22.7555 30.819 22.1188 30.1462 21.5825C29.4734 21.0462 28.6747 20.6208 27.7956 20.3305C26.9166 20.0403 25.9744 19.8909 25.0229 19.8909C24.0715 19.8909 23.1293 20.0403 22.2503 20.3305C21.3712 20.6208 20.5725 21.0462 19.8997 21.5825C19.2269 22.1188 18.6932 22.7555 18.3291 23.4562C17.965 24.1569 17.7776 24.908 17.7776 25.6664Z" fill="#FAFCFB"/>
<path d="M25.0229 32.1024C20.5687 32.1024 16.9492 29.2172 16.9492 25.6665C16.9492 22.1158 20.5687 19.2306 25.0229 19.2306C29.4772 19.2306 33.0967 22.1158 33.0967 25.6665C33.0967 29.2172 29.4772 32.1024 25.0229 32.1024ZM25.0229 20.5513C21.4863 20.5513 18.606 22.8473 18.606 25.6665C18.606 28.4857 21.4863 30.7817 25.0229 30.7817C28.5596 30.7817 31.4399 28.4857 31.4399 25.6665C31.4399 22.8473 28.5596 20.5513 25.0229 20.5513Z" fill="#141414"/>
<path d="M6.75342 45.0961L42.1837 45.2129Z" fill="#FAFCFB"/>
<path d="M6.75719 44.433L42.1875 44.5511L42.1805 45.8718L6.75024 45.7537L6.75719 44.433Z" fill="#141414"/>
</g>
<defs>
<clipPath id="clip0_40_61">
<rect width="50" height="50" fill="white"/>
</clipPath>
</defs>
</svg>
