<svg width="50" height="50" viewBox="0 0 50 50" fill="none" xmlns="http://www.w3.org/2000/svg">
<g clip-path="url(#clip0_47_108)">
<path d="M49.9853 44.1219C49.9853 44.1219 49.9853 49.9853 44.1064 49.9853H5.8936C0.0147095 49.9853 0.0147095 44.1219 0.0147095 44.1219V16.2709C0.0147095 10.4075 5.8936 10.4075 5.8936 10.4075H44.1064C44.1064 10.4075 49.9853 10.4075 49.9853 16.2709V44.1219Z" fill="#31373D"/>
<path d="M29.8545 13.9094C29.9909 14.0455 30.0992 14.2071 30.173 14.3849C30.2469 14.5627 30.2849 14.7533 30.2849 14.9458C30.2849 15.1382 30.2469 15.3288 30.173 15.5067C30.0992 15.6845 29.9909 15.846 29.8545 15.9821C29.718 16.1182 29.556 16.2262 29.3777 16.2998C29.1995 16.3735 29.0084 16.4114 28.8154 16.4114C28.6224 16.4114 28.4313 16.3735 28.253 16.2998C28.0747 16.2262 27.9127 16.1182 27.7763 15.9821L14.2666 2.50808C14.1301 2.37199 14.0219 2.21042 13.948 2.0326C13.8742 1.85478 13.8362 1.6642 13.8362 1.47173C13.8362 1.08302 13.991 0.710233 14.2666 0.435375C14.5422 0.160517 14.9159 0.00610352 15.3057 0.00610352C15.6954 0.00610352 16.0692 0.160517 16.3448 0.435375L29.8545 13.9094Z" fill="#31373D"/>
<path d="M20.1455 13.9094C20.009 14.0455 19.9008 14.2071 19.8269 14.3849C19.7531 14.5627 19.7151 14.7533 19.7151 14.9458C19.7151 15.1382 19.7531 15.3288 19.8269 15.5067C19.9008 15.6845 20.009 15.846 20.1455 15.9821C20.282 16.1182 20.4439 16.2262 20.6222 16.2998C20.8005 16.3735 20.9916 16.4114 21.1846 16.4114C21.3776 16.4114 21.5687 16.3735 21.7469 16.2998C21.9252 16.2262 22.0872 16.1182 22.2237 15.9821L35.7334 2.50808C35.8698 2.37199 35.9781 2.21042 36.0519 2.0326C36.1258 1.85478 36.1638 1.6642 36.1638 1.47173C36.1638 1.27926 36.1258 1.08868 36.0519 0.910858C35.9781 0.73304 35.8698 0.571471 35.7334 0.435375C35.5969 0.299279 35.4349 0.191322 35.2566 0.117667C35.0784 0.044013 34.8873 0.00610352 34.6943 0.00610352C34.5013 0.00610352 34.3102 0.044013 34.1319 0.117667C33.9536 0.191322 33.7917 0.299279 33.6552 0.435375L20.1455 13.9094Z" fill="#31373D"/>
<path d="M25 14.8051C36.7578 14.8051 39.6973 16.2709 41.167 17.7367C42.6367 19.2026 44.1064 22.1343 44.1064 29.4635C44.1064 36.7927 42.6367 39.7244 41.167 41.1903C39.6973 42.6561 36.7578 44.122 25 44.122C13.2422 44.122 10.3028 42.6561 8.83306 41.1903C7.36334 39.7244 5.89362 36.7927 5.89362 29.4635C5.89362 22.1343 7.36334 19.2026 8.83306 17.7367C10.3028 16.2709 13.2422 14.8051 25 14.8051Z" fill="#55ACEE"/>
<path d="M44.8412 47.0537C46.0588 47.0537 47.0458 46.0692 47.0458 44.8549C47.0458 43.6406 46.0588 42.6561 44.8412 42.6561C43.6237 42.6561 42.6367 43.6406 42.6367 44.8549C42.6367 46.0692 43.6237 47.0537 44.8412 47.0537Z" fill="#66757F"/>
<path d="M5.15875 47.0537C6.37631 47.0537 7.36333 46.0692 7.36333 44.8549C7.36333 43.6406 6.37631 42.6561 5.15875 42.6561C3.94119 42.6561 2.95416 43.6406 2.95416 44.8549C2.95416 46.0692 3.94119 47.0537 5.15875 47.0537Z" fill="#66757F"/>
</g>
<defs>
<clipPath id="clip0_47_108">
<rect width="50" height="50" fill="white"/>
</clipPath>
</defs>
</svg>
