<svg width="61" height="50" viewBox="0 0 61 50" fill="none" xmlns="http://www.w3.org/2000/svg">
<g clip-path="url(#clip0_43_281)">
<path d="M3.60916 15.4034L3.60238 15.3994C3.60238 15.3994 0.127075 39.9486 0.127075 43.4876C0.127075 47.0938 2.40271 50.0159 5.21041 50.0159C6.36263 50.0159 7.41319 49.5058 8.26549 48.6754L25.4912 31.0044L3.60916 15.4034ZM57.3061 15.4034L57.3129 15.3994C57.3129 15.3994 60.7882 39.9486 60.7882 43.4876C60.7882 47.0938 58.5125 50.0159 55.7048 50.0159C54.5526 50.0159 53.5021 49.5058 52.6498 48.6754L35.424 31.0044L57.3061 15.4034Z" fill="#31373D"/>
<path d="M44.0132 33.5824C51.9676 33.5824 58.416 26.0585 58.416 16.7774C58.416 7.49617 51.9676 -0.02771 44.0132 -0.02771C36.0588 -0.02771 29.6104 7.49617 29.6104 16.7774C29.6104 26.0585 36.0588 33.5824 44.0132 33.5824Z" fill="#14171A"/>
<path d="M16.9021 33.5824C24.8565 33.5824 31.3049 26.0585 31.3049 16.7774C31.3049 7.49617 24.8565 -0.02771 16.9021 -0.02771C8.94767 -0.02771 2.49933 7.49617 2.49933 16.7774C2.49933 26.0585 8.94767 33.5824 16.9021 33.5824Z" fill="#14171A"/>
<path d="M16.9021 -0.02771H44.0132V33.3254H16.9021V-0.02771Z" fill="#14171A"/>
<path d="M22.1548 41.985C26.8339 41.985 30.6271 37.5592 30.6271 32.0997C30.6271 26.6402 26.8339 22.2144 22.1548 22.2144C17.4758 22.2144 13.6826 26.6402 13.6826 32.0997C13.6826 37.5592 17.4758 41.985 22.1548 41.985Z" fill="#14171A"/>
<path d="M38.7604 41.985C43.4395 41.985 47.2327 37.5592 47.2327 32.0997C47.2327 26.6402 43.4395 22.2144 38.7604 22.2144C34.0814 22.2144 30.2882 26.6402 30.2882 32.0997C30.2882 37.5592 34.0814 41.985 38.7604 41.985Z" fill="#14171A"/>
<path d="M38.7604 38.0309C41.5678 38.0309 43.8437 35.3754 43.8437 32.0997C43.8437 28.8239 41.5678 26.1685 38.7604 26.1685C35.9529 26.1685 33.6771 28.8239 33.6771 32.0997C33.6771 35.3754 35.9529 38.0309 38.7604 38.0309Z" fill="#67757F"/>
<path d="M22.1549 38.0309C24.9623 38.0309 27.2382 35.3754 27.2382 32.0997C27.2382 28.8239 24.9623 26.1685 22.1549 26.1685C19.3474 26.1685 17.0715 28.8239 17.0715 32.0997C17.0715 35.3754 19.3474 38.0309 22.1549 38.0309Z" fill="#67757F"/>
<path d="M43.6065 11.2119C45.1066 11.2119 46.3227 9.79297 46.3227 8.04265C46.3227 6.29233 45.1066 4.87341 43.6065 4.87341C42.1064 4.87341 40.8903 6.29233 40.8903 8.04265C40.8903 9.79297 42.1064 11.2119 43.6065 11.2119Z" fill="#FFCC4D"/>
<path d="M43.6065 24.0114C45.1066 24.0114 46.3227 22.5925 46.3227 20.8422C46.3227 19.0919 45.1066 17.673 43.6065 17.673C42.1064 17.673 40.8903 19.0919 40.8903 20.8422C40.8903 22.5925 42.1064 24.0114 43.6065 24.0114Z" fill="#77B255"/>
<path d="M38.1216 17.6117C39.6217 17.6117 40.8378 16.1928 40.8378 14.4424C40.8378 12.6921 39.6217 11.2732 38.1216 11.2732C36.6215 11.2732 35.4054 12.6921 35.4054 14.4424C35.4054 16.1928 36.6215 17.6117 38.1216 17.6117Z" fill="#50A5E6"/>
<path d="M49.0914 17.6117C50.5916 17.6117 51.8076 16.1928 51.8076 14.4424C51.8076 12.6921 50.5916 11.2732 49.0914 11.2732C47.5913 11.2732 46.3752 12.6921 46.3752 14.4424C46.3752 16.1928 47.5913 17.6117 49.0914 17.6117Z" fill="#DD2E44"/>
<path d="M18.8897 10.773V6.4867C18.8897 6.2219 18.7995 5.96795 18.6391 5.78071C18.4786 5.59347 18.2609 5.48828 18.034 5.48828H15.3941C15.1671 5.48828 14.9495 5.59347 14.789 5.78071C14.6285 5.96795 14.5384 6.2219 14.5384 6.4867V10.773L16.714 13.3135L18.8897 10.773ZM14.5367 17.9497V22.236C14.5367 22.7876 14.9196 23.2344 15.3924 23.2344H18.0323C18.2592 23.2344 18.4769 23.1292 18.6374 22.942C18.7978 22.7548 18.888 22.5008 18.888 22.236V17.9497L16.7123 15.4092L14.5367 17.9497ZM23.4647 11.8208H19.7911L17.6138 14.3614L19.7911 16.9019H23.4647C23.6915 16.9014 23.9089 16.796 24.0693 16.6089C24.2296 16.4218 24.3199 16.1681 24.3204 15.9035V12.8212C24.3204 12.5562 24.2303 12.3021 24.0699 12.1145C23.9094 11.927 23.6918 11.8213 23.4647 11.8208ZM13.6386 11.8208H9.96336C9.73655 11.8213 9.51916 11.9267 9.35879 12.1138C9.19841 12.301 9.10811 12.5546 9.10767 12.8192V15.8995C9.10767 16.4511 9.49061 16.8979 9.96336 16.8979H13.6369L15.8143 14.3574L13.6386 11.8208Z" fill="#8899A6"/>
</g>
<defs>
<clipPath id="clip0_43_281">
<rect width="61" height="50" fill="white"/>
</clipPath>
</defs>
</svg>
