<svg width="429" height="730" viewBox="0 0 429 730" fill="none" xmlns="http://www.w3.org/2000/svg">
<path d="M386.72 730H42.2814C18.9303 730 0 704.808 0 673.733V86.267C0 55.192 18.9303 30 42.2814 30H386.719C410.07 30 429 55.192 429 86.267V673.731C429.001 704.808 410.071 730 386.72 730Z" fill="#D19B61"/>
<path d="M386.021 702H42.9772C32.4962 702 24 690.934 24 677.283V81.7174C24 68.0662 32.4962 57 42.9772 57H386.023C396.504 57 405 68.0662 405 81.7174V677.283C404.999 690.934 396.502 702 386.021 702Z" fill="#F9F9F7"/>
<path d="M247.045 22.7774H237.233C237.233 10.1979 227.055 0 214.5 0C201.944 0 191.766 10.1979 191.766 22.7774H181.954C169.277 22.7774 159 33.0743 159 45.7758V69.4003C159 70.0044 159.119 70.6025 159.349 71.1605C159.58 71.7186 159.918 72.2257 160.345 72.6528C160.771 73.0799 161.277 73.4187 161.834 73.6499C162.391 73.881 162.988 74 163.591 74H265.409C266.012 74 266.609 73.881 267.166 73.6499C267.723 73.4187 268.229 73.0799 268.655 72.6528C269.082 72.2257 269.42 71.7186 269.651 71.1605C269.881 70.6025 270 70.0044 270 69.4003V45.7758C269.999 33.0743 259.723 22.7774 247.045 22.7774Z" fill="#B9C5C6"/>
<path d="M214 37C222.284 37 229 30.2843 229 22C229 13.7157 222.284 7 214 7C205.716 7 199 13.7157 199 22C199 30.2843 205.716 37 214 37Z" fill="#2B3B47"/>
</svg>
